M48
METRIC,LZ,000.000
;FILE_FORMAT=3:3
;TYPE=PLATED
;Layer: PTH_Through
;EasyEDA v6.5.9, 2022-07-20 21:00:06
;675a4c6cb2ae45bbbec233c6ba45e6eb,48182110fa554b5a8835cd683ef60cbf,10
;Gerber Generator version 0.2
;Holesize 1 = 0.306 mm
T01C0.306
;Holesize 2 = 0.800 mm
T02C0.800
;Holesize 3 = 0.811 mm
T03C0.811
;Holesize 4 = 0.889 mm
T04C0.889
;Holesize 5 = 0.915 mm
T05C0.915
;Holesize 6 = 1.000 mm
T06C1.000
;Holesize 7 = 1.016 mm
T07C1.016
;Holesize 8 = 1.021 mm
T08C1.021
;Holesize 9 = 1.101 mm
T09C1.101
;Holesize 10 = 1.200 mm
T10C1.200
;Holesize 11 = 2.000 mm
T11C2.000
%
G05
G90
T01
X-004317Y023638
X-026457Y008284
T02
X043579Y020538
X045375Y022334
X041783Y022334
X043579Y024130
X039987Y024130
X041783Y025926
X039987Y027722
X038191Y025926
X038136Y035088
X036340Y033292
X034544Y031496
X032748Y029700
X030952Y027904
X-042191Y003710
X-040395Y001914
X-038599Y000118
X-036803Y-001678
T03
X026017Y036050
X029609Y039642
X-011239Y042608
X-009443Y040812
X-007647Y039016
X-005851Y037220
X-004055Y035424
X-002259Y033628
X-000463Y031832
X001333Y030036
T04
X022451Y-011674
X020655Y-009878
X018858Y-008082
X017062Y-006286
X015266Y-004490
X013470Y-002694
X011674Y-000898
X009878Y000898
X008082Y002694
X006286Y004490
X004490Y006286
X002694Y008082
X000898Y009878
X-000898Y011674
X-002694Y013470
X-004490Y015266
X-006286Y017062
X-008082Y018858
X-009878Y020655
X-011674Y022451
X011611Y-022406
X009815Y-020610
X008019Y-018814
X006223Y-017018
X004427Y-015222
X002631Y-013426
X000835Y-011630
X-000961Y-009834
X-002757Y-008038
X-004553Y-006242
X-006349Y-004446
X-008145Y-002650
X-009942Y-000854
X-011738Y000942
X-013534Y002739
X-015330Y004535
X-017126Y006331
X-018922Y008127
X-020718Y009923
X-022514Y011719
T05
X027813Y037846
X017781Y-012752
X016164Y-014368
X014368Y-016164
X012752Y-017781
T06
X-041684Y035915
X-039888Y037711
X-038092Y039507
X-036294Y041301
T07
X-034861Y021654
X-033065Y023450
X-031269Y025246
X-029473Y027042
X-027677Y028838
X-025881Y030634
X-024085Y032430
X-022289Y034226
T08
X-029707Y-029348G85X-029711Y-029344
X-031503Y-027552G85X-031507Y-027548
T09
X-038898Y007130
X-037102Y008926
X-037102Y005334
X-035306Y007130
X-035306Y003538
X-033510Y005334
X-033510Y001742
X-031714Y003538
T10
X006521Y-027857
X004725Y-026061
X002929Y-024265
X001133Y-022469
X-000663Y-020673
X-002459Y-018877
X-004255Y-017081
X-006051Y-015285
X-007847Y-013489
X-009643Y-011693
X-011439Y-009897
X-013235Y-008101
X-015031Y-006305
X-016827Y-004509
X-018623Y-002713
X-020419Y-000917
X-022215Y000879
X-024011Y002675
X-025807Y004471
X-027603Y006267
X-005632Y028238
X-003836Y026442
X-002040Y024646
X-000244Y022850
X001552Y021054
X003348Y019258
X005144Y017462
X006940Y015666
X008736Y013870
X010532Y012074
X012328Y010278
X014124Y008482
X015920Y006686
X017716Y004890
X019512Y003094
X021308Y001298
X023104Y-000498
X024900Y-002294
X026696Y-004090
X028492Y-005886
T11
X018241Y025827
X028494Y015574
X-015701Y-028621
X-025954Y-018368
M30
