G04 Layer: BottomLayer*
G04 EasyEDA v6.5.9, 2022-07-20 21:00:06*
G04 675a4c6cb2ae45bbbec233c6ba45e6eb,48182110fa554b5a8835cd683ef60cbf,10*
G04 Gerber Generator version 0.2*
G04 Scale: 100 percent, Rotated: No, Reflected: No *
G04 Dimensions in millimeters *
G04 leading zeros omitted , absolute positions ,4 integer and 5 decimal *
%FSLAX45Y45*%
%MOMM*%

%ADD10C,0.2540*%
%ADD11C,0.4000*%
%ADD12C,1.5200*%
%ADD13C,1.8001*%
%ADD14C,1.5200*%
%ADD15C,1.6500*%
%ADD16C,1.8796*%
%ADD17C,1.6510*%
%ADD18C,1.5240*%
%ADD19C,1.6000*%
%ADD20C,1.8000*%
%ADD21C,0.6100*%
%ADD22C,0.0165*%

%LPD*%
D10*
X442668Y-1522194D02*
G01*
X442668Y285625D01*
X-206377Y934671D01*
X-206377Y1230454D01*
X-154129Y1282702D01*
X-154129Y2086231D01*
X-431675Y2363777D01*
X-66271Y-2067328D02*
G01*
X442668Y-1558389D01*
X442668Y-1522194D01*
X-2645666Y828423D02*
G01*
X-3486127Y1668884D01*
X-3486127Y2165377D01*
X-605081Y-1528518D02*
G01*
X-96141Y-1019578D01*
X-96141Y-983383D01*
X-455348Y-624177D02*
G01*
X-455348Y-467687D01*
X-2767688Y1844652D01*
X-2767688Y2883791D01*
X-964288Y-1169311D02*
G01*
X-455348Y-660372D01*
X-455348Y-624177D01*
X-275744Y-803780D02*
G01*
X-275744Y-589607D01*
X-2588084Y1722732D01*
X-2588084Y3063420D01*
X-784684Y-1348915D02*
G01*
X-275744Y-839975D01*
X-275744Y-803780D01*
D11*
X-1167437Y2245057D02*
G01*
X-2165403Y3243023D01*
X-2408481Y3243023D01*
X-3171395Y353799D02*
G01*
X-3350999Y533402D01*
X-3350999Y533402D02*
G01*
X-3530602Y713005D01*
X-3150491Y-2755008D02*
G01*
X-3365807Y-2539692D01*
X-3365807Y-36624D01*
X-3171395Y157787D01*
X-3171395Y353799D01*
X472539Y-2606139D02*
G01*
X981478Y-2097199D01*
X981478Y-2061029D01*
X-383644Y2644244D02*
G01*
X-46281Y2981606D01*
X-46281Y3183181D01*
D10*
X-405488Y3542388D02*
G01*
X-256059Y3542388D01*
X873605Y2412723D01*
X873605Y1387020D01*
X-3680284Y-167815D02*
G01*
X-3680284Y-2395877D01*
X-3141550Y-2934611D01*
X-2970888Y-2934611D01*
X292935Y-2426535D02*
G01*
X801875Y-1917595D01*
X801875Y-1881426D01*
X622272Y-1701822D02*
G01*
X622272Y187378D01*
X-30939Y840590D01*
X-30939Y1046685D01*
X25473Y1103099D01*
X25473Y1983590D01*
X-373103Y2382166D01*
X-373103Y2388034D01*
X-515292Y2530223D01*
X-515292Y2683207D01*
X-436247Y2762252D01*
X-436247Y3361133D01*
X-585091Y3509977D01*
X-585091Y3721991D01*
X113332Y-2246932D02*
G01*
X622272Y-1737992D01*
X622272Y-1701822D01*
X263065Y-1342590D02*
G01*
X263065Y-806904D01*
X-744806Y200967D01*
X-744806Y1792810D01*
X-697613Y1840003D01*
X-697613Y3622499D01*
X-1123927Y4048813D01*
X-1123927Y4260827D01*
X-245874Y-1887725D02*
G01*
X263065Y-1378785D01*
X263065Y-1342590D01*
X83461Y-1162987D02*
G01*
X83461Y-755418D01*
X-2382166Y1710209D01*
X-2382166Y3037131D01*
X-2531976Y3186940D01*
X-2531976Y3299691D01*
X-1454279Y4377387D01*
X-1081509Y4377387D01*
X-944323Y4240202D01*
X-944323Y4081223D01*
X-425477Y-1708122D02*
G01*
X83461Y-1199182D01*
X83461Y-1162987D01*
X-1143891Y-989708D02*
G01*
X-634951Y-480768D01*
X-634951Y-444573D01*
X-1323494Y-810079D02*
G01*
X-814555Y-301139D01*
X-814555Y-264970D01*
X-1503123Y-630476D02*
G01*
X-994158Y-121511D01*
X-994158Y-85366D01*
X-1682727Y-450872D02*
G01*
X-1173761Y58092D01*
X-1173761Y94236D01*
X-1862330Y-271269D02*
G01*
X-1353365Y237695D01*
X-1353365Y273839D01*
X-2041933Y-91666D02*
G01*
X-1532994Y417273D01*
X-1532994Y453443D01*
X-2221537Y87937D02*
G01*
X-1712597Y596877D01*
X-1712597Y633046D01*
X-2401140Y267540D02*
G01*
X-1892200Y776480D01*
X-1892200Y812650D01*
X-2580744Y447144D02*
G01*
X-2580744Y483313D01*
X-2071804Y992253D01*
X-4168396Y3591486D02*
G01*
X-4168396Y1851383D01*
X-2764157Y447144D01*
X-2580744Y447144D01*
X-2760347Y704344D02*
G01*
X-2686890Y704344D01*
X-2251407Y1139827D01*
X-2251407Y1171882D01*
X-2760347Y704344D02*
G01*
X-2760347Y781941D01*
X-2760347Y626747D02*
G01*
X-2760347Y704344D01*
X-3988793Y3771089D02*
G01*
X-3988793Y2010387D01*
X-2760347Y781941D01*
D11*
X-808230Y1885850D02*
G01*
X-808230Y2056310D01*
X-2174547Y3422627D01*
X-2228877Y3422627D01*
X1161082Y-2240633D02*
G01*
X1161082Y-259839D01*
X328292Y572950D01*
X328292Y687504D01*
X395958Y755169D01*
X395958Y1682727D01*
X-204040Y2282725D01*
X-204040Y2464640D01*
X652142Y-2785742D02*
G01*
X1161082Y-2276802D01*
X1161082Y-2240633D01*
X-3889809Y713005D02*
G01*
X-3889809Y861341D01*
X-3889809Y861341D02*
G01*
X-4288259Y1259791D01*
X-4288259Y3649855D01*
X-3987421Y3950693D01*
X-3809189Y3950693D01*
X-3350999Y174195D02*
G01*
X-3530602Y353799D01*
X-3530602Y353799D02*
G01*
X-3710205Y533402D01*
G36*
X4465383Y2053790D02*
G01*
X4357905Y2161268D01*
X4250425Y2053790D01*
X4357905Y1946310D01*
G37*
D12*
G01*
X4537506Y2233396D03*
G01*
X4178300Y2233396D03*
G01*
X4357903Y2413000D03*
G01*
X3998696Y2413000D03*
G01*
X4178300Y2592603D03*
G01*
X3998696Y2772206D03*
G01*
X3819093Y2592603D03*
D13*
G01*
X-2970885Y-2934614D03*
G01*
X-3150488Y-2755011D03*
D12*
G01*
X3813606Y3508806D03*
G01*
X3634003Y3329203D03*
G01*
X3454400Y3149600D03*
G01*
X3274796Y2969996D03*
G01*
X3095193Y2790393D03*
D14*
G01*
X2601696Y3604996D03*
G01*
X2960903Y3964203D03*
G01*
X2781300Y3784600D03*
D15*
G01*
X-4168394Y3591483D03*
G01*
X-3988790Y3771087D03*
G01*
X-3809187Y3950690D03*
G01*
X-3629405Y4130116D03*
G36*
X1824052Y2794777D02*
G01*
X1611922Y2582646D01*
X1824052Y2370515D01*
X2036183Y2582646D01*
G37*
G36*
X2849346Y1769483D02*
G01*
X2637215Y1557352D01*
X2849346Y1345222D01*
X3061477Y1557352D01*
G37*
G36*
X-1570070Y-2649933D02*
G01*
X-1782203Y-2862064D01*
X-1570070Y-3074195D01*
X-1357939Y-2862064D01*
G37*
G36*
X-2595364Y-1624639D02*
G01*
X-2807495Y-1836770D01*
X-2595364Y-2048903D01*
X-2383233Y-1836770D01*
G37*
D16*
G01*
X-3486124Y2165375D03*
G01*
X-3306521Y2344978D03*
G01*
X-3126917Y2524582D03*
G01*
X-2947288Y2704185D03*
G01*
X-2767685Y2883788D03*
G01*
X-2588082Y3063417D03*
G01*
X-2408478Y3243021D03*
G01*
X-2228875Y3422624D03*
G36*
X2361801Y-1167439D02*
G01*
X2245057Y-1284183D01*
X2128314Y-1167439D01*
X2245057Y-1050696D01*
G37*
D17*
G01*
X2065451Y-987831D03*
G01*
X1885848Y-808228D03*
G01*
X1706245Y-628624D03*
G01*
X1526641Y-449021D03*
G01*
X1347038Y-269417D03*
G01*
X1167434Y-89814D03*
G01*
X987831Y89788D03*
G01*
X808228Y269417D03*
G01*
X628624Y449021D03*
G01*
X449021Y628624D03*
G01*
X269417Y808228D03*
G01*
X89814Y987831D03*
G01*
X-89788Y1167434D03*
G01*
X-269417Y1347038D03*
G01*
X-449021Y1526641D03*
G01*
X-628624Y1706245D03*
G01*
X-808228Y1885848D03*
G01*
X-987831Y2065451D03*
G01*
X-1167434Y2245055D03*
G36*
X1277848Y-2240622D02*
G01*
X1161105Y-2357366D01*
X1044361Y-2240622D01*
X1161105Y-2123879D01*
G37*
G01*
X981481Y-2061032D03*
G01*
X801878Y-1881428D03*
G01*
X622274Y-1701825D03*
G01*
X442671Y-1522196D03*
G01*
X263067Y-1342593D03*
G01*
X83464Y-1162989D03*
G01*
X-96138Y-983386D03*
G01*
X-275742Y-803782D03*
G01*
X-455345Y-624179D03*
G01*
X-634949Y-444576D03*
G01*
X-814552Y-264972D03*
G01*
X-994155Y-85369D03*
G01*
X-1173759Y94234D03*
G01*
X-1353388Y273837D03*
G01*
X-1532991Y453440D03*
G01*
X-1712595Y633044D03*
G01*
X-1892198Y812647D03*
G01*
X-2071801Y992251D03*
G01*
X-2251405Y1171879D03*
D18*
G01*
X1778101Y-1275206D03*
G01*
X1616455Y-1436852D03*
G01*
X1436852Y-1616455D03*
G01*
X1275206Y-1778101D03*
G36*
X-3889809Y826142D02*
G01*
X-3776672Y713005D01*
X-3889809Y599869D01*
X-4002946Y713005D01*
G37*
D19*
G01*
X-3710203Y892606D03*
G01*
X-3710203Y533400D03*
G01*
X-3530600Y713003D03*
G01*
X-3530600Y353796D03*
G01*
X-3350996Y533400D03*
G01*
X-3350996Y174193D03*
G01*
X-3171393Y353796D03*
G36*
X-4219107Y478487D02*
G01*
X-4111627Y371007D01*
X-4219107Y263527D01*
X-4326587Y371007D01*
G37*
D12*
G01*
X-4039488Y191388D03*
G01*
X-3859885Y11785D03*
G01*
X-3680282Y-167817D03*
D14*
G01*
X-1123924Y4260824D03*
G01*
X-944321Y4081221D03*
G01*
X-764717Y3901617D03*
G01*
X-585088Y3721988D03*
G01*
X-405485Y3542385D03*
G01*
X-225882Y3362782D03*
G01*
X-46278Y3183178D03*
G01*
X133324Y3003575D03*
D20*
G01*
X652145Y-2785745D03*
G01*
X472541Y-2606141D03*
G01*
X292938Y-2426538D03*
G01*
X113334Y-2246934D03*
G01*
X-66268Y-2067331D03*
G01*
X-245871Y-1887728D03*
G01*
X-425475Y-1708124D03*
G01*
X-605078Y-1528521D03*
G01*
X-784682Y-1348917D03*
G01*
X-964285Y-1169314D03*
G01*
X-1143888Y-989711D03*
G01*
X-1323517Y-810082D03*
G01*
X-1503121Y-630478D03*
G01*
X-1682724Y-450875D03*
G01*
X-1862328Y-271271D03*
G01*
X-2041931Y-91668D03*
G01*
X-2221534Y87934D03*
G01*
X-2401138Y267538D03*
G01*
X-2580741Y447141D03*
G36*
X-2760347Y754026D02*
G01*
X-2633070Y626747D01*
X-2760347Y499470D01*
X-2887626Y626747D01*
G37*
G01*
X-563245Y2823845D03*
G01*
X-383641Y2644241D03*
G01*
X-204038Y2464638D03*
G01*
X-24434Y2285034D03*
G01*
X155168Y2105431D03*
G01*
X334771Y1925828D03*
G01*
X514375Y1746224D03*
G01*
X693978Y1566621D03*
G01*
X873582Y1387017D03*
G01*
X1053211Y1207388D03*
G01*
X1232814Y1027785D03*
G01*
X1412417Y848182D03*
G01*
X1592021Y668578D03*
G01*
X1771624Y488975D03*
G01*
X1951227Y309371D03*
G01*
X2130831Y129768D03*
G01*
X2310434Y-49834D03*
G01*
X2490038Y-229438D03*
G01*
X2669641Y-409041D03*
G36*
X2849247Y-715926D02*
G01*
X2721970Y-588647D01*
X2849247Y-461370D01*
X2976526Y-588647D01*
G37*
D21*
G01*
X-431672Y2363774D03*
G01*
X-2645663Y828420D03*
M02*
