G04 Layer: TopSolderMaskLayer*
G04 EasyEDA v6.5.9, 2022-07-20 21:00:06*
G04 675a4c6cb2ae45bbbec233c6ba45e6eb,48182110fa554b5a8835cd683ef60cbf,10*
G04 Gerber Generator version 0.2*
G04 Scale: 100 percent, Rotated: No, Reflected: No *
G04 Dimensions in millimeters *
G04 leading zeros omitted , absolute positions ,4 integer and 5 decimal *
%FSLAX45Y45*%
%MOMM*%

%ADD10C,1.7232*%
%ADD11C,2.0033*%
%ADD12C,1.7232*%
%ADD13C,1.7516*%
%ADD14C,2.0828*%
%ADD15C,1.8542*%
%ADD16C,1.6256*%
%ADD17C,1.7016*%
%ADD18C,1.6216*%
%ADD19C,1.9016*%
%ADD20C,0.0185*%

%LPD*%
G36*
X4506722Y4914595D02*
G01*
X4251655Y4841697D01*
X4121658Y4804156D01*
X4037279Y4779518D01*
X3930345Y4747564D01*
X3753256Y4788255D01*
X3621379Y4818989D01*
X3518712Y4843424D01*
X3443020Y4861814D01*
X3347415Y4885639D01*
X3312922Y4893513D01*
X3285337Y4898898D01*
X3258159Y4903470D01*
X3231642Y4907127D01*
X3218688Y4908651D01*
X3193694Y4910937D01*
X3170021Y4912207D01*
X3158845Y4912512D01*
X3058566Y4911496D01*
X3545789Y4788814D01*
X3618992Y4770932D01*
X3686200Y4754880D01*
X3746855Y4740859D01*
X3800449Y4728921D01*
X3846372Y4719218D01*
X3884066Y4711903D01*
X3912971Y4707077D01*
X3923995Y4705654D01*
X3932580Y4704842D01*
X3938676Y4704791D01*
X3948226Y4706061D01*
X3964330Y4709261D01*
X3985158Y4713986D01*
X4016603Y4721809D01*
X4045102Y4729327D01*
X4075684Y4737709D01*
X4115562Y4749139D01*
X4421073Y4840732D01*
X4476394Y4856835D01*
X4531461Y4872532D01*
X4577283Y4885232D01*
X4658563Y4907280D01*
G37*
G36*
X2405888Y4912410D02*
G01*
X2308555Y4911242D01*
X2482443Y4867808D01*
X2589072Y4842103D01*
X2668270Y4823510D01*
X2887167Y4773472D01*
X3080562Y4728362D01*
X3113684Y4720894D01*
X3144113Y4714341D01*
X3170783Y4708855D01*
X3192627Y4704638D01*
X3208578Y4701946D01*
X3217621Y4701032D01*
X3226206Y4699762D01*
X3233267Y4696256D01*
X3238042Y4691075D01*
X3239820Y4684776D01*
X3239058Y4677460D01*
X3237026Y4669637D01*
X3234080Y4662220D01*
X3229254Y4654448D01*
X3229508Y4654296D01*
X3233877Y4658410D01*
X3242818Y4667707D01*
X3289808Y4718812D01*
X3289808Y4690414D01*
X3290671Y4679950D01*
X3293059Y4672380D01*
X3296615Y4668469D01*
X3300933Y4668926D01*
X3302000Y4669332D01*
X3306013Y4669688D01*
X3312363Y4669434D01*
X3320846Y4668672D01*
X3343452Y4665675D01*
X3372358Y4660849D01*
X3406089Y4654499D01*
X3443173Y4646777D01*
X3516629Y4630724D01*
X3573068Y4618837D01*
X3591306Y4615230D01*
X3601821Y4613503D01*
X3606800Y4614824D01*
X3614318Y4618431D01*
X3623310Y4623714D01*
X3632809Y4630166D01*
X3655568Y4646828D01*
X3325012Y4717542D01*
X3315715Y4742637D01*
X3311093Y4752797D01*
X3306470Y4757928D01*
X3301949Y4758029D01*
X3294887Y4750206D01*
X3291281Y4747463D01*
X3286709Y4744974D01*
X3281375Y4742840D01*
X3275380Y4741011D01*
X3268979Y4739690D01*
X3262325Y4738827D01*
X3255517Y4738522D01*
X3249015Y4738827D01*
X3240379Y4739741D01*
X3229914Y4741214D01*
X3204616Y4745634D01*
X3175203Y4751578D01*
X3143859Y4758740D01*
X3093466Y4771288D01*
X2996488Y4794554D01*
X2919933Y4812436D01*
X2783027Y4843830D01*
X2661970Y4872075D01*
X2581808Y4891328D01*
X2569464Y4894072D01*
X2542895Y4899101D01*
X2514701Y4903571D01*
X2500325Y4905502D01*
X2478684Y4907991D01*
X2457450Y4909972D01*
X2443734Y4911039D01*
X2417826Y4912258D01*
G37*
G36*
X3546297Y4912258D02*
G01*
X3508552Y4910988D01*
X3552698Y4898847D01*
X3629761Y4879086D01*
X3748532Y4849317D01*
X3929379Y4804410D01*
X4142486Y4869942D01*
X4202938Y4888230D01*
X4245203Y4900676D01*
X4263796Y4905857D01*
X4266946Y4907178D01*
X4268114Y4908397D01*
X4267200Y4909413D01*
X4264253Y4910328D01*
X4259275Y4911039D01*
X4252264Y4911648D01*
X4240580Y4912106D01*
X4234180Y4911750D01*
X4226255Y4910886D01*
X4216908Y4909566D01*
X4194556Y4905603D01*
X4168241Y4900168D01*
X4139031Y4893411D01*
X4107942Y4885537D01*
X4092092Y4881321D01*
X4068165Y4874615D01*
X3933545Y4835652D01*
X3829608Y4853838D01*
X3805174Y4858613D01*
X3751834Y4870094D01*
X3718509Y4877816D01*
X3693566Y4883962D01*
X3671315Y4889804D01*
X3641851Y4897221D01*
X3612540Y4903520D01*
X3585464Y4908397D01*
X3573373Y4910175D01*
X3562654Y4911445D01*
X3553561Y4912156D01*
G37*
G36*
X4968798Y4875326D02*
G01*
X4964531Y4874869D01*
X4949596Y4872075D01*
X4927498Y4867046D01*
X4899609Y4860188D01*
X4867554Y4851806D01*
X4832756Y4842306D01*
X4530648Y4756150D01*
X4411980Y4722977D01*
X4289044Y4689043D01*
X4224629Y4670806D01*
X4201312Y4663998D01*
X4181500Y4657750D01*
X4179671Y4656937D01*
X4179519Y4655616D01*
X4180636Y4653178D01*
X4182872Y4649724D01*
X4186123Y4645406D01*
X4195267Y4634738D01*
X4207154Y4622292D01*
X4213555Y4616246D01*
X4219651Y4611116D01*
X4225391Y4606950D01*
X4230522Y4603800D01*
X4234992Y4601819D01*
X4238599Y4601006D01*
X4241190Y4601514D01*
X4242663Y4603343D01*
X4243781Y4605172D01*
X4245965Y4607204D01*
X4249166Y4609439D01*
X4253230Y4611827D01*
X4263847Y4616907D01*
X4277055Y4622190D01*
X4292295Y4627321D01*
X4300474Y4629810D01*
X4362399Y4646574D01*
X4581398Y4706924D01*
X4832807Y4777130D01*
X4909261Y4798822D01*
X4983530Y4820767D01*
X4987544Y4848402D01*
X4988255Y4855311D01*
X4988153Y4861102D01*
X4987239Y4865827D01*
X4985461Y4869535D01*
X4982718Y4872278D01*
X4979060Y4874158D01*
X4974437Y4875123D01*
G37*
G36*
X1392326Y4775149D02*
G01*
X1391818Y4773625D01*
X1391412Y4770577D01*
X1391005Y4760417D01*
X1391005Y4745939D01*
X1391666Y4729378D01*
X1392275Y4722672D01*
X1393088Y4717542D01*
X1394002Y4714036D01*
X1395069Y4712157D01*
X1396187Y4712106D01*
X1397406Y4713884D01*
X1398625Y4717592D01*
X1404518Y4740402D01*
X1458569Y4694936D01*
X1409344Y4754118D01*
X1394206Y4773168D01*
X1392936Y4774996D01*
G37*
G36*
X-10210Y4716322D02*
G01*
X-10210Y4652162D01*
X74828Y4637176D01*
X297535Y4596942D01*
X591261Y4543501D01*
X743559Y4515459D01*
X754024Y4513275D01*
X762558Y4511141D01*
X770890Y4508703D01*
X779018Y4506061D01*
X786790Y4503166D01*
X794105Y4500118D01*
X800912Y4496917D01*
X807110Y4493666D01*
X812596Y4490313D01*
X817270Y4487011D01*
X821080Y4483709D01*
X823925Y4480458D01*
X827836Y4474768D01*
X830681Y4469841D01*
X832561Y4465523D01*
X833374Y4461865D01*
X833221Y4458817D01*
X832002Y4456328D01*
X829818Y4454347D01*
X826617Y4452874D01*
X823417Y4452518D01*
X817676Y4452620D01*
X809701Y4453178D01*
X787603Y4455668D01*
X758698Y4459681D01*
X724560Y4465066D01*
X686663Y4471568D01*
X345033Y4534763D01*
X206857Y4559909D01*
X65735Y4584852D01*
X37795Y4590338D01*
X17729Y4594707D01*
X11684Y4596282D01*
X-10210Y4602683D01*
X-10210Y4366361D01*
X62636Y4356608D01*
X103073Y4350359D01*
X156972Y4341520D01*
X226974Y4329734D01*
X575005Y4269130D01*
X699973Y4247743D01*
X816000Y4228896D01*
X871372Y4220616D01*
X938733Y4212132D01*
X976884Y4166615D01*
X982878Y4158996D01*
X992987Y4145026D01*
X996848Y4139082D01*
X999794Y4134053D01*
X1001674Y4130141D01*
X1002284Y4127550D01*
X1001928Y4126839D01*
X1000760Y4126280D01*
X998931Y4125823D01*
X993190Y4125315D01*
X984910Y4125214D01*
X974394Y4125569D01*
X961796Y4126331D01*
X947470Y4127500D01*
X914400Y4131005D01*
X881837Y4135323D01*
X836726Y4141927D01*
X783793Y4150055D01*
X713232Y4161282D01*
X658520Y4170324D01*
X314350Y4229150D01*
X253644Y4239260D01*
X190144Y4249318D01*
X136499Y4257192D01*
X97637Y4262221D01*
X85293Y4263440D01*
X68935Y4264355D01*
X61010Y4266336D01*
X56641Y4269282D01*
X56641Y4272889D01*
X57048Y4274769D01*
X56032Y4276547D01*
X53644Y4278122D01*
X50038Y4279493D01*
X45364Y4280662D01*
X39776Y4281525D01*
X33274Y4282084D01*
X26111Y4282287D01*
X-10210Y4282287D01*
X-10210Y4216146D01*
X131724Y4191457D01*
X216966Y4177741D01*
X339598Y4158742D01*
X618490Y4117136D01*
X719836Y4101592D01*
X761898Y4094734D01*
X799592Y4087114D01*
X796180Y4074058D01*
X836879Y4074058D01*
X897940Y4083100D01*
X908659Y4084065D01*
X920546Y4084624D01*
X933297Y4084726D01*
X946658Y4084421D01*
X960424Y4083761D01*
X974293Y4082694D01*
X988009Y4081322D01*
X1001318Y4079544D01*
X1013917Y4077411D01*
X1090472Y4061612D01*
X1133703Y3991914D01*
X1134922Y3992067D01*
X1143304Y3995521D01*
X1158748Y4002633D01*
X1207211Y4026052D01*
X1303578Y4074210D01*
X1330299Y4087215D01*
X1357579Y4099966D01*
X1378102Y4109262D01*
X1411884Y4123944D01*
X1437843Y4134815D01*
X1462430Y4144568D01*
X1485036Y4153103D01*
X1505254Y4160164D01*
X1522526Y4165498D01*
X1529892Y4167479D01*
X1558544Y4174134D01*
X1587855Y4179874D01*
X1602079Y4182364D01*
X1628292Y4186174D01*
X1639722Y4187444D01*
X1649730Y4188256D01*
X1658010Y4188510D01*
X1702307Y4188510D01*
X1702460Y4225239D01*
X1703578Y4239006D01*
X1705660Y4252518D01*
X1706930Y4258665D01*
X1708353Y4264152D01*
X1709877Y4268774D01*
X1717497Y4288536D01*
X1924253Y4288536D01*
X1939594Y4270044D01*
X1942642Y4265726D01*
X1945436Y4260646D01*
X1947875Y4254855D01*
X1950008Y4248658D01*
X1951634Y4242206D01*
X1952853Y4235653D01*
X1953463Y4229252D01*
X1953361Y4220972D01*
X1944420Y4068775D01*
X1943252Y4039514D01*
X1942846Y4017060D01*
X1942896Y3987241D01*
X1943607Y3958691D01*
X1944979Y3932529D01*
X1946910Y3909872D01*
X1948078Y3900220D01*
X1949450Y3891838D01*
X1961286Y3826713D01*
X1912162Y3782263D01*
X1840026Y3785412D01*
X1829562Y3785463D01*
X1818081Y3785209D01*
X1792732Y3783837D01*
X1765554Y3781348D01*
X1744776Y3778859D01*
X1731111Y3776979D01*
X1705051Y3772611D01*
X1693011Y3770223D01*
X1671370Y3765296D01*
X1647037Y3759200D01*
X1620977Y3752189D01*
X1587652Y3742740D01*
X1561693Y3734917D01*
X1537462Y3727196D01*
X1515821Y3719779D01*
X1493418Y3711701D01*
X1457248Y3698036D01*
X1426768Y3686048D01*
X1403502Y3676599D01*
X1382318Y3667709D01*
X1364081Y3659784D01*
X1352346Y3654247D01*
X1340154Y3648201D01*
X1327759Y3641648D01*
X1315415Y3634790D01*
X1291691Y3620770D01*
X1280820Y3613810D01*
X1270863Y3607054D01*
X1262075Y3600704D01*
X1254709Y3594862D01*
X1249324Y3590188D01*
X1239215Y3580333D01*
X1230376Y3570376D01*
X1226515Y3565499D01*
X1220266Y3556304D01*
X1217930Y3552139D01*
X1216253Y3548278D01*
X1215186Y3544874D01*
X1214831Y3541979D01*
X1214831Y3522624D01*
X1270508Y3530346D01*
X1283766Y3532835D01*
X1301140Y3536696D01*
X1322019Y3541826D01*
X1345895Y3548024D01*
X1399895Y3562959D01*
X1458315Y3580180D01*
X1520748Y3599840D01*
X1555242Y3611016D01*
X1596085Y3624630D01*
X1652727Y3644137D01*
X1694434Y3659124D01*
X1710893Y3665372D01*
X1753616Y3682695D01*
X1819452Y3710330D01*
X1864817Y3730040D01*
X1879041Y3736644D01*
X1893062Y3743756D01*
X1906574Y3751072D01*
X1919173Y3758488D01*
X1930552Y3765651D01*
X1940255Y3772458D01*
X1948027Y3778605D01*
X1953412Y3783939D01*
X1955495Y3786682D01*
X1959965Y3793947D01*
X1964689Y3803345D01*
X1969465Y3814521D01*
X1974189Y3827018D01*
X1978761Y3840479D01*
X1982978Y3854602D01*
X1986686Y3868877D01*
X1989988Y3883202D01*
X1993646Y3897833D01*
X1997811Y3912514D01*
X2002282Y3926840D01*
X2006904Y3940403D01*
X2011527Y3952849D01*
X2016099Y3963670D01*
X2020366Y3972458D01*
X2041296Y4007256D01*
X2034082Y3962450D01*
X2033320Y3951732D01*
X2033117Y3939032D01*
X2033524Y3924808D01*
X2034387Y3909517D01*
X2035810Y3893667D01*
X2037689Y3877665D01*
X2040026Y3862019D01*
X2042769Y3846982D01*
X2045919Y3832250D01*
X2049424Y3817975D01*
X2053082Y3804564D01*
X2056841Y3792372D01*
X2060600Y3781755D01*
X2064207Y3773119D01*
X2065883Y3769664D01*
X2069084Y3764635D01*
X2074214Y3759149D01*
X2081326Y3752697D01*
X2089962Y3745687D01*
X2099564Y3738422D01*
X2109673Y3731361D01*
X2119782Y3724910D01*
X2156002Y3702812D01*
X2091842Y3661511D01*
X2077364Y3652774D01*
X2059178Y3642360D01*
X2013813Y3617569D01*
X1942599Y3580587D01*
X2227478Y3580587D01*
X2276195Y3622294D01*
X2302967Y3644290D01*
X2310231Y3649726D01*
X2311654Y3650538D01*
X2312314Y3649472D01*
X2313432Y3641191D01*
X2314244Y3626154D01*
X2314752Y3606241D01*
X2314803Y3538931D01*
X2227478Y3580587D01*
X1942599Y3580587D01*
X1918462Y3568446D01*
X1883562Y3551326D01*
X1864918Y3542436D01*
X1822500Y3523030D01*
X1774952Y3502151D01*
X1730806Y3483305D01*
X1672742Y3459327D01*
X1622044Y3439109D01*
X1591767Y3427425D01*
X1563166Y3416655D01*
X1513890Y3398824D01*
X1447393Y3375406D01*
X1382522Y3353257D01*
X1329893Y3335832D01*
X1290980Y3323437D01*
X1275181Y3318611D01*
X1246835Y3310636D01*
X1214069Y3302304D01*
X1183741Y3295548D01*
X1170228Y3292906D01*
X1158189Y3290824D01*
X1147876Y3289350D01*
X1139647Y3288639D01*
X1136345Y3288537D01*
X1130604Y3288792D01*
X1124712Y3289604D01*
X1118717Y3290874D01*
X1112672Y3292703D01*
X1106576Y3295040D01*
X1100480Y3297834D01*
X1094384Y3301085D01*
X1088339Y3304794D01*
X1082344Y3308959D01*
X1076401Y3313582D01*
X1070559Y3318611D01*
X1064869Y3324047D01*
X1061161Y3327908D01*
X1053744Y3336798D01*
X1046429Y3346856D01*
X1039418Y3357778D01*
X1032865Y3369259D01*
X1027023Y3380892D01*
X1022096Y3392322D01*
X1018184Y3403244D01*
X1016050Y3411118D01*
X1013358Y3425342D01*
X1010462Y3444392D01*
X1007618Y3467506D01*
X1004773Y3493820D01*
X1002080Y3522522D01*
X999642Y3552850D01*
X997458Y3583940D01*
X994003Y3642512D01*
X992022Y3671417D01*
X986790Y3735222D01*
X984300Y3761536D01*
X981760Y3785717D01*
X979220Y3807002D01*
X976833Y3824833D01*
X973328Y3845051D01*
X970483Y3858463D01*
X967181Y3872280D01*
X963523Y3886149D01*
X959612Y3899915D01*
X955446Y3913276D01*
X951179Y3925925D01*
X946912Y3937660D01*
X942594Y3948226D01*
X938428Y3957269D01*
X932687Y3967987D01*
X925779Y3979316D01*
X918006Y3990898D01*
X909624Y4002379D01*
X900937Y4013454D01*
X892098Y4023766D01*
X883462Y4032910D01*
X875233Y4040682D01*
X836879Y4074058D01*
X796180Y4074058D01*
X793445Y4063593D01*
X792632Y4058310D01*
X792632Y4052214D01*
X793445Y4045559D01*
X794969Y4038600D01*
X797204Y4031487D01*
X799998Y4024477D01*
X803402Y4017721D01*
X810006Y4007205D01*
X812596Y4002278D01*
X815086Y3996690D01*
X817372Y3990644D01*
X819505Y3984193D01*
X821436Y3977436D01*
X824585Y3963415D01*
X826566Y3949192D01*
X827125Y3942334D01*
X827328Y3935679D01*
X827328Y3913530D01*
X852322Y3913530D01*
X853033Y3918356D01*
X855065Y3922318D01*
X858062Y3924909D01*
X861669Y3925824D01*
X866800Y3924808D01*
X873810Y3922115D01*
X881786Y3918254D01*
X889812Y3913530D01*
X908558Y3901389D01*
X880414Y3901236D01*
X869492Y3902151D01*
X860552Y3904742D01*
X854506Y3908704D01*
X852322Y3913530D01*
X827328Y3913530D01*
X827328Y3888333D01*
X730910Y3897274D01*
X713841Y3898595D01*
X684225Y3900119D01*
X672338Y3900271D01*
X662889Y3900068D01*
X656234Y3899509D01*
X654100Y3899052D01*
X652780Y3898493D01*
X652322Y3897884D01*
X652881Y3896614D01*
X654558Y3894632D01*
X660857Y3888994D01*
X670661Y3881323D01*
X683361Y3872128D01*
X698246Y3861866D01*
X723798Y3845001D01*
X733399Y3838143D01*
X743458Y3830574D01*
X753922Y3822344D01*
X775258Y3804564D01*
X785876Y3795268D01*
X806297Y3776370D01*
X815797Y3767074D01*
X824636Y3758031D01*
X832713Y3749344D01*
X888034Y3687775D01*
X868222Y3629812D01*
X865835Y3623767D01*
X859078Y3608984D01*
X849985Y3591051D01*
X838962Y3570528D01*
X826211Y3547973D01*
X808431Y3517798D01*
X793089Y3492652D01*
X772972Y3460953D01*
X671068Y3307283D01*
X567716Y3255111D01*
X626110Y3255111D01*
X626719Y3257092D01*
X628091Y3259277D01*
X630275Y3261715D01*
X633222Y3264357D01*
X636981Y3267252D01*
X646785Y3273704D01*
X659790Y3281121D01*
X675894Y3289503D01*
X706932Y3304438D01*
X719175Y3310686D01*
X744626Y3324555D01*
X770077Y3339541D01*
X782421Y3347161D01*
X805484Y3362248D01*
X815848Y3369462D01*
X825195Y3376371D01*
X833424Y3382822D01*
X842670Y3390849D01*
X852169Y3399942D01*
X861720Y3409797D01*
X871118Y3420211D01*
X880262Y3431082D01*
X888898Y3442106D01*
X896924Y3453079D01*
X904138Y3463798D01*
X910386Y3474059D01*
X915466Y3483660D01*
X942441Y3539337D01*
X932840Y3590137D01*
X930249Y3600856D01*
X926947Y3612438D01*
X923086Y3624529D01*
X918819Y3636772D01*
X914247Y3648811D01*
X909472Y3660241D01*
X904697Y3670706D01*
X900277Y3679240D01*
X895299Y3687622D01*
X889355Y3696868D01*
X874979Y3717086D01*
X866851Y3727704D01*
X849680Y3748786D01*
X840841Y3758895D01*
X832103Y3768445D01*
X822401Y3778453D01*
X811022Y3789679D01*
X799236Y3800856D01*
X787400Y3811727D01*
X775868Y3821887D01*
X764946Y3831132D01*
X755040Y3839057D01*
X746455Y3845458D01*
X709269Y3869791D01*
X802944Y3878834D01*
X860602Y3883761D01*
X898702Y3886403D01*
X938834Y3888536D01*
X951280Y3839311D01*
X953566Y3826662D01*
X956005Y3809136D01*
X958494Y3787394D01*
X960932Y3762095D01*
X963320Y3733901D01*
X965606Y3703472D01*
X968248Y3663238D01*
X972464Y3580333D01*
X974394Y3547618D01*
X976528Y3516071D01*
X978814Y3486302D01*
X983640Y3434791D01*
X986078Y3414369D01*
X988415Y3398316D01*
X989533Y3392170D01*
X990650Y3387344D01*
X993749Y3377234D01*
X998118Y3365754D01*
X1003604Y3353257D01*
X1009954Y3340201D01*
X1017016Y3326942D01*
X1024483Y3313887D01*
X1032306Y3301492D01*
X1040130Y3290062D01*
X1048562Y3279038D01*
X1058062Y3267760D01*
X1068222Y3256635D01*
X1078738Y3245866D01*
X1089355Y3235807D01*
X1099667Y3226816D01*
X1109472Y3219145D01*
X1118311Y3213150D01*
X1127353Y3208223D01*
X1137666Y3203651D01*
X1148842Y3199434D01*
X1160576Y3195828D01*
X1172514Y3192780D01*
X1184249Y3190544D01*
X1195425Y3189071D01*
X1205738Y3188563D01*
X1252931Y3188512D01*
X1265682Y3154984D01*
X1268171Y3147720D01*
X1270355Y3139897D01*
X1272184Y3131820D01*
X1273606Y3123692D01*
X1274622Y3115767D01*
X1275181Y3108248D01*
X1275232Y3101492D01*
X1274724Y3095599D01*
X1271066Y3069793D01*
X1188313Y3039618D01*
X1158087Y3029305D01*
X1131417Y3021126D01*
X1120292Y3018129D01*
X1111250Y3015945D01*
X1104595Y3014776D01*
X1102309Y3014624D01*
X1099464Y3014929D01*
X1096213Y3016046D01*
X1092555Y3017875D01*
X1088593Y3020314D01*
X1084326Y3023412D01*
X1079906Y3027019D01*
X1075283Y3031134D01*
X1070610Y3035706D01*
X1061262Y3046018D01*
X1056690Y3051606D01*
X1048867Y3062020D01*
X1040841Y3071723D01*
X1031544Y3081985D01*
X1021334Y3092399D01*
X1010462Y3102711D01*
X999337Y3112617D01*
X988263Y3121761D01*
X977544Y3129889D01*
X968908Y3135731D01*
X960932Y3140608D01*
X941781Y3151124D01*
X919429Y3162147D01*
X907440Y3167735D01*
X882700Y3178454D01*
X857910Y3188309D01*
X834288Y3196640D01*
X809650Y3204514D01*
X783945Y3212134D01*
X752398Y3220720D01*
X729284Y3226460D01*
X709472Y3230727D01*
X686003Y3234994D01*
X671118Y3238093D01*
X657250Y3241395D01*
X645160Y3244697D01*
X635508Y3247796D01*
X629005Y3250590D01*
X627278Y3251860D01*
X626313Y3253384D01*
X626110Y3255111D01*
X567716Y3255111D01*
X564896Y3253689D01*
X605078Y3238246D01*
X565861Y3186684D01*
X554228Y3169869D01*
X549351Y3162249D01*
X545388Y3155492D01*
X542340Y3149803D01*
X540410Y3145383D01*
X539394Y3140608D01*
X536803Y3134106D01*
X531926Y3124504D01*
X525119Y3112465D01*
X516839Y3098647D01*
X507339Y3083712D01*
X464921Y3019755D01*
X467004Y2942031D01*
X467868Y2927045D01*
X468934Y2916275D01*
X469544Y2912567D01*
X470204Y2910027D01*
X470865Y2908757D01*
X471576Y2908706D01*
X472338Y2910027D01*
X473049Y2912618D01*
X475030Y2923540D01*
X476605Y2929991D01*
X478434Y2935833D01*
X480466Y2940913D01*
X482600Y2945130D01*
X484835Y2948330D01*
X487019Y2950311D01*
X489204Y2951022D01*
X491642Y2950413D01*
X494741Y2948635D01*
X498348Y2945790D01*
X502310Y2942031D01*
X506655Y2937357D01*
X826566Y2937357D01*
X868324Y2959201D01*
X880922Y2965399D01*
X890574Y2969818D01*
X896213Y2971850D01*
X897178Y2971800D01*
X897178Y2966821D01*
X894791Y2937459D01*
X892708Y2916631D01*
X891438Y2905963D01*
X889914Y2896006D01*
X887641Y2884728D01*
X914806Y2884728D01*
X915314Y2896920D01*
X916787Y2910179D01*
X919175Y2924149D01*
X922324Y2938373D01*
X926134Y2952496D01*
X930554Y2966110D01*
X935431Y2978861D01*
X938021Y2984804D01*
X966673Y3041142D01*
X994664Y3014827D01*
X998728Y3011271D01*
X1003249Y3007868D01*
X1008075Y3004616D01*
X1013206Y3001568D01*
X1018489Y2998774D01*
X1023924Y2996234D01*
X1034846Y2992120D01*
X1040180Y2990596D01*
X1045362Y2989478D01*
X1050290Y2988767D01*
X1054912Y2988513D01*
X1061161Y2988868D01*
X1069136Y2989783D01*
X1089304Y2993288D01*
X1113536Y2998622D01*
X1139901Y3005378D01*
X1166622Y3013151D01*
X1179779Y3017367D01*
X1206042Y3026562D01*
X1218590Y3031286D01*
X1241602Y3040735D01*
X1251559Y3045155D01*
X1260195Y3049371D01*
X1267307Y3053181D01*
X1272641Y3056534D01*
X1299210Y3075279D01*
X1288084Y3134410D01*
X1282801Y3158490D01*
X1276553Y3182874D01*
X1270152Y3204616D01*
X1267155Y3213608D01*
X1263040Y3224733D01*
X1258214Y3238703D01*
X1253337Y3255568D01*
X1252575Y3259378D01*
X1252321Y3261969D01*
X1252626Y3262731D01*
X1255115Y3264712D01*
X1259941Y3267354D01*
X1266901Y3270554D01*
X1275892Y3274314D01*
X1299210Y3283153D01*
X1328470Y3293364D01*
X1362354Y3304438D01*
X1380642Y3310178D01*
X1426718Y3323844D01*
X1460246Y3333191D01*
X1489100Y3340709D01*
X1511909Y3345992D01*
X1520647Y3347720D01*
X1527302Y3348736D01*
X1531823Y3349040D01*
X1533144Y3348939D01*
X1533906Y3348583D01*
X1534515Y3347212D01*
X1534769Y3344875D01*
X1534058Y3337560D01*
X1531924Y3327196D01*
X1528521Y3314446D01*
X1524000Y3299968D01*
X1512570Y3266998D01*
X1510233Y3259074D01*
X1508353Y3251708D01*
X1506880Y3244900D01*
X1505813Y3238703D01*
X1505254Y3233115D01*
X1505102Y3228136D01*
X1505407Y3223869D01*
X1506169Y3220313D01*
X1507388Y3217468D01*
X1509014Y3215335D01*
X1510436Y3214573D01*
X1512417Y3214166D01*
X1515008Y3214217D01*
X1518158Y3214624D01*
X1526082Y3216605D01*
X1536090Y3220008D01*
X1547977Y3224834D01*
X1561592Y3230930D01*
X1576832Y3238347D01*
X1593443Y3246882D01*
X1611376Y3256584D01*
X1630426Y3267354D01*
X1739747Y3330346D01*
X1733550Y3432251D01*
X1865528Y3497986D01*
X1897024Y3513175D01*
X1923592Y3525520D01*
X1943201Y3534156D01*
X1949856Y3536797D01*
X1954022Y3538220D01*
X1955139Y3538372D01*
X1956765Y3537661D01*
X1958035Y3535476D01*
X1958898Y3532022D01*
X1959305Y3527450D01*
X1959305Y3521913D01*
X1958898Y3515563D01*
X1957984Y3508552D01*
X1956663Y3501034D01*
X1949196Y3463544D01*
X1968093Y3463544D01*
X1970328Y3463747D01*
X1973122Y3464356D01*
X1980234Y3466795D01*
X1989074Y3470656D01*
X1999284Y3475786D01*
X2010613Y3481984D01*
X2022703Y3489045D01*
X2035200Y3496868D01*
X2060346Y3513785D01*
X2084933Y3529787D01*
X2106422Y3543046D01*
X2115210Y3548126D01*
X2122271Y3551936D01*
X2127300Y3554272D01*
X2131974Y3555746D01*
X2138019Y3557168D01*
X2153412Y3559708D01*
X2171344Y3561537D01*
X2189784Y3562502D01*
X2196084Y3562400D01*
X2202840Y3561842D01*
X2209952Y3560927D01*
X2217318Y3559657D01*
X2224836Y3557981D01*
X2232406Y3556000D01*
X2239924Y3553764D01*
X2247341Y3551224D01*
X2254504Y3548481D01*
X2261260Y3545535D01*
X2267610Y3542385D01*
X2273401Y3539134D01*
X2278329Y3535984D01*
X2283002Y3532682D01*
X2291740Y3525520D01*
X2295804Y3521659D01*
X2303272Y3513429D01*
X2306675Y3509060D01*
X2309876Y3504488D01*
X2315616Y3494836D01*
X2318207Y3489706D01*
X2320594Y3484372D01*
X2324709Y3473196D01*
X2329129Y3457549D01*
X2333853Y3439210D01*
X2337409Y3423920D01*
X2339441Y3413506D01*
X2339746Y3410712D01*
X2338984Y3408527D01*
X2336800Y3405682D01*
X2333345Y3402329D01*
X2328773Y3398621D01*
X2323236Y3394659D01*
X2316835Y3390493D01*
X2294788Y3377996D01*
X2287727Y3373272D01*
X2281377Y3368294D01*
X2275840Y3363163D01*
X2271217Y3358083D01*
X2267762Y3353155D01*
X2265578Y3348532D01*
X2264816Y3344468D01*
X2264816Y3326028D01*
X2205278Y3325926D01*
X2196287Y3325368D01*
X2186178Y3324199D01*
X2175052Y3322574D01*
X2163165Y3320440D01*
X2137562Y3314903D01*
X2110841Y3307943D01*
X2097481Y3304032D01*
X2084374Y3299917D01*
X2071674Y3295548D01*
X1977288Y3260648D01*
X1977542Y3179876D01*
X1978152Y3161080D01*
X1979422Y3139033D01*
X1981301Y3114497D01*
X1983689Y3088233D01*
X1986534Y3061106D01*
X1989785Y3033928D01*
X1994204Y3001010D01*
X2002231Y2945638D01*
X2006650Y2910230D01*
X2009648Y2883509D01*
X2011984Y2859328D01*
X2013559Y2838805D01*
X2014270Y2822905D01*
X2014118Y2812542D01*
X2013559Y2805176D01*
X2012645Y2797860D01*
X2011425Y2790545D01*
X2009902Y2783382D01*
X2008124Y2776423D01*
X2006041Y2769768D01*
X2003755Y2763469D01*
X2001266Y2757576D01*
X1998573Y2752191D01*
X1995678Y2747365D01*
X1992630Y2743200D01*
X1985772Y2735427D01*
X1977288Y2726994D01*
X1967738Y2718358D01*
X1957730Y2709976D01*
X1947672Y2702356D01*
X1938223Y2695905D01*
X1928164Y2690012D01*
X1916531Y2683967D01*
X1904034Y2678125D01*
X1891334Y2672689D01*
X1879092Y2668016D01*
X1868017Y2664460D01*
X1860143Y2662478D01*
X1852117Y2661107D01*
X1844141Y2660294D01*
X1836521Y2659989D01*
X1829409Y2660243D01*
X1823008Y2661107D01*
X1817573Y2662478D01*
X1813356Y2664409D01*
X1796034Y2675077D01*
X1783537Y3156966D01*
X1764792Y3160369D01*
X1762912Y3160420D01*
X1757222Y3159455D01*
X1749145Y3156966D01*
X1738985Y3153206D01*
X1726946Y3148177D01*
X1713382Y3142081D01*
X1698498Y3135020D01*
X1682546Y3127044D01*
X1665782Y3118358D01*
X1648561Y3109061D01*
X1533550Y3044698D01*
X1519174Y2817266D01*
X1488135Y2767330D01*
X1480820Y2757017D01*
X1472133Y2745994D01*
X1462481Y2734716D01*
X1452168Y2723388D01*
X1441450Y2712415D01*
X1430680Y2702153D01*
X1420164Y2692908D01*
X1410970Y2685542D01*
X1401622Y2678785D01*
X1391107Y2671622D01*
X1379728Y2664256D01*
X1367688Y2656840D01*
X1342491Y2642362D01*
X1329893Y2635605D01*
X1317599Y2629357D01*
X1305814Y2623718D01*
X1295450Y2619146D01*
X1273403Y2610408D01*
X1247597Y2601264D01*
X1219555Y2592171D01*
X1183792Y2581656D01*
X1169822Y2577846D01*
X1143609Y2571394D01*
X1114094Y2564993D01*
X1086154Y2559405D01*
X1061770Y2555036D01*
X1042771Y2552141D01*
X1031087Y2551125D01*
X1028293Y2551430D01*
X1026668Y2552242D01*
X1026058Y2553614D01*
X1026515Y2555443D01*
X1027988Y2557729D01*
X1030478Y2560421D01*
X1033932Y2563571D01*
X1038301Y2567025D01*
X1049832Y2575102D01*
X1077468Y2592120D01*
X1096924Y2605024D01*
X1129385Y2627985D01*
X1156817Y2648661D01*
X1177340Y2664968D01*
X1186738Y2672740D01*
X1195933Y2680716D01*
X1205230Y2689301D01*
X1214628Y2698343D01*
X1233119Y2717393D01*
X1241958Y2727147D01*
X1250391Y2736850D01*
X1258316Y2746349D01*
X1265580Y2755595D01*
X1272133Y2764383D01*
X1277772Y2772613D01*
X1282395Y2780182D01*
X1288592Y2791460D01*
X1294688Y2803601D01*
X1300581Y2816199D01*
X1306068Y2828899D01*
X1310944Y2841294D01*
X1315161Y2853029D01*
X1318514Y2863697D01*
X1320800Y2872892D01*
X1329283Y2913532D01*
X1312672Y2913380D01*
X1309928Y2913075D01*
X1306271Y2912160D01*
X1296568Y2908858D01*
X1284427Y2903728D01*
X1270406Y2897124D01*
X1255318Y2889351D01*
X1231493Y2876042D01*
X1211783Y2865729D01*
X1177036Y2848965D01*
X1146149Y2835148D01*
X1122019Y2824988D01*
X1098651Y2815894D01*
X1072083Y2806750D01*
X1046175Y2798978D01*
X1034084Y2795727D01*
X1022807Y2793034D01*
X1012647Y2790901D01*
X1003858Y2789377D01*
X996594Y2788615D01*
X993648Y2788513D01*
X986536Y2788970D01*
X978966Y2790139D01*
X971245Y2792069D01*
X963523Y2794609D01*
X956106Y2797657D01*
X949147Y2801162D01*
X942949Y2805074D01*
X937666Y2809189D01*
X933958Y2812948D01*
X930605Y2817114D01*
X927557Y2821686D01*
X924814Y2826766D01*
X922477Y2832303D01*
X920394Y2838246D01*
X918667Y2844749D01*
X917295Y2851708D01*
X916178Y2859176D01*
X915416Y2867152D01*
X914958Y2875686D01*
X914806Y2884728D01*
X887641Y2884728D01*
X886307Y2879140D01*
X884377Y2872638D01*
X882446Y2867710D01*
X880516Y2864612D01*
X878687Y2863545D01*
X876553Y2864256D01*
X873658Y2866440D01*
X870203Y2869844D01*
X866292Y2874365D01*
X857503Y2886100D01*
X852932Y2893009D01*
X826566Y2937357D01*
X506655Y2937357D01*
X510895Y2932328D01*
X515213Y2926588D01*
X525932Y2911094D01*
X538581Y2893822D01*
X554634Y2872740D01*
X572820Y2849422D01*
X591870Y2825597D01*
X653694Y2749651D01*
X607923Y2772816D01*
X597916Y2778709D01*
X586841Y2785872D01*
X574954Y2794101D01*
X562762Y2803093D01*
X550519Y2812592D01*
X538632Y2822346D01*
X527507Y2832049D01*
X515874Y2842768D01*
X504291Y2852978D01*
X494842Y2860649D01*
X487984Y2865526D01*
X485597Y2866796D01*
X484022Y2867304D01*
X483209Y2866948D01*
X483311Y2865780D01*
X484276Y2863697D01*
X488340Y2857703D01*
X494334Y2850388D01*
X501802Y2842158D01*
X510387Y2833420D01*
X519582Y2824734D01*
X528980Y2816453D01*
X543661Y2804769D01*
X564083Y2789529D01*
X588314Y2772054D01*
X621131Y2749194D01*
X646125Y2732227D01*
X657148Y2724353D01*
X668324Y2715920D01*
X679551Y2706979D01*
X690676Y2697683D01*
X701548Y2688183D01*
X712063Y2678582D01*
X722020Y2669032D01*
X731316Y2659634D01*
X739800Y2650540D01*
X747369Y2641904D01*
X753821Y2633776D01*
X761898Y2622702D01*
X767435Y2615692D01*
X773023Y2609037D01*
X778611Y2602788D01*
X784199Y2597048D01*
X789635Y2591866D01*
X794867Y2587294D01*
X799846Y2583434D01*
X804519Y2580284D01*
X808736Y2577947D01*
X812495Y2576525D01*
X815695Y2576017D01*
X820318Y2576779D01*
X825195Y2579014D01*
X830275Y2582570D01*
X835304Y2587294D01*
X840232Y2593035D01*
X844905Y2599639D01*
X849172Y2606954D01*
X855014Y2619756D01*
X857453Y2624429D01*
X860145Y2629001D01*
X863092Y2633421D01*
X866292Y2637637D01*
X869746Y2641752D01*
X873455Y2645714D01*
X877468Y2649524D01*
X886358Y2656738D01*
X891184Y2660142D01*
X896366Y2663444D01*
X901801Y2666593D01*
X913637Y2672588D01*
X925474Y2677668D01*
X937666Y2682240D01*
X951026Y2686812D01*
X965149Y2691180D01*
X979627Y2695346D01*
X994003Y2699054D01*
X1007871Y2702306D01*
X1020724Y2704846D01*
X1030681Y2706573D01*
X1039723Y2708554D01*
X1049934Y2711246D01*
X1061212Y2714548D01*
X1086154Y2722930D01*
X1099515Y2727807D01*
X1126896Y2738678D01*
X1140663Y2744520D01*
X1160780Y2753614D01*
X1192174Y2768701D01*
X1209700Y2776728D01*
X1225905Y2783738D01*
X1240332Y2789529D01*
X1252575Y2794000D01*
X1262278Y2796946D01*
X1266037Y2797810D01*
X1268984Y2798216D01*
X1271117Y2798216D01*
X1272286Y2797708D01*
X1272794Y2796184D01*
X1272336Y2793695D01*
X1270914Y2790342D01*
X1268679Y2786126D01*
X1265631Y2781198D01*
X1257350Y2769463D01*
X1246530Y2755747D01*
X1233576Y2740660D01*
X1223619Y2729788D01*
X1210208Y2716428D01*
X1194104Y2701594D01*
X1175816Y2685745D01*
X1156004Y2669387D01*
X1130046Y2648966D01*
X1108964Y2633218D01*
X1088390Y2618638D01*
X1034389Y2582316D01*
X991514Y2553106D01*
X978662Y2543860D01*
X978255Y2542438D01*
X978966Y2540203D01*
X980744Y2537307D01*
X983487Y2533853D01*
X987044Y2529890D01*
X991362Y2525572D01*
X996340Y2521051D01*
X1030071Y2493568D01*
X942949Y2436368D01*
X927353Y2426462D01*
X912774Y2417572D01*
X899617Y2409850D01*
X888136Y2403500D01*
X878789Y2398776D01*
X871829Y2395778D01*
X869340Y2394966D01*
X867613Y2394712D01*
X866698Y2394966D01*
X866394Y2395931D01*
X866648Y2397658D01*
X868578Y2403246D01*
X872286Y2411374D01*
X877620Y2421788D01*
X884377Y2434082D01*
X892352Y2447899D01*
X901395Y2462885D01*
X940358Y2524810D01*
X968400Y2570124D01*
X989431Y2604820D01*
X995019Y2614472D01*
X999947Y2623718D01*
X1004214Y2632303D01*
X1007719Y2640025D01*
X1010310Y2646680D01*
X1011986Y2652064D01*
X1012545Y2655874D01*
X1011986Y2658008D01*
X1010361Y2658262D01*
X1007922Y2656738D01*
X1004773Y2653639D01*
X1001064Y2649118D01*
X996848Y2643327D01*
X992327Y2636418D01*
X987602Y2628544D01*
X977798Y2611069D01*
X972819Y2602839D01*
X967892Y2595372D01*
X963218Y2588920D01*
X958900Y2583535D01*
X955090Y2579471D01*
X951890Y2576931D01*
X945692Y2574798D01*
X942644Y2571343D01*
X940562Y2566314D01*
X939596Y2558592D01*
X938123Y2553716D01*
X935177Y2546908D01*
X931011Y2538272D01*
X919327Y2516581D01*
X904036Y2490470D01*
X886155Y2461666D01*
X826208Y2369312D01*
X867359Y2369312D01*
X867410Y2369972D01*
X868222Y2371090D01*
X872236Y2374747D01*
X879043Y2380081D01*
X899769Y2394813D01*
X927912Y2413508D01*
X1024331Y2474518D01*
X1096670Y2467102D01*
X1107033Y2466390D01*
X1117447Y2465984D01*
X1128014Y2465933D01*
X1138783Y2466289D01*
X1149756Y2466949D01*
X1161084Y2468016D01*
X1172768Y2469438D01*
X1184859Y2471216D01*
X1197406Y2473401D01*
X1210462Y2475992D01*
X1224127Y2478989D01*
X1253337Y2486202D01*
X1267206Y2489962D01*
X1279804Y2493670D01*
X1306017Y2502255D01*
X1319428Y2507030D01*
X1346098Y2517241D01*
X1371752Y2528062D01*
X1383944Y2533497D01*
X1406194Y2544368D01*
X1416050Y2549601D01*
X1424940Y2554681D01*
X1494332Y2598420D01*
X1526438Y2585110D01*
X1535684Y2580741D01*
X1545488Y2575255D01*
X1555242Y2568956D01*
X1564436Y2562250D01*
X1572666Y2555443D01*
X1576222Y2552141D01*
X1583740Y2544318D01*
X1588465Y2540000D01*
X1593291Y2536139D01*
X1598066Y2532735D01*
X1602689Y2529941D01*
X1607007Y2527808D01*
X1610817Y2526487D01*
X1614068Y2526030D01*
X1620215Y2524302D01*
X1626514Y2519578D01*
X1632254Y2512669D01*
X1636725Y2504135D01*
X1645361Y2482291D01*
X1654454Y2523845D01*
X1656130Y2533243D01*
X1659178Y2555646D01*
X1661617Y2580284D01*
X1662531Y2592527D01*
X1663141Y2604262D01*
X1663395Y2617216D01*
X1662785Y2632710D01*
X1661210Y2648458D01*
X1658874Y2663698D01*
X1655876Y2677515D01*
X1654149Y2683662D01*
X1652320Y2689199D01*
X1650390Y2693924D01*
X1647037Y2700426D01*
X1642922Y2706827D01*
X1638300Y2712872D01*
X1633220Y2718511D01*
X1627936Y2723489D01*
X1622552Y2727706D01*
X1617218Y2730957D01*
X1612138Y2733141D01*
X1588312Y2740710D01*
X1598371Y2783738D01*
X1599844Y2792069D01*
X1601266Y2801975D01*
X1603857Y2825546D01*
X1605889Y2852369D01*
X1607261Y2880410D01*
X1607616Y2894279D01*
X1608531Y2982264D01*
X1690878Y3025902D01*
X1705813Y3033420D01*
X1719884Y3040024D01*
X1732838Y3045714D01*
X1744319Y3050286D01*
X1753920Y3053588D01*
X1761337Y3055569D01*
X1764131Y3055975D01*
X1766214Y3055975D01*
X1767586Y3055569D01*
X1768093Y3055010D01*
X1769059Y3052368D01*
X1770024Y3047796D01*
X1770938Y3041396D01*
X1772615Y3023666D01*
X1774088Y2999892D01*
X1775358Y2970936D01*
X1776323Y2937713D01*
X1776984Y2900934D01*
X1777288Y2861564D01*
X1777288Y2653233D01*
X1849120Y2592832D01*
X1708912Y2436723D01*
X1682902Y2408275D01*
X1659483Y2383129D01*
X1639366Y2361946D01*
X1623364Y2345639D01*
X1612138Y2334869D01*
X1608582Y2331872D01*
X1606550Y2330551D01*
X1606092Y2330551D01*
X1605686Y2332482D01*
X1605991Y2336393D01*
X1607058Y2341981D01*
X1611071Y2357577D01*
X1617218Y2377338D01*
X1623466Y2395575D01*
X1628190Y2410510D01*
X1632305Y2425039D01*
X1635607Y2438400D01*
X1637893Y2449880D01*
X1639011Y2458720D01*
X1639112Y2461971D01*
X1638757Y2464003D01*
X1638046Y2464562D01*
X1636877Y2463698D01*
X1635353Y2461514D01*
X1631340Y2453386D01*
X1626209Y2440736D01*
X1620215Y2424125D01*
X1613662Y2404160D01*
X1588871Y2326030D01*
X1523593Y2326182D01*
X1495501Y2327198D01*
X1403451Y2331821D01*
X1278331Y2339136D01*
X1191107Y2344623D01*
X1037793Y2355037D01*
X973074Y2359761D01*
X921258Y2363825D01*
X885342Y2366975D01*
X874268Y2368143D01*
X868324Y2369007D01*
X867359Y2369312D01*
X826208Y2369312D01*
X822909Y2364232D01*
X709777Y2371699D01*
X622300Y2376881D01*
X294030Y2394915D01*
X174802Y2402179D01*
X129133Y2405176D01*
X93624Y2407767D01*
X-10210Y2416454D01*
X-10210Y2364638D01*
X32105Y2358237D01*
X42113Y2357120D01*
X75996Y2354275D01*
X125476Y2350770D01*
X186791Y2346909D01*
X256336Y2342845D01*
X408940Y2334920D01*
X568502Y2326995D01*
X743102Y2318816D01*
X823569Y2314854D01*
X1084681Y2301036D01*
X1207008Y2294280D01*
X1356817Y2285593D01*
X1477213Y2278176D01*
X1548536Y2273147D01*
X1560677Y2271776D01*
X1561033Y2269540D01*
X1559864Y2265324D01*
X1557426Y2259838D01*
X1553921Y2253640D01*
X1544421Y2238248D01*
X1024331Y2262733D01*
X821588Y2272741D01*
X606094Y2283968D01*
X429107Y2294077D01*
X294690Y2301392D01*
X185826Y2307031D01*
X-12344Y2316632D01*
X-3962Y2257298D01*
X320903Y2241702D01*
X894740Y2215083D01*
X1597914Y2182977D01*
X2497582Y2140661D01*
X2924759Y2121103D01*
X3060039Y2115515D01*
X3226409Y2109317D01*
X3354120Y2105101D01*
X3454349Y2102408D01*
X3521354Y2101189D01*
X3552850Y2101088D01*
X3590594Y2101392D01*
X3624935Y2102154D01*
X3655263Y2103272D01*
X3681069Y2104745D01*
X3701694Y2106523D01*
X3709924Y2107539D01*
X3716629Y2108606D01*
X3721811Y2109724D01*
X3725265Y2110892D01*
X3727094Y2112111D01*
X3727297Y2112772D01*
X3726230Y2115261D01*
X3723132Y2117801D01*
X3718204Y2120392D01*
X3711701Y2122881D01*
X3703828Y2125268D01*
X3694785Y2127402D01*
X3684828Y2129282D01*
X3668369Y2131415D01*
X3642868Y2133396D01*
X3604463Y2135886D01*
X3497579Y2141829D01*
X3416655Y2145893D01*
X3194151Y2156002D01*
X2930601Y2168398D01*
X2459431Y2191562D01*
X1951583Y2216150D01*
X1810613Y2223566D01*
X1708099Y2229612D01*
X1656435Y2233168D01*
X1562252Y2241296D01*
X1596034Y2273198D01*
X1884019Y2257958D01*
X2019401Y2251049D01*
X2183688Y2243023D01*
X2249525Y2239467D01*
X2302713Y2236216D01*
X2345588Y2233320D01*
X2376779Y2230780D01*
X2419451Y2227732D01*
X2472690Y2224379D01*
X2529941Y2221179D01*
X2702306Y2212340D01*
X3101695Y2190343D01*
X3264611Y2181910D01*
X3386531Y2176068D01*
X3764787Y2176018D01*
X3765804Y2180894D01*
X3768496Y2184857D01*
X3772458Y2187549D01*
X3777284Y2188514D01*
X3782161Y2187549D01*
X3786124Y2184857D01*
X3788816Y2180894D01*
X3789781Y2176018D01*
X3788816Y2171192D01*
X3786124Y2167178D01*
X3782161Y2164537D01*
X3777284Y2163521D01*
X3772458Y2164537D01*
X3768496Y2167178D01*
X3765804Y2171192D01*
X3764787Y2176018D01*
X3387589Y2176018D01*
X3486404Y2171700D01*
X3633012Y2166061D01*
X3697224Y2162759D01*
X3723284Y2161032D01*
X3744264Y2159355D01*
X3759200Y2157780D01*
X3764127Y2157018D01*
X3767277Y2156307D01*
X3771696Y2154478D01*
X3776167Y2151786D01*
X3780536Y2148332D01*
X3784650Y2144268D01*
X3788410Y2139696D01*
X3791762Y2134819D01*
X3794506Y2129688D01*
X3796537Y2124456D01*
X3804564Y2099208D01*
X3830574Y2121966D01*
X3840022Y2129688D01*
X3846423Y2133752D01*
X3849268Y2133955D01*
X3845661Y2123643D01*
X3845661Y2117293D01*
X3847846Y2111603D01*
X3852113Y2107387D01*
X3857040Y2105914D01*
X3861054Y2107590D01*
X3863797Y2112111D01*
X3864813Y2119020D01*
X3866286Y2126589D01*
X3870299Y2132787D01*
X3876243Y2137003D01*
X3883558Y2138527D01*
X3890822Y2139442D01*
X3896766Y2141982D01*
X3900830Y2145741D01*
X3902303Y2150313D01*
X3901389Y2155393D01*
X3898950Y2160676D01*
X3895344Y2165451D01*
X3890924Y2169109D01*
X3887927Y2170531D01*
X3883710Y2172004D01*
X3872433Y2174798D01*
X3858717Y2177135D01*
X3836771Y2179320D01*
X3829761Y2180285D01*
X3823157Y2181453D01*
X3817162Y2182825D01*
X3811879Y2184298D01*
X3807510Y2185873D01*
X3804259Y2187549D01*
X3802075Y2189378D01*
X3798925Y2190191D01*
X3792524Y2191207D01*
X3770274Y2193696D01*
X3736543Y2196744D01*
X3692499Y2200300D01*
X3577945Y2208479D01*
X3435959Y2217572D01*
X3289909Y2226157D01*
X3020517Y2241245D01*
X2785821Y2253843D01*
X2712821Y2257552D01*
X2499918Y2267356D01*
X2514193Y2407259D01*
X2481529Y2307285D01*
X2473706Y2332278D01*
X2472131Y2336698D01*
X2470810Y2339136D01*
X2469845Y2339644D01*
X2469134Y2338273D01*
X2468778Y2335022D01*
X2468727Y2330043D01*
X2469642Y2314905D01*
X2473502Y2272588D01*
X2288946Y2283764D01*
X2045817Y2297023D01*
X1936699Y2302713D01*
X1847748Y2307691D01*
X1808937Y2310180D01*
X1742998Y2315108D01*
X1715973Y2317546D01*
X1692910Y2319985D01*
X1673961Y2322322D01*
X1659128Y2324658D01*
X1650746Y2326386D01*
X1646478Y2327554D01*
X1643278Y2328672D01*
X1641093Y2329789D01*
X1640027Y2330856D01*
X1639925Y2331415D01*
X1640179Y2332786D01*
X1642211Y2337054D01*
X1646123Y2343150D01*
X1651711Y2350973D01*
X1658823Y2360168D01*
X1667306Y2370683D01*
X1687728Y2394610D01*
X1711655Y2421077D01*
X1796034Y2511094D01*
X2115820Y2483561D01*
X2187194Y2478125D01*
X2245360Y2474264D01*
X2268169Y2472994D01*
X2292959Y2472080D01*
X2302408Y2472182D01*
X2305405Y2472588D01*
X2306370Y2473604D01*
X2307336Y2475585D01*
X2309063Y2482291D01*
X2310638Y2492197D01*
X2312060Y2504998D01*
X2313178Y2520188D01*
X2314041Y2537358D01*
X2314600Y2556154D01*
X2314854Y2586075D01*
X2315311Y2605532D01*
X2316175Y2623718D01*
X2317394Y2640177D01*
X2318918Y2654503D01*
X2320696Y2666288D01*
X2322728Y2675026D01*
X2323795Y2678125D01*
X2324912Y2680309D01*
X2326081Y2681528D01*
X2328875Y2682087D01*
X2332532Y2681020D01*
X2336850Y2678430D01*
X2341676Y2674518D01*
X2346909Y2669336D01*
X2352395Y2663088D01*
X2357932Y2655925D01*
X2368600Y2640025D01*
X2373477Y2633218D01*
X2377948Y2627579D01*
X2381808Y2623261D01*
X2385009Y2620314D01*
X2387447Y2618892D01*
X2389022Y2619095D01*
X2389581Y2621026D01*
X2389276Y2623362D01*
X2388362Y2626461D01*
X2384704Y2634843D01*
X2379065Y2645511D01*
X2371699Y2657805D01*
X2363063Y2671216D01*
X2353411Y2684983D01*
X2345283Y2695651D01*
X2336190Y2706725D01*
X2326386Y2717850D01*
X2316175Y2728671D01*
X2305964Y2738983D01*
X2295906Y2748330D01*
X2286457Y2756509D01*
X2277821Y2763164D01*
X2268982Y2768904D01*
X2258872Y2774492D01*
X2247849Y2779826D01*
X2236266Y2784703D01*
X2224430Y2789072D01*
X2212797Y2792730D01*
X2201621Y2795574D01*
X2196338Y2796641D01*
X2143963Y2803753D01*
X2101494Y3019653D01*
X2094077Y3060344D01*
X2088388Y3094583D01*
X2084425Y3122930D01*
X2083054Y3134969D01*
X2082088Y3145637D01*
X2081530Y3155086D01*
X2081377Y3163265D01*
X2081631Y3170275D01*
X2082241Y3176168D01*
X2083257Y3180943D01*
X2084679Y3184702D01*
X2085492Y3186226D01*
X2088692Y3190494D01*
X2092909Y3194812D01*
X2097836Y3199079D01*
X2103475Y3203143D01*
X2109470Y3206902D01*
X2115769Y3210255D01*
X2122170Y3212998D01*
X2128469Y3215132D01*
X2135987Y3216859D01*
X2145842Y3218484D01*
X2157577Y3220008D01*
X2170836Y3221431D01*
X2185162Y3222650D01*
X2215388Y3224377D01*
X2302306Y3226003D01*
X2302357Y3143758D01*
X2302967Y3127400D01*
X2304084Y3112770D01*
X2305761Y3099866D01*
X2306777Y3094075D01*
X2309317Y3083864D01*
X2310739Y3079445D01*
X2312314Y3075482D01*
X2314041Y3072028D01*
X2315870Y3069031D01*
X2317851Y3066491D01*
X2319934Y3064459D01*
X2322728Y3062427D01*
X2326233Y3060293D01*
X2330399Y3058160D01*
X2340254Y3053994D01*
X2345791Y3051911D01*
X2357831Y3048152D01*
X2370480Y3044901D01*
X2383231Y3042412D01*
X2428900Y3034995D01*
X2478227Y3071164D01*
X2494330Y3083763D01*
X2513380Y3099054D01*
X2534208Y3116122D01*
X2561183Y3138627D01*
X2582113Y3156458D01*
X2600350Y3172714D01*
X2619959Y3191052D01*
X2645105Y3215741D01*
X2664764Y3235909D01*
X2683256Y3255619D01*
X2699715Y3274060D01*
X2706928Y3282543D01*
X2764790Y3353308D01*
X2764840Y3430930D01*
X2765348Y3443833D01*
X2766263Y3457549D01*
X2767634Y3471824D01*
X2769311Y3486302D01*
X2771343Y3500780D01*
X2773680Y3514953D01*
X2776220Y3528568D01*
X2779014Y3541268D01*
X2781960Y3552850D01*
X2786126Y3566617D01*
X2791714Y3583533D01*
X2797454Y3599637D01*
X2803042Y3614216D01*
X2808173Y3626358D01*
X2812542Y3635400D01*
X2814320Y3638499D01*
X2826461Y3657295D01*
X2917545Y3563620D01*
X2910128Y3534003D01*
X2908452Y3529076D01*
X2905556Y3522573D01*
X2901543Y3514547D01*
X2890520Y3494887D01*
X2876143Y3471316D01*
X2859176Y3445154D01*
X2840431Y3417620D01*
X2824429Y3395218D01*
X2810967Y3377082D01*
X2796235Y3357879D01*
X2780487Y3337915D01*
X2751683Y3302355D01*
X2735021Y3282442D01*
X2718562Y3263188D01*
X2702712Y3245104D01*
X2687726Y3228543D01*
X2673502Y3213354D01*
X2657348Y3196691D01*
X2626106Y3165449D01*
X2602585Y3142640D01*
X2579166Y3120390D01*
X2543860Y3087928D01*
X2528163Y3074111D01*
X2511907Y3060293D01*
X2491994Y3043986D01*
X2470658Y3026968D01*
X2448763Y3009950D01*
X2421940Y2989681D01*
X2401976Y2975000D01*
X2371445Y2953715D01*
X2355596Y2941929D01*
X2342498Y2931210D01*
X2394000Y2931210D01*
X2394559Y2932988D01*
X2395728Y2935173D01*
X2397455Y2937713D01*
X2402636Y2943860D01*
X2410002Y2951327D01*
X2419400Y2959963D01*
X2430729Y2969717D01*
X2443937Y2980436D01*
X2458821Y2992069D01*
X2483662Y3010662D01*
X2501544Y3024530D01*
X2520797Y3040075D01*
X2546146Y3061258D01*
X2566924Y3079191D01*
X2598064Y3106928D01*
X2618232Y3125419D01*
X2637383Y3143504D01*
X2655214Y3160877D01*
X2671318Y3177235D01*
X2687777Y3194659D01*
X2705201Y3213608D01*
X2723184Y3233826D01*
X2745943Y3260090D01*
X2768447Y3286810D01*
X2785770Y3307892D01*
X2802077Y3328365D01*
X2817063Y3347720D01*
X2830423Y3365601D01*
X2846273Y3387851D01*
X2867609Y3419043D01*
X2884017Y3443833D01*
X2899156Y3467557D01*
X2912465Y3489198D01*
X2923336Y3507841D01*
X2927654Y3515715D01*
X2956915Y3575304D01*
X2878632Y3657447D01*
X2864002Y3673601D01*
X2848457Y3691686D01*
X2832404Y3711143D01*
X2816199Y3731564D01*
X2796387Y3757625D01*
X2781300Y3778351D01*
X2767279Y3798366D01*
X2754782Y3817213D01*
X2743098Y3836060D01*
X2730246Y3858056D01*
X2716784Y3881983D01*
X2699867Y3913378D01*
X2683459Y3945128D01*
X2671318Y3969715D01*
X2660396Y3992778D01*
X2651201Y4013504D01*
X2642514Y4034536D01*
X2633319Y4058310D01*
X2623769Y4084015D01*
X2614269Y4110939D01*
X2604973Y4138117D01*
X2596286Y4164837D01*
X2588412Y4190187D01*
X2581706Y4213453D01*
X2572461Y4247845D01*
X2564384Y4279544D01*
X2557983Y4306519D01*
X2553817Y4326636D01*
X2552700Y4333443D01*
X2552293Y4337761D01*
X2552496Y4338726D01*
X2553055Y4339082D01*
X2554020Y4338878D01*
X2555341Y4338167D01*
X2558948Y4335018D01*
X2563825Y4329887D01*
X2569921Y4322876D01*
X2585110Y4303674D01*
X2594102Y4291787D01*
X2614168Y4263948D01*
X2648864Y4213809D01*
X2662631Y4194810D01*
X2681478Y4169714D01*
X2701696Y4143756D01*
X2727198Y4112107D01*
X2748940Y4086047D01*
X2770581Y4060850D01*
X2787599Y4041648D01*
X2804007Y4023664D01*
X2819654Y4007104D01*
X2838246Y3988358D01*
X2866796Y3960876D01*
X2889859Y3939794D01*
X2912313Y3920134D01*
X2933547Y3902456D01*
X2943453Y3894480D01*
X2961640Y3880764D01*
X2969717Y3875125D01*
X2976981Y3870350D01*
X2983331Y3866591D01*
X2993390Y3861511D01*
X3007563Y3854754D01*
X3020771Y3848862D01*
X3032455Y3844086D01*
X3042005Y3840632D01*
X3048711Y3838752D01*
X3050794Y3838549D01*
X3052114Y3838956D01*
X3053638Y3840276D01*
X3055264Y3842461D01*
X3057042Y3845356D01*
X3060903Y3853383D01*
X3065068Y3864051D01*
X3069488Y3876903D01*
X3073908Y3891635D01*
X3078327Y3907942D01*
X3082544Y3925366D01*
X3086404Y3944416D01*
X3089910Y3965956D01*
X3093008Y3989679D01*
X3095701Y4015232D01*
X3097987Y4042359D01*
X3099765Y4070705D01*
X3101340Y4107332D01*
X3101848Y4129684D01*
X3102102Y4152239D01*
X3101797Y4187291D01*
X3100984Y4215536D01*
X3099358Y4250740D01*
X3097580Y4278071D01*
X3095447Y4304030D01*
X3093059Y4327906D01*
X3090367Y4349140D01*
X3087522Y4367072D01*
X3085998Y4374642D01*
X3083814Y4383938D01*
X3080512Y4396282D01*
X3072485Y4422038D01*
X3067964Y4434992D01*
X3058363Y4459732D01*
X3053486Y4471060D01*
X3048660Y4481372D01*
X3043936Y4490364D01*
X3036316Y4503674D01*
X3026714Y4521047D01*
X3019399Y4535424D01*
X3016910Y4540859D01*
X3015335Y4544923D01*
X3014827Y4547362D01*
X3015335Y4548073D01*
X3016859Y4548682D01*
X3022752Y4549597D01*
X3032099Y4550105D01*
X3044444Y4550257D01*
X3059379Y4550003D01*
X3076498Y4549394D01*
X3095396Y4548378D01*
X3115614Y4546955D01*
X3144418Y4544212D01*
X3158185Y4542485D01*
X3171647Y4540453D01*
X3184702Y4538218D01*
X3203752Y4534408D01*
X3216046Y4531512D01*
X3228086Y4528362D01*
X3239922Y4524908D01*
X3257194Y4519269D01*
X3274009Y4512970D01*
X3285032Y4508347D01*
X3298037Y4502505D01*
X3312972Y4495393D01*
X3327247Y4488281D01*
X3340455Y4481271D01*
X3352241Y4474616D01*
X3362299Y4468571D01*
X3373374Y4460900D01*
X3377488Y4457039D01*
X3379520Y4453991D01*
X3381044Y4450384D01*
X3382010Y4446270D01*
X3382416Y4441494D01*
X3382314Y4436059D01*
X3381603Y4430014D01*
X3380333Y4423156D01*
X3378454Y4415586D01*
X3376015Y4407255D01*
X3373018Y4398060D01*
X3369411Y4387951D01*
X3363722Y4373118D01*
X3360826Y4364736D01*
X3357930Y4355490D01*
X3355086Y4345381D01*
X3349650Y4322826D01*
X3344468Y4297426D01*
X3339693Y4269587D01*
X3335274Y4239615D01*
X3331362Y4207865D01*
X3328009Y4174693D01*
X3325672Y4149090D01*
X3322980Y4124451D01*
X3319779Y4098239D01*
X3315055Y4063847D01*
X3309772Y4028490D01*
X3302863Y3986072D01*
X3292957Y3931970D01*
X3287928Y3907078D01*
X3282899Y3884117D01*
X3248609Y3737762D01*
X3274567Y3718001D01*
X3280562Y3714445D01*
X3288436Y3710432D01*
X3297936Y3706114D01*
X3308858Y3701491D01*
X3320948Y3696665D01*
X3347720Y3686911D01*
X3361893Y3682136D01*
X3383534Y3675379D01*
X3493820Y3642817D01*
X3502202Y3639058D01*
X3508146Y3633571D01*
X3511143Y3627221D01*
X3510584Y3620617D01*
X3509721Y3617315D01*
X3508654Y3611879D01*
X3506317Y3595319D01*
X3503726Y3572256D01*
X3500932Y3544062D01*
X3498189Y3512159D01*
X3493770Y3454908D01*
X3491839Y3433927D01*
X3489756Y3415182D01*
X3487572Y3398621D01*
X3485235Y3384448D01*
X3482848Y3372662D01*
X3480358Y3363366D01*
X3477818Y3356660D01*
X3476498Y3354273D01*
X3475228Y3352546D01*
X3473907Y3351529D01*
X3472586Y3351225D01*
X3467811Y3351834D01*
X3448659Y3356356D01*
X3419500Y3364382D01*
X3383940Y3374898D01*
X3353511Y3384397D01*
X3329686Y3392424D01*
X3305098Y3401161D01*
X3274669Y3412591D01*
X3251758Y3421684D01*
X3231134Y3430371D01*
X3213760Y3438194D01*
X3148990Y3469792D01*
X3133902Y3444240D01*
X3126536Y3433318D01*
X3115157Y3417417D01*
X3083610Y3375202D01*
X3065119Y3351072D01*
X3047695Y3328771D01*
X3034487Y3312820D01*
X3019399Y3295700D01*
X3002838Y3277717D01*
X2980537Y3254603D01*
X2961894Y3236061D01*
X2942945Y3217824D01*
X2923997Y3200298D01*
X2905455Y3183788D01*
X2887675Y3168650D01*
X2870504Y3154934D01*
X2851708Y3140710D01*
X2831236Y3125774D01*
X2809494Y3110534D01*
X2786938Y3095244D01*
X2758287Y3076498D01*
X2735529Y3062173D01*
X2713431Y3048711D01*
X2692400Y3036417D01*
X2672842Y3025648D01*
X2650794Y3014218D01*
X2620010Y2999232D01*
X2594711Y2987548D01*
X2569667Y2976473D01*
X2545588Y2966364D01*
X2523185Y2957474D01*
X2503322Y2950260D01*
X2494534Y2947314D01*
X2486609Y2944926D01*
X2471775Y2940862D01*
X2457196Y2937205D01*
X2443276Y2934055D01*
X2430322Y2931464D01*
X2418791Y2929534D01*
X2408986Y2928315D01*
X2401265Y2927858D01*
X2396032Y2928264D01*
X2394712Y2928823D01*
X2394051Y2929788D01*
X2394000Y2931210D01*
X2342438Y2931160D01*
X2337104Y2926283D01*
X2332583Y2921812D01*
X2329027Y2917901D01*
X2326538Y2914497D01*
X2325065Y2911703D01*
X2324760Y2909620D01*
X2325674Y2908249D01*
X2329637Y2906471D01*
X2336647Y2904032D01*
X2358237Y2897682D01*
X2387346Y2889961D01*
X2420772Y2881884D01*
X2504643Y2862427D01*
X2578862Y2884017D01*
X2598013Y2890316D01*
X2620010Y2898343D01*
X2643784Y2907639D01*
X2674670Y2920441D01*
X2699004Y2931210D01*
X2722067Y2941980D01*
X2743555Y2952699D01*
X2766872Y2965043D01*
X2791764Y2978708D01*
X2817164Y2993186D01*
X2848203Y3011576D01*
X2871216Y3025698D01*
X2891536Y3038805D01*
X2910078Y3051454D01*
X2930753Y3066237D01*
X2952851Y3082493D01*
X2981045Y3104032D01*
X3013557Y3129686D01*
X3033014Y3145688D01*
X3050286Y3160623D01*
X3068269Y3177184D01*
X3086912Y3195269D01*
X3105454Y3214166D01*
X3123234Y3233064D01*
X3139490Y3251250D01*
X3153460Y3267964D01*
X3206394Y3337153D01*
X3262122Y3313226D01*
X3281222Y3305759D01*
X3318886Y3291687D01*
X3505606Y3291687D01*
X3505758Y3305251D01*
X3506470Y3321608D01*
X3507740Y3340608D01*
X3511600Y3382975D01*
X3516325Y3429050D01*
X3522014Y3481425D01*
X3528212Y3535934D01*
X3534460Y3588512D01*
X3540404Y3633673D01*
X3548786Y3689807D01*
X3555085Y3729228D01*
X3566414Y3794760D01*
X3575608Y3843883D01*
X3584397Y3886962D01*
X3594811Y3933037D01*
X3603955Y3970782D01*
X3617112Y4022699D01*
X3630726Y4073499D01*
X3643833Y4119727D01*
X3649929Y4140149D01*
X3656431Y4160774D01*
X3666642Y4190898D01*
X3675837Y4216400D01*
X3688079Y4248912D01*
X3703370Y4287367D01*
X3713530Y4311650D01*
X3723386Y4334205D01*
X3732682Y4354322D01*
X3745737Y4380230D01*
X3754424Y4396079D01*
X3762959Y4410710D01*
X3771341Y4424070D01*
X3779469Y4436059D01*
X3787343Y4446574D01*
X3794912Y4455617D01*
X3802024Y4462983D01*
X3808679Y4468622D01*
X3811828Y4470755D01*
X3814826Y4472482D01*
X3822242Y4475632D01*
X3831386Y4478578D01*
X3841902Y4481271D01*
X3853383Y4483608D01*
X3865524Y4485538D01*
X3877970Y4487011D01*
X3890365Y4487926D01*
X3902303Y4488281D01*
X3915562Y4487875D01*
X3928922Y4486554D01*
X3935577Y4485589D01*
X3948734Y4482998D01*
X3961637Y4479645D01*
X3974084Y4475530D01*
X3985920Y4470654D01*
X3991610Y4468012D01*
X4002278Y4462170D01*
X4016365Y4453331D01*
X4064812Y4453331D01*
X4065117Y4454347D01*
X4067606Y4457192D01*
X4072432Y4461154D01*
X4079341Y4466031D01*
X4088180Y4471771D01*
X4098696Y4478223D01*
X4124045Y4492650D01*
X4153763Y4508449D01*
X4185361Y4524248D01*
X4215079Y4538370D01*
X4240936Y4549952D01*
X4260951Y4558233D01*
X4268216Y4560773D01*
X4273346Y4562246D01*
X4275023Y4562500D01*
X4276090Y4562246D01*
X4276648Y4561433D01*
X4276648Y4560062D01*
X4276140Y4558080D01*
X4273702Y4552645D01*
X4269435Y4545279D01*
X4263440Y4536186D01*
X4255871Y4525568D01*
X4246880Y4513580D01*
X4236567Y4500473D01*
X4225036Y4486402D01*
X4133545Y4379569D01*
X4099153Y4411370D01*
X4092244Y4417974D01*
X4085844Y4424527D01*
X4080001Y4430877D01*
X4074922Y4436821D01*
X4070705Y4442256D01*
X4067505Y4446879D01*
X4065524Y4450689D01*
X4064812Y4453331D01*
X4016365Y4453331D01*
X4031742Y4442917D01*
X4051503Y4428540D01*
X4060545Y4421581D01*
X4068572Y4415028D01*
X4075379Y4409084D01*
X4083761Y4400804D01*
X4092498Y4391050D01*
X4101134Y4380433D01*
X4109212Y4369562D01*
X4116273Y4358944D01*
X4121861Y4349191D01*
X4126839Y4338624D01*
X4132122Y4325620D01*
X4137355Y4310989D01*
X4142384Y4295546D01*
X4146804Y4280103D01*
X4150461Y4265523D01*
X4161840Y4214876D01*
X4113631Y4182922D01*
X4099864Y4172559D01*
X4082643Y4158487D01*
X4062831Y4141419D01*
X4041292Y4122115D01*
X4018838Y4101337D01*
X3996334Y4079748D01*
X3976420Y4060037D01*
X3961841Y4044797D01*
X3946245Y4027779D01*
X3929989Y4009237D01*
X3904792Y3979418D01*
X3883710Y3953408D01*
X3859072Y3921760D01*
X3835958Y3890772D01*
X3821937Y3870960D01*
X3809237Y3852316D01*
X3796842Y3833317D01*
X3782072Y3810000D01*
X3906316Y3810000D01*
X3906418Y3813759D01*
X3907231Y3818178D01*
X3908704Y3823258D01*
X3910787Y3828796D01*
X3913479Y3834790D01*
X3916679Y3841191D01*
X3920439Y3847846D01*
X3924655Y3854754D01*
X3929278Y3861765D01*
X3934358Y3868877D01*
X3939794Y3875989D01*
X3979773Y3926484D01*
X4024884Y3886962D01*
X4033316Y3880510D01*
X4043070Y3873754D01*
X4053992Y3866794D01*
X4065727Y3859784D01*
X4078122Y3852875D01*
X4090924Y3846169D01*
X4103878Y3839870D01*
X4116730Y3833977D01*
X4129278Y3828796D01*
X4142892Y3823614D01*
X4166260Y3815334D01*
X4196842Y3805224D01*
X4223562Y3797147D01*
X4234332Y3794251D01*
X4249978Y3790696D01*
X4256887Y3788816D01*
X4263390Y3786784D01*
X4269282Y3784600D01*
X4274413Y3782314D01*
X4278630Y3780078D01*
X4281779Y3777894D01*
X4283659Y3775862D01*
X4283913Y3774440D01*
X4283151Y3772814D01*
X4281373Y3771036D01*
X4278680Y3769106D01*
X4275175Y3767074D01*
X4265777Y3762705D01*
X4253788Y3758285D01*
X4239615Y3753967D01*
X4216349Y3747566D01*
X4204919Y3743960D01*
X4180433Y3735374D01*
X4155490Y3725621D01*
X4143400Y3720541D01*
X4131919Y3715410D01*
X4121302Y3710381D01*
X4110329Y3704793D01*
X4097883Y3697732D01*
X4085183Y3690010D01*
X4072686Y3681780D01*
X4060748Y3673398D01*
X4049674Y3665016D01*
X4039819Y3656990D01*
X4031640Y3649472D01*
X4021937Y3639464D01*
X4009542Y3627882D01*
X4003801Y3623056D01*
X3998569Y3619093D01*
X3993997Y3616096D01*
X3990289Y3614165D01*
X3987596Y3613505D01*
X3985564Y3614267D01*
X3983634Y3616451D01*
X3981856Y3619906D01*
X3980332Y3624478D01*
X3979062Y3629964D01*
X3978097Y3636314D01*
X3977487Y3643274D01*
X3977182Y3654806D01*
X3976370Y3664102D01*
X3974846Y3674567D01*
X3972712Y3685946D01*
X3969969Y3697833D01*
X3966768Y3709873D01*
X3963162Y3721709D01*
X3957218Y3738270D01*
X3952900Y3748379D01*
X3948480Y3757777D01*
X3944010Y3766312D01*
X3939590Y3773779D01*
X3935425Y3779926D01*
X3931615Y3784549D01*
X3928262Y3787495D01*
X3925570Y3788511D01*
X3920490Y3789984D01*
X3915308Y3793947D01*
X3910584Y3799840D01*
X3906926Y3807002D01*
X3906316Y3810000D01*
X3782072Y3810000D01*
X3755999Y3767531D01*
X3731412Y3726129D01*
X3701287Y3673500D01*
X3686149Y3646068D01*
X3675227Y3625646D01*
X3665270Y3606444D01*
X3643426Y3562299D01*
X3631996Y3538423D01*
X3606495Y3483406D01*
X3593134Y3453637D01*
X3583228Y3430981D01*
X3566464Y3390900D01*
X3554526Y3361182D01*
X3542320Y3332175D01*
X3631488Y3332175D01*
X3632301Y3337051D01*
X3634435Y3344062D01*
X3637787Y3353054D01*
X3642207Y3363671D01*
X3647643Y3375812D01*
X3653993Y3389223D01*
X3669029Y3418941D01*
X3682136Y3443173D01*
X3704132Y3482390D01*
X3733749Y3533952D01*
X3765600Y3588258D01*
X3796639Y3640023D01*
X3881780Y3779367D01*
X3893159Y3749548D01*
X3895344Y3741928D01*
X3897172Y3731564D01*
X3898595Y3719017D01*
X3899611Y3704640D01*
X3900170Y3688994D01*
X3900271Y3672433D01*
X3899915Y3655466D01*
X3899052Y3638499D01*
X3898036Y3626104D01*
X3896614Y3613607D01*
X3894836Y3601161D01*
X3892753Y3588816D01*
X3890314Y3576675D01*
X3887622Y3564788D01*
X3884625Y3553256D01*
X3881374Y3542131D01*
X3877868Y3531514D01*
X3874160Y3521506D01*
X3870248Y3512210D01*
X3866134Y3503625D01*
X3861054Y3494328D01*
X3854907Y3484219D01*
X3847896Y3473500D01*
X3840124Y3462426D01*
X3831844Y3451250D01*
X3823157Y3440074D01*
X3814267Y3429254D01*
X3805275Y3418890D01*
X3796436Y3409289D01*
X3787851Y3400602D01*
X3778961Y3392424D01*
X3769309Y3384245D01*
X3759047Y3376269D01*
X3748430Y3368649D01*
X3737610Y3361385D01*
X3726840Y3354730D01*
X3716274Y3348837D01*
X3706215Y3343706D01*
X3696817Y3339592D01*
X3688283Y3336594D01*
X3678377Y3333800D01*
X3668776Y3331514D01*
X3659835Y3329787D01*
X3651707Y3328568D01*
X3644595Y3327908D01*
X3638804Y3327857D01*
X3634536Y3328415D01*
X3631996Y3329635D01*
X3631539Y3330600D01*
X3631488Y3332175D01*
X3542320Y3332175D01*
X3532225Y3309213D01*
X3521862Y3287166D01*
X3517696Y3279038D01*
X3514344Y3273145D01*
X3511956Y3269792D01*
X3510737Y3268776D01*
X3509619Y3268726D01*
X3508603Y3269538D01*
X3507790Y3271164D01*
X3507079Y3273704D01*
X3506063Y3281121D01*
X3505606Y3291687D01*
X3318886Y3291687D01*
X3349853Y3280562D01*
X3417824Y3257092D01*
X3450437Y3245612D01*
X3474720Y3236671D01*
X3487369Y3231489D01*
X3488385Y3230880D01*
X3488893Y3229406D01*
X3488588Y3226765D01*
X3487470Y3223107D01*
X3485591Y3218535D01*
X3483051Y3213303D01*
X3476244Y3201212D01*
X3472129Y3194659D01*
X3467760Y3189020D01*
X3461816Y3182772D01*
X3454450Y3176066D01*
X3445916Y3169056D01*
X3436315Y3161893D01*
X3425901Y3154730D01*
X3414826Y3147618D01*
X3403346Y3140760D01*
X3391611Y3134309D01*
X3379825Y3128365D01*
X3308553Y3094228D01*
X3290570Y3040176D01*
X3288080Y3030575D01*
X3285845Y3019704D01*
X3283646Y3005988D01*
X3304590Y3005988D01*
X3304895Y3011728D01*
X3305505Y3017469D01*
X3306419Y3023158D01*
X3307740Y3028797D01*
X3309315Y3034385D01*
X3311296Y3039821D01*
X3313531Y3045053D01*
X3316122Y3050184D01*
X3318256Y3053588D01*
X3321050Y3057245D01*
X3328263Y3065170D01*
X3337407Y3073552D01*
X3348177Y3082188D01*
X3360267Y3090875D01*
X3373221Y3099257D01*
X3386734Y3107080D01*
X3414217Y3120999D01*
X3427476Y3128365D01*
X3439972Y3135884D01*
X3451453Y3143453D01*
X3461512Y3150717D01*
X3469894Y3157626D01*
X3476193Y3163773D01*
X3478479Y3166567D01*
X3480155Y3169056D01*
X3493058Y3192119D01*
X3509721Y3143605D01*
X3513785Y3133394D01*
X3518915Y3122828D01*
X3524961Y3112312D01*
X3531717Y3102051D01*
X3538931Y3092450D01*
X3546348Y3083763D01*
X3553866Y3076244D01*
X3557574Y3073044D01*
X3573119Y3061360D01*
X3591204Y3046730D01*
X3609848Y3030728D01*
X3626764Y3015234D01*
X3635349Y3006547D01*
X3639972Y3001213D01*
X3644341Y2995625D01*
X3648303Y2989884D01*
X3651961Y2984042D01*
X3655212Y2978200D01*
X3658006Y2972358D01*
X3660394Y2966567D01*
X3662273Y2960878D01*
X3663645Y2955391D01*
X3664508Y2950108D01*
X3664813Y2945130D01*
X3664610Y2940354D01*
X3664102Y2935071D01*
X3662222Y2923540D01*
X3659225Y2911144D01*
X3655364Y2898546D01*
X3650843Y2886506D01*
X3648405Y2880868D01*
X3645814Y2875584D01*
X3642766Y2870149D01*
X3639362Y2864916D01*
X3635603Y2859989D01*
X3631539Y2855264D01*
X3627221Y2850896D01*
X3622700Y2846882D01*
X3617976Y2843225D01*
X3613099Y2839923D01*
X3608070Y2837078D01*
X3602990Y2834690D01*
X3597859Y2832811D01*
X3592677Y2831388D01*
X3564534Y2824937D01*
X3544824Y2819857D01*
X3542436Y2819400D01*
X3534968Y2819196D01*
X3524453Y2819908D01*
X3511600Y2821381D01*
X3497072Y2823565D01*
X3481628Y2826359D01*
X3416452Y2840177D01*
X3360877Y2900629D01*
X3350717Y2912618D01*
X3341014Y2925013D01*
X3332073Y2937459D01*
X3324047Y2949498D01*
X3317240Y2960878D01*
X3311855Y2971190D01*
X3308197Y2980029D01*
X3307029Y2983788D01*
X3305911Y2989173D01*
X3305098Y2994710D01*
X3304692Y3000298D01*
X3304590Y3005988D01*
X3283646Y3005988D01*
X3282238Y2995422D01*
X3280968Y2982468D01*
X3280054Y2969310D01*
X3279495Y2956204D01*
X3279394Y2943453D01*
X3279698Y2931210D01*
X3284778Y2855925D01*
X3323691Y2805125D01*
X3332124Y2795117D01*
X3341522Y2785008D01*
X3351529Y2774950D01*
X3361791Y2765247D01*
X3372104Y2756255D01*
X3382060Y2748280D01*
X3391408Y2741523D01*
X3401466Y2735326D01*
X3413607Y2728925D01*
X3426053Y2723337D01*
X3438093Y2718816D01*
X3449167Y2715514D01*
X3454095Y2714447D01*
X3458565Y2713736D01*
X3468065Y2712974D01*
X3474059Y2711348D01*
X3480257Y2708757D01*
X3486454Y2705354D01*
X3492550Y2701239D01*
X3498240Y2696514D01*
X3503422Y2691333D01*
X3507841Y2685745D01*
X3527298Y2657957D01*
X3527298Y2701036D01*
X3575608Y2701036D01*
X3583076Y2701239D01*
X3590544Y2701848D01*
X3598011Y2702814D01*
X3605377Y2704185D01*
X3612642Y2705862D01*
X3619703Y2707944D01*
X3626612Y2710281D01*
X3633266Y2713024D01*
X3639616Y2716022D01*
X3645662Y2719273D01*
X3651300Y2722880D01*
X3656584Y2726690D01*
X3660038Y2729636D01*
X3666998Y2736748D01*
X3670503Y2740812D01*
X3677310Y2749956D01*
X3683812Y2760116D01*
X3689858Y2770936D01*
X3695242Y2782163D01*
X3699764Y2793542D01*
X3701694Y2799181D01*
X3717391Y2857144D01*
X3688181Y2987852D01*
X3577844Y3084931D01*
X3611930Y3101543D01*
X3616655Y3104337D01*
X3619906Y3106674D01*
X3621735Y3108655D01*
X3622040Y3110280D01*
X3620871Y3111449D01*
X3618280Y3112262D01*
X3614165Y3112668D01*
X3605631Y3111957D01*
X3596640Y3109468D01*
X3588359Y3105505D01*
X3581755Y3100476D01*
X3578402Y3097631D01*
X3574999Y3095752D01*
X3571646Y3094888D01*
X3568192Y3095040D01*
X3564686Y3096209D01*
X3561079Y3098393D01*
X3557320Y3101644D01*
X3553409Y3105912D01*
X3551377Y3108807D01*
X3549497Y3112312D01*
X3547770Y3116376D01*
X3546246Y3120898D01*
X3544874Y3125876D01*
X3542842Y3136696D01*
X3541725Y3148279D01*
X3541674Y3160064D01*
X3542080Y3165856D01*
X3546043Y3207258D01*
X3762603Y3219754D01*
X3814673Y3261614D01*
X3823360Y3269183D01*
X3832606Y3277768D01*
X3842308Y3287166D01*
X3852214Y3297224D01*
X3871925Y3318408D01*
X3890111Y3339642D01*
X3898188Y3349751D01*
X3945280Y3412540D01*
X3975658Y3348786D01*
X3979976Y3340862D01*
X3985158Y3332276D01*
X3991101Y3323183D01*
X3997706Y3313633D01*
X4004919Y3303727D01*
X4012692Y3293567D01*
X4029557Y3272891D01*
X4043070Y3257346D01*
X4061764Y3237280D01*
X4080713Y3218586D01*
X4108450Y3192830D01*
X4130801Y3172460D01*
X4152137Y3153460D01*
X4171340Y3136747D01*
X4193590Y3118205D01*
X4233570Y3087420D01*
X4195368Y3095193D01*
X4175607Y3098495D01*
X4151020Y3102000D01*
X4111650Y3106674D01*
X4046067Y3113074D01*
X4140657Y3091129D01*
X4183379Y3082188D01*
X4211472Y3076752D01*
X4247438Y3070504D01*
X4308551Y3061462D01*
X4225798Y3115259D01*
X4206087Y3128670D01*
X4185208Y3143554D01*
X4158843Y3163214D01*
X4138472Y3179064D01*
X4111091Y3201517D01*
X4096207Y3214725D01*
X4086758Y3223666D01*
X4077106Y3233267D01*
X4057904Y3253587D01*
X4048658Y3263950D01*
X4039920Y3274161D01*
X4031894Y3284016D01*
X4024629Y3293364D01*
X4018432Y3301898D01*
X4013403Y3309569D01*
X4007865Y3319068D01*
X4002278Y3329736D01*
X3996842Y3341115D01*
X3991711Y3352901D01*
X3986987Y3364687D01*
X3982821Y3376168D01*
X3979418Y3386937D01*
X3976878Y3396691D01*
X3975557Y3403244D01*
X3974541Y3410102D01*
X3973829Y3417112D01*
X3973169Y3431438D01*
X3973271Y3438651D01*
X3973677Y3445713D01*
X3974337Y3452622D01*
X3975252Y3459327D01*
X3976420Y3465677D01*
X3977843Y3471672D01*
X3979570Y3477158D01*
X3982770Y3485083D01*
X3986428Y3492195D01*
X3990492Y3498443D01*
X3994962Y3503676D01*
X3999737Y3507892D01*
X4004665Y3510940D01*
X4009796Y3512870D01*
X4024325Y3514750D01*
X4032910Y3518103D01*
X4039768Y3523081D01*
X4044645Y3530244D01*
X4045305Y3530396D01*
X4045965Y3529533D01*
X4047185Y3525215D01*
X4048302Y3517595D01*
X4049318Y3506978D01*
X4050182Y3493719D01*
X4050893Y3478123D01*
X4052315Y3418687D01*
X4053230Y3401974D01*
X4054500Y3389122D01*
X4056126Y3379978D01*
X4057091Y3376726D01*
X4058158Y3374440D01*
X4059275Y3373018D01*
X4060494Y3372459D01*
X4061815Y3372815D01*
X4063288Y3373983D01*
X4064812Y3376015D01*
X4066438Y3379114D01*
X4068013Y3383229D01*
X4069537Y3388258D01*
X4070959Y3394049D01*
X4073499Y3407613D01*
X4075531Y3423208D01*
X4076852Y3440023D01*
X4077462Y3457295D01*
X4077970Y3519779D01*
X4099255Y3485387D01*
X4103776Y3478479D01*
X4108297Y3472027D01*
X4112818Y3466236D01*
X4117136Y3461105D01*
X4121200Y3456940D01*
X4124807Y3453739D01*
X4127855Y3451707D01*
X4130192Y3451047D01*
X4133900Y3452520D01*
X4136999Y3456533D01*
X4139031Y3462477D01*
X4140301Y3473551D01*
X4141774Y3477107D01*
X4144060Y3480308D01*
X4147108Y3483051D01*
X4150766Y3485337D01*
X4155033Y3487064D01*
X4159758Y3488131D01*
X4164787Y3488537D01*
X4170578Y3488131D01*
X4175607Y3486962D01*
X4179874Y3485083D01*
X4183430Y3482390D01*
X4186174Y3478987D01*
X4188206Y3474923D01*
X4189374Y3470097D01*
X4189780Y3464560D01*
X4188561Y3454806D01*
X4185208Y3445916D01*
X4180230Y3438906D01*
X4174185Y3434740D01*
X4170781Y3433064D01*
X4168648Y3430981D01*
X4167835Y3428492D01*
X4168343Y3425596D01*
X4169959Y3422548D01*
X4244543Y3422548D01*
X4248759Y3424174D01*
X4257497Y3425037D01*
X4266234Y3424834D01*
X4272229Y3423513D01*
X4274972Y3421329D01*
X4273905Y3418484D01*
X4269689Y3416046D01*
X4263745Y3415080D01*
X4256938Y3415537D01*
X4249978Y3417468D01*
X4244898Y3420262D01*
X4244543Y3422548D01*
X4169959Y3422548D01*
X4173270Y3418433D01*
X4177741Y3414166D01*
X4183532Y3409340D01*
X4187850Y3406241D01*
X4192270Y3403498D01*
X4196892Y3401212D01*
X4201617Y3399282D01*
X4206544Y3397758D01*
X4211624Y3396589D01*
X4216908Y3395878D01*
X4222343Y3395522D01*
X4227982Y3395522D01*
X4233773Y3395929D01*
X4239818Y3396742D01*
X4255008Y3399536D01*
X4266031Y3400958D01*
X4278782Y3402177D01*
X4292752Y3403142D01*
X4307484Y3403854D01*
X4322622Y3404311D01*
X4337710Y3404412D01*
X4352290Y3404209D01*
X4367123Y3403447D01*
X4399376Y3400755D01*
X4834178Y3400755D01*
X4834940Y3403244D01*
X4837938Y3407257D01*
X4841494Y3410508D01*
X4845151Y3412693D01*
X4848453Y3413506D01*
X4850384Y3412947D01*
X4853127Y3411321D01*
X4856581Y3408730D01*
X4865065Y3401212D01*
X4874768Y3391255D01*
X4879797Y3385667D01*
X4884369Y3379978D01*
X4888179Y3374542D01*
X4891125Y3369411D01*
X4893208Y3364788D01*
X4894326Y3360775D01*
X4894478Y3357524D01*
X4893564Y3355086D01*
X4891582Y3353714D01*
X4888585Y3353308D01*
X4884826Y3353815D01*
X4880356Y3355136D01*
X4875428Y3357168D01*
X4870196Y3359861D01*
X4864709Y3363214D01*
X4859274Y3367024D01*
X4853940Y3371291D01*
X4848961Y3375863D01*
X4844592Y3380536D01*
X4840884Y3385159D01*
X4837887Y3389629D01*
X4835702Y3393795D01*
X4834483Y3397554D01*
X4834178Y3400755D01*
X4399376Y3400755D01*
X4420565Y3398570D01*
X4474718Y3392119D01*
X4511192Y3387293D01*
X4555540Y3380892D01*
X4613757Y3371799D01*
X4687011Y3360877D01*
X4740249Y3353308D01*
X4783074Y3347618D01*
X4875225Y3337306D01*
X4989779Y3323691D01*
X4989779Y3695954D01*
X4829403Y3724757D01*
X4596841Y3767226D01*
X4485081Y3787241D01*
X4276648Y3823665D01*
X4239310Y3830574D01*
X4205173Y3837381D01*
X4174286Y3844086D01*
X4146804Y3850690D01*
X4122775Y3857142D01*
X4102354Y3863390D01*
X4093514Y3866438D01*
X4085640Y3869436D01*
X4078681Y3872382D01*
X4072686Y3875278D01*
X4067708Y3878072D01*
X4059428Y3883355D01*
X4045254Y3893312D01*
X4039717Y3897731D01*
X4035298Y3901643D01*
X4032300Y3904894D01*
X4030776Y3907282D01*
X4030929Y3908806D01*
X4031945Y3909212D01*
X4033824Y3909466D01*
X4040174Y3909314D01*
X4049572Y3908450D01*
X4075937Y3904843D01*
X4092143Y3902201D01*
X4284522Y3865981D01*
X4779416Y3775608D01*
X4989779Y3736543D01*
X4989779Y3755440D01*
X4988052Y3763264D01*
X4983378Y3770680D01*
X4976418Y3776776D01*
X4967935Y3780739D01*
X4959096Y3782872D01*
X4922570Y3790391D01*
X4867605Y3800856D01*
X4644644Y3841445D01*
X4392168Y3888740D01*
X4272940Y3910533D01*
X4139285Y3934409D01*
X4104436Y3940962D01*
X4074515Y3946956D01*
X4050842Y3952036D01*
X4034942Y3955948D01*
X4030370Y3957370D01*
X4028287Y3958336D01*
X4028033Y3959606D01*
X4028744Y3961841D01*
X4030370Y3964940D01*
X4032859Y3968800D01*
X4040225Y3978656D01*
X4050334Y3990746D01*
X4062729Y4004513D01*
X4076954Y4019397D01*
X4088739Y4030878D01*
X4100931Y4041597D01*
X4113072Y4051350D01*
X4124960Y4059936D01*
X4136237Y4067149D01*
X4141571Y4070197D01*
X4146651Y4072788D01*
X4151477Y4074972D01*
X4155897Y4076649D01*
X4159961Y4077817D01*
X4163669Y4078528D01*
X4196029Y4082287D01*
X4193844Y4162704D01*
X4193082Y4174032D01*
X4191965Y4185970D01*
X4190390Y4198315D01*
X4188460Y4210913D01*
X4186224Y4223664D01*
X4183684Y4236415D01*
X4180840Y4248962D01*
X4177741Y4261205D01*
X4174439Y4272991D01*
X4170984Y4284218D01*
X4167327Y4294632D01*
X4138879Y4366768D01*
X4156049Y4390796D01*
X4163364Y4399889D01*
X4174794Y4413453D01*
X4207357Y4450740D01*
X4248353Y4496612D01*
X4294835Y4548124D01*
X4315002Y4571187D01*
X4330852Y4590034D01*
X4341672Y4603648D01*
X4344924Y4608169D01*
X4346651Y4611116D01*
X4346854Y4611878D01*
X4346702Y4612233D01*
X4321302Y4600752D01*
X4231081Y4559300D01*
X4199432Y4545634D01*
X4188409Y4541215D01*
X4181601Y4538827D01*
X4180078Y4538522D01*
X4179112Y4540351D01*
X4181449Y4545228D01*
X4186631Y4552543D01*
X4198112Y4566158D01*
X4201515Y4570933D01*
X4204258Y4575606D01*
X4206290Y4580026D01*
X4207611Y4584090D01*
X4208119Y4587595D01*
X4207764Y4590491D01*
X4206494Y4592675D01*
X4201363Y4595926D01*
X4193489Y4598568D01*
X4184040Y4600346D01*
X4174032Y4601006D01*
X4169003Y4600549D01*
X4164076Y4599076D01*
X4159351Y4596841D01*
X4155033Y4593793D01*
X4151172Y4590135D01*
X4147870Y4585868D01*
X4145229Y4581144D01*
X4141724Y4570984D01*
X4139387Y4566310D01*
X4136542Y4562094D01*
X4133291Y4558385D01*
X4129684Y4555286D01*
X4125874Y4553000D01*
X4121962Y4551527D01*
X4118051Y4551019D01*
X4099255Y4551019D01*
X4129532Y4514494D01*
X4048150Y4465015D01*
X4009186Y4485081D01*
X4001465Y4488180D01*
X3992118Y4491329D01*
X3981399Y4494377D01*
X3969613Y4497374D01*
X3956913Y4500219D01*
X3943654Y4502810D01*
X3929938Y4505198D01*
X3916172Y4507230D01*
X3902456Y4508906D01*
X3814927Y4517136D01*
X3770833Y4469892D01*
X3763873Y4461408D01*
X3756710Y4451807D01*
X3749598Y4441393D01*
X3742537Y4430268D01*
X3735781Y4418736D01*
X3729380Y4407052D01*
X3723487Y4395317D01*
X3718255Y4383887D01*
X3713784Y4372864D01*
X3690213Y4305096D01*
X3628593Y4286504D01*
X3619296Y4283252D01*
X3611067Y4280103D01*
X3604158Y4277106D01*
X3598722Y4274413D01*
X3594912Y4271975D01*
X3592982Y4270044D01*
X3593084Y4268571D01*
X3594963Y4267657D01*
X3598062Y4267352D01*
X3602228Y4267606D01*
X3607358Y4268368D01*
X3613200Y4269638D01*
X3619601Y4271365D01*
X3626459Y4273499D01*
X3640632Y4278579D01*
X3653688Y4282643D01*
X3664305Y4284980D01*
X3668268Y4285437D01*
X3671163Y4285386D01*
X3672738Y4284726D01*
X3673043Y4283811D01*
X3672636Y4279188D01*
X3671062Y4271365D01*
X3668369Y4260646D01*
X3664712Y4247438D01*
X3654856Y4215231D01*
X3638550Y4165650D01*
X3632149Y4144721D01*
X3618026Y4095750D01*
X3603091Y4040886D01*
X3595674Y4012590D01*
X3580079Y3950106D01*
X3573170Y3920693D01*
X3565956Y3888689D01*
X3559301Y3858006D01*
X3553358Y3829354D01*
X3548329Y3803650D01*
X3544315Y3781551D01*
X3540963Y3760215D01*
X3539845Y3749141D01*
X3539642Y3740505D01*
X3538524Y3726230D01*
X3536442Y3712260D01*
X3535172Y3705961D01*
X3533749Y3700424D01*
X3532225Y3695801D01*
X3530092Y3691839D01*
X3527044Y3688130D01*
X3523183Y3684778D01*
X3518611Y3681831D01*
X3513531Y3679393D01*
X3508044Y3677564D01*
X3502355Y3676446D01*
X3496564Y3676040D01*
X3492398Y3676142D01*
X3482340Y3677158D01*
X3470605Y3678986D01*
X3457803Y3681577D01*
X3444748Y3684727D01*
X3432048Y3688283D01*
X3417265Y3693261D01*
X3400501Y3699814D01*
X3386074Y3706266D01*
X3380333Y3709212D01*
X3375812Y3711854D01*
X3372815Y3714089D01*
X3372154Y3715054D01*
X3371646Y3716629D01*
X3371138Y3721557D01*
X3371189Y3728567D01*
X3371850Y3737610D01*
X3373069Y3748430D01*
X3376980Y3774744D01*
X3379673Y3789934D01*
X3386378Y3823360D01*
X3390290Y3841292D01*
X3397300Y3871264D01*
X3402736Y3895547D01*
X3408121Y3921150D01*
X3417163Y3967734D01*
X3423107Y4001058D01*
X3427476Y4026966D01*
X3431286Y4051655D01*
X3434537Y4074566D01*
X3437128Y4095292D01*
X3440125Y4122420D01*
X3442360Y4139793D01*
X3447338Y4172051D01*
X3450031Y4186428D01*
X3452774Y4199280D01*
X3455517Y4210354D01*
X3458159Y4219397D01*
X3460750Y4226102D01*
X3461969Y4228541D01*
X3468014Y4237329D01*
X3470910Y4244187D01*
X3471672Y4250080D01*
X3468979Y4256328D01*
X3468827Y4259884D01*
X3469436Y4264609D01*
X3470808Y4270298D01*
X3472840Y4276801D01*
X3475532Y4283913D01*
X3478834Y4291431D01*
X3485286Y4304588D01*
X3490264Y4315917D01*
X3494633Y4327448D01*
X3498189Y4338675D01*
X3500729Y4348988D01*
X3501593Y4353560D01*
X3502304Y4361332D01*
X3501999Y4364024D01*
X3501136Y4367174D01*
X3499764Y4370781D01*
X3497884Y4374692D01*
X3492703Y4383582D01*
X3489502Y4388408D01*
X3481882Y4398670D01*
X3472942Y4409490D01*
X3462934Y4420565D01*
X3452012Y4431538D01*
X3442360Y4440529D01*
X3433724Y4447895D01*
X3424326Y4455515D01*
X3414318Y4463237D01*
X3392932Y4478629D01*
X3376371Y4489704D01*
X3365347Y4496663D01*
X3354476Y4503216D01*
X3343910Y4509211D01*
X3333902Y4514545D01*
X3324453Y4519168D01*
X3313176Y4524248D01*
X3301237Y4529226D01*
X3288842Y4534103D01*
X3263798Y4543094D01*
X3251555Y4547057D01*
X3239871Y4550562D01*
X3229000Y4553508D01*
X3219094Y4555845D01*
X3210458Y4557471D01*
X3162350Y4565091D01*
X3208375Y4619752D01*
X3144418Y4563516D01*
X3058972Y4563465D01*
X3039313Y4562856D01*
X3021533Y4561738D01*
X3006394Y4560214D01*
X3000095Y4559350D01*
X2990443Y4557318D01*
X2987344Y4556201D01*
X2985516Y4555083D01*
X2984398Y4552797D01*
X2984347Y4549546D01*
X2985414Y4545431D01*
X2987446Y4540656D01*
X2990443Y4535373D01*
X2994202Y4529734D01*
X2998774Y4523892D01*
X3004007Y4517948D01*
X3030982Y4489246D01*
X3001416Y4453636D01*
X3022600Y4455464D01*
X3026359Y4455414D01*
X3029915Y4454550D01*
X3033369Y4452874D01*
X3036722Y4450283D01*
X3039922Y4446828D01*
X3043123Y4442460D01*
X3046222Y4437126D01*
X3049320Y4430776D01*
X3052419Y4423410D01*
X3055569Y4414977D01*
X3058718Y4405426D01*
X3062833Y4391507D01*
X3066338Y4376267D01*
X3069488Y4357928D01*
X3072384Y4336745D01*
X3074924Y4313123D01*
X3077057Y4287316D01*
X3078835Y4259580D01*
X3080156Y4230268D01*
X3081020Y4199636D01*
X3081375Y4168749D01*
X3081121Y4131716D01*
X3080613Y4109313D01*
X3079851Y4087114D01*
X3078022Y4051249D01*
X3076194Y4024325D01*
X3073958Y3999534D01*
X3071520Y3977589D01*
X3068777Y3959148D01*
X3067354Y3951376D01*
X3064205Y3937914D01*
X3061716Y3928414D01*
X3056280Y3911193D01*
X3053486Y3903522D01*
X3050641Y3896715D01*
X3047796Y3890670D01*
X3045002Y3885590D01*
X3042310Y3881526D01*
X3039668Y3878529D01*
X3037179Y3876649D01*
X3034842Y3876040D01*
X3032201Y3876395D01*
X3028543Y3877564D01*
X3024022Y3879392D01*
X3012744Y3884980D01*
X2999028Y3892702D01*
X2983687Y3902151D01*
X2967380Y3912971D01*
X2954883Y3921810D01*
X2945892Y3928719D01*
X2936341Y3936441D01*
X2926384Y3944924D01*
X2916123Y3954018D01*
X2900476Y3968496D01*
X2884982Y3983634D01*
X2874924Y3993794D01*
X2856230Y4013860D01*
X2847848Y4023512D01*
X2841091Y4031691D01*
X2828594Y4048048D01*
X2814878Y4067403D01*
X2800451Y4088942D01*
X2785770Y4112056D01*
X2771190Y4135983D01*
X2753868Y4165955D01*
X2741320Y4189171D01*
X2682240Y4305706D01*
X2615946Y4351324D01*
X2603500Y4359402D01*
X2591308Y4366818D01*
X2579725Y4373422D01*
X2569057Y4379061D01*
X2559608Y4383481D01*
X2551734Y4386630D01*
X2548483Y4387697D01*
X2545740Y4388307D01*
X2543505Y4388510D01*
X2524963Y4388510D01*
X2534361Y4318863D01*
X2537561Y4300220D01*
X2542082Y4278122D01*
X2547620Y4253585D01*
X2557424Y4214418D01*
X2564536Y4188256D01*
X2571851Y4163212D01*
X2578862Y4141114D01*
X2586634Y4117797D01*
X2595168Y4093159D01*
X2608884Y4055313D01*
X2618130Y4030675D01*
X2635859Y3986123D01*
X2644495Y3966108D01*
X2655976Y3940860D01*
X2668574Y3914292D01*
X2688082Y3875125D01*
X2700477Y3851554D01*
X2711551Y3831590D01*
X2717596Y3821176D01*
X2724302Y3808628D01*
X2730398Y3796131D01*
X2735732Y3784041D01*
X2740152Y3772712D01*
X2743555Y3762451D01*
X2745790Y3753612D01*
X2746705Y3746550D01*
X2746654Y3743807D01*
X2745181Y3735628D01*
X2742336Y3724859D01*
X2738323Y3712159D01*
X2733395Y3698240D01*
X2727756Y3683863D01*
X2718511Y3662121D01*
X2711500Y3642461D01*
X2704033Y3618382D01*
X2696565Y3591255D01*
X2692908Y3576980D01*
X2687726Y3555288D01*
X2681630Y3526688D01*
X2673654Y3486759D01*
X2666542Y3455212D01*
X2659532Y3427272D01*
X2656281Y3415334D01*
X2650439Y3396843D01*
X2648051Y3390900D01*
X2645511Y3386175D01*
X2641600Y3380181D01*
X2636418Y3372967D01*
X2630119Y3364687D01*
X2614625Y3345586D01*
X2595930Y3323844D01*
X2575052Y3300679D01*
X2552903Y3277209D01*
X2532735Y3256788D01*
X2511399Y3235960D01*
X2489657Y3215538D01*
X2468422Y3196285D01*
X2448560Y3178911D01*
X2430780Y3164230D01*
X2416048Y3152952D01*
X2400960Y3142538D01*
X2386431Y3133090D01*
X2373071Y3125114D01*
X2361590Y3118916D01*
X2356815Y3116630D01*
X2352700Y3114954D01*
X2349398Y3113887D01*
X2347010Y3113532D01*
X2345486Y3113989D01*
X2343861Y3115360D01*
X2342134Y3117596D01*
X2338476Y3124504D01*
X2334615Y3134258D01*
X2330653Y3146602D01*
X2326741Y3161030D01*
X2322982Y3177286D01*
X2319528Y3194913D01*
X2312771Y3234131D01*
X2307539Y3262884D01*
X2302611Y3288436D01*
X2298344Y3308807D01*
X2295093Y3322015D01*
X2287320Y3349294D01*
X2391562Y3380486D01*
X2379980Y3416909D01*
X2366416Y3461918D01*
X2355748Y3498189D01*
X2353818Y3505962D01*
X2349957Y3525164D01*
X2346096Y3548481D01*
X2342438Y3574999D01*
X2339035Y3603955D01*
X2335987Y3634435D01*
X2333396Y3665575D01*
X2331364Y3696512D01*
X2329281Y3733647D01*
X2326436Y3769817D01*
X2323134Y3801008D01*
X2321407Y3814318D01*
X2319578Y3825849D01*
X2317800Y3835450D01*
X2315972Y3842867D01*
X2314194Y3848049D01*
X2313330Y3849674D01*
X2312466Y3850690D01*
X2311654Y3851046D01*
X2308453Y3850386D01*
X2304084Y3848557D01*
X2298598Y3845661D01*
X2292248Y3841851D01*
X2285288Y3837228D01*
X2277872Y3831894D01*
X2270252Y3826052D01*
X2257653Y3815842D01*
X2252776Y3812133D01*
X2242870Y3805682D01*
X2237892Y3802837D01*
X2227681Y3798011D01*
X2222398Y3795979D01*
X2211628Y3792626D01*
X2206040Y3791356D01*
X2194458Y3789527D01*
X2182164Y3788613D01*
X2169160Y3788613D01*
X2156917Y3789426D01*
X2145690Y3791153D01*
X2140407Y3792372D01*
X2135378Y3793794D01*
X2125776Y3797452D01*
X2121204Y3799687D01*
X2116734Y3802227D01*
X2112365Y3805021D01*
X2103831Y3811473D01*
X2095500Y3819194D01*
X2090877Y3824122D01*
X2086559Y3829304D01*
X2082596Y3834688D01*
X2079040Y3840276D01*
X2075789Y3846017D01*
X2072944Y3851859D01*
X2070506Y3857802D01*
X2068525Y3863848D01*
X2066899Y3869893D01*
X2065731Y3875938D01*
X2065020Y3881983D01*
X2064816Y3887978D01*
X2064816Y3926027D01*
X2094484Y3926027D01*
X2098954Y3926179D01*
X2110079Y3927449D01*
X2123440Y3929837D01*
X2138222Y3933190D01*
X2153564Y3937254D01*
X2168804Y3941876D01*
X2180539Y3945991D01*
X2190496Y3950004D01*
X2201519Y3954932D01*
X2213406Y3960622D01*
X2225903Y3966921D01*
X2238806Y3973728D01*
X2264664Y3988257D01*
X2277110Y3995724D01*
X2288997Y4003192D01*
X2361133Y4051046D01*
X2430780Y4050690D01*
X2447391Y4049979D01*
X2463038Y4048607D01*
X2476957Y4046728D01*
X2488438Y4044492D01*
X2493060Y4043222D01*
X2496769Y4041901D01*
X2499461Y4040530D01*
X2515362Y4030421D01*
X2485694Y3901846D01*
X2501239Y3775659D01*
X2503170Y3761384D01*
X2506421Y3739743D01*
X2512568Y3704183D01*
X2517902Y3677412D01*
X2523337Y3653180D01*
X2528722Y3632606D01*
X2531313Y3624021D01*
X2533802Y3616706D01*
X2539085Y3603498D01*
X2546807Y3585616D01*
X2553157Y3572103D01*
X2555646Y3567480D01*
X2557475Y3564534D01*
X2558592Y3563518D01*
X2560370Y3564686D01*
X2570073Y3573322D01*
X2586837Y3589223D01*
X2609189Y3610914D01*
X2635504Y3636873D01*
X2670505Y3671976D01*
X2694787Y3697020D01*
X2713939Y3717391D01*
X2726588Y3731615D01*
X2730042Y3735984D01*
X2731312Y3738219D01*
X2731109Y3738524D01*
X2729839Y3738118D01*
X2724759Y3735070D01*
X2716784Y3729431D01*
X2706471Y3721506D01*
X2694381Y3711854D01*
X2665323Y3687572D01*
X2657297Y3681171D01*
X2649880Y3675634D01*
X2643124Y3671011D01*
X2636977Y3667251D01*
X2631440Y3664356D01*
X2626360Y3662324D01*
X2621838Y3661054D01*
X2617724Y3660648D01*
X2614066Y3661003D01*
X2610815Y3662172D01*
X2607868Y3664051D01*
X2605684Y3666286D01*
X2603347Y3669436D01*
X2600858Y3673348D01*
X2598267Y3678021D01*
X2592984Y3689248D01*
X2587802Y3702405D01*
X2582926Y3716883D01*
X2580690Y3724351D01*
X2577896Y3735374D01*
X2576271Y3743198D01*
X2573274Y3762298D01*
X2570632Y3785108D01*
X2568346Y3810711D01*
X2566212Y3844950D01*
X2565196Y3872890D01*
X2564790Y3900170D01*
X2564790Y4013301D01*
X2479598Y4069181D01*
X2498598Y4105910D01*
X2502865Y4115308D01*
X2506370Y4125518D01*
X2507894Y4130954D01*
X2510332Y4142384D01*
X2512009Y4154474D01*
X2512923Y4167225D01*
X2513126Y4180535D01*
X2512517Y4194403D01*
X2511958Y4201515D01*
X2510231Y4214063D01*
X2507640Y4227322D01*
X2504186Y4240784D01*
X2500071Y4254093D01*
X2495448Y4266844D01*
X2490368Y4278680D01*
X2485034Y4289145D01*
X2482291Y4293768D01*
X2479548Y4297883D01*
X2473299Y4305858D01*
X2465781Y4314088D01*
X2457246Y4322318D01*
X2448052Y4330395D01*
X2438400Y4338015D01*
X2428646Y4344924D01*
X2419045Y4350969D01*
X2409850Y4355795D01*
X2401925Y4359198D01*
X2392527Y4362653D01*
X2381808Y4366006D01*
X2370124Y4369308D01*
X2357628Y4372508D01*
X2344623Y4375454D01*
X2331313Y4378147D01*
X2318004Y4380484D01*
X2304897Y4382465D01*
X2292299Y4383989D01*
X2279446Y4385106D01*
X2265832Y4386021D01*
X2251608Y4386580D01*
X2229866Y4386986D01*
X2215489Y4386884D01*
X2201519Y4386529D01*
X2188260Y4385868D01*
X2175967Y4385005D01*
X2164943Y4383836D01*
X2150465Y4381601D01*
X2141880Y4379925D01*
X2134209Y4378147D01*
X2127351Y4376216D01*
X2121357Y4374134D01*
X2116226Y4371949D01*
X2111908Y4369612D01*
X2108403Y4367072D01*
X2105710Y4364380D01*
X2103831Y4361535D01*
X2102662Y4358538D01*
X2102342Y4354880D01*
X2108962Y4354880D01*
X2133752Y4364583D01*
X2140153Y4366564D01*
X2148789Y4368393D01*
X2159355Y4370120D01*
X2171446Y4371644D01*
X2184704Y4372965D01*
X2198674Y4373981D01*
X2213000Y4374692D01*
X2227326Y4375048D01*
X2239060Y4375048D01*
X2251506Y4374642D01*
X2264359Y4373930D01*
X2277414Y4372914D01*
X2303018Y4370120D01*
X2326386Y4366463D01*
X2336596Y4364380D01*
X2345486Y4362145D01*
X2350719Y4360570D01*
X2356256Y4358589D01*
X2361996Y4356252D01*
X2373985Y4350664D01*
X2386279Y4344009D01*
X2398572Y4336542D01*
X2410510Y4328515D01*
X2421636Y4320082D01*
X2426817Y4315815D01*
X2436114Y4307230D01*
X2445308Y4297426D01*
X2453487Y4287570D01*
X2457196Y4282643D01*
X2463647Y4272889D01*
X2466441Y4268114D01*
X2471115Y4258665D01*
X2472994Y4254042D01*
X2474518Y4249572D01*
X2475738Y4245152D01*
X2476601Y4240885D01*
X2477109Y4236720D01*
X2477312Y4232706D01*
X2477058Y4225544D01*
X2476296Y4217873D01*
X2475128Y4210050D01*
X2473604Y4202226D01*
X2471724Y4194657D01*
X2469591Y4187545D01*
X2467203Y4181195D01*
X2464663Y4175760D01*
X2462530Y4172458D01*
X2459685Y4169054D01*
X2456230Y4165600D01*
X2452166Y4162145D01*
X2447645Y4158742D01*
X2437282Y4152239D01*
X2431643Y4149242D01*
X2425750Y4146448D01*
X2419705Y4143908D01*
X2413609Y4141724D01*
X2407462Y4139844D01*
X2398166Y4137507D01*
X2388819Y4135577D01*
X2379675Y4134104D01*
X2370937Y4133087D01*
X2362962Y4132529D01*
X2355900Y4132529D01*
X2350058Y4133037D01*
X2345690Y4134154D01*
X2343150Y4135526D01*
X2340203Y4137761D01*
X2337003Y4140860D01*
X2333498Y4144670D01*
X2326030Y4154271D01*
X2318156Y4166006D01*
X2314194Y4172458D01*
X2306574Y4186275D01*
X2300122Y4199026D01*
X2293670Y4210862D01*
X2286152Y4223258D01*
X2277973Y4235907D01*
X2269286Y4248404D01*
X2260396Y4260342D01*
X2251608Y4271365D01*
X2243124Y4281119D01*
X2234946Y4289450D01*
X2225649Y4297680D01*
X2215286Y4305858D01*
X2204212Y4313783D01*
X2192782Y4321149D01*
X2181301Y4327804D01*
X2170176Y4333494D01*
X2159711Y4338015D01*
X2108962Y4354880D01*
X2102342Y4354880D01*
X2102561Y4352391D01*
X2103272Y4348886D01*
X2104390Y4344924D01*
X2107895Y4335780D01*
X2112721Y4325518D01*
X2118614Y4314748D01*
X2125370Y4303928D01*
X2128977Y4298645D01*
X2135378Y4290669D01*
X2143404Y4282389D01*
X2152700Y4273956D01*
X2163013Y4265676D01*
X2173884Y4257852D01*
X2185111Y4250588D01*
X2196388Y4244289D01*
X2201875Y4241495D01*
X2214372Y4235907D01*
X2228443Y4229100D01*
X2241702Y4221937D01*
X2253538Y4214825D01*
X2263343Y4208068D01*
X2267305Y4204970D01*
X2270455Y4202176D01*
X2272842Y4199585D01*
X2275789Y4195470D01*
X2278938Y4190390D01*
X2282190Y4184599D01*
X2288438Y4171442D01*
X2291283Y4164533D01*
X2293823Y4157675D01*
X2297430Y4146550D01*
X2301341Y4136898D01*
X2306421Y4126636D01*
X2312263Y4116425D01*
X2318613Y4106722D01*
X2325116Y4098137D01*
X2351430Y4069079D01*
X2304592Y4031792D01*
X2294585Y4024376D01*
X2283612Y4016705D01*
X2272080Y4009034D01*
X2260295Y4001566D01*
X2248611Y3994556D01*
X2237384Y3988155D01*
X2227021Y3982669D01*
X2177643Y3959047D01*
X2122932Y4002938D01*
X2112060Y4011168D01*
X2100834Y4019194D01*
X2089607Y4026814D01*
X2078685Y4033824D01*
X2068372Y4039971D01*
X2059076Y4045153D01*
X2051050Y4049014D01*
X2016658Y4062222D01*
X2021078Y4209034D01*
X1952548Y4299000D01*
X1867763Y4307992D01*
X1840484Y4310227D01*
X1812899Y4311751D01*
X1787093Y4312412D01*
X1775460Y4312462D01*
X1756156Y4311802D01*
X1708607Y4307281D01*
X1666798Y4218228D01*
X1558086Y4195013D01*
X1538986Y4190390D01*
X1518666Y4184802D01*
X1497177Y4178249D01*
X1474724Y4170832D01*
X1451254Y4162551D01*
X1414627Y4148531D01*
X1389278Y4138218D01*
X1356817Y4124350D01*
X1323695Y4109364D01*
X1148486Y4025900D01*
X1131620Y4050029D01*
X1128928Y4053382D01*
X1125575Y4056938D01*
X1121613Y4060494D01*
X1112164Y4067708D01*
X1101191Y4074718D01*
X1095349Y4077970D01*
X1083208Y4083862D01*
X1062228Y4091787D01*
X1054049Y4095546D01*
X1046632Y4099661D01*
X1040130Y4103979D01*
X1034796Y4108399D01*
X1030732Y4112768D01*
X1028192Y4116984D01*
X1026210Y4126077D01*
X1024331Y4131665D01*
X1021587Y4138879D01*
X1013714Y4157522D01*
X1003046Y4181043D01*
X990041Y4208424D01*
X975156Y4238752D01*
X958799Y4271010D01*
X943152Y4301032D01*
X911352Y4359656D01*
X877620Y4419600D01*
X848360Y4469688D01*
X825347Y4507534D01*
X812546Y4527600D01*
X793242Y4558487D01*
X777189Y4585258D01*
X765403Y4606188D01*
X761441Y4613910D01*
X758901Y4619498D01*
X757885Y4622749D01*
X758037Y4623409D01*
X759206Y4623714D01*
X761441Y4623409D01*
X768908Y4621174D01*
X779780Y4616958D01*
X793343Y4611065D01*
X808990Y4603800D01*
X834694Y4591100D01*
X850798Y4583379D01*
X864971Y4577029D01*
X876503Y4572304D01*
X884783Y4569510D01*
X887526Y4568901D01*
X889203Y4568850D01*
X889812Y4569409D01*
X889355Y4570272D01*
X885799Y4573320D01*
X878992Y4577842D01*
X869391Y4583684D01*
X857300Y4590643D01*
X827125Y4607001D01*
X809752Y4615992D01*
X711555Y4665472D01*
X739190Y4620768D01*
X745744Y4609744D01*
X750824Y4600448D01*
X754380Y4592726D01*
X756412Y4586579D01*
X757021Y4581956D01*
X756208Y4578705D01*
X753922Y4576826D01*
X750214Y4576267D01*
X743966Y4576927D01*
X709320Y4582464D01*
X659079Y4591253D01*
X595731Y4602784D01*
X296875Y4658969D01*
X81280Y4699000D01*
G37*
G36*
X2652572Y4693158D02*
G01*
X2649575Y4692751D01*
X2647188Y4690414D01*
X2644698Y4684826D01*
X2644394Y4680254D01*
X2646222Y4677156D01*
X2652725Y4675225D01*
X2655824Y4673041D01*
X2659278Y4669536D01*
X2662936Y4664913D01*
X2666695Y4659274D01*
X2670454Y4652822D01*
X2674061Y4645710D01*
X2680716Y4630623D01*
X2684018Y4623816D01*
X2687167Y4617923D01*
X2690164Y4612944D01*
X2692908Y4609134D01*
X2695295Y4606544D01*
X2697226Y4605375D01*
X2698648Y4605680D01*
X2699258Y4607763D01*
X2698851Y4611522D01*
X2697581Y4616754D01*
X2695448Y4623308D01*
X2692552Y4630928D01*
X2688996Y4639360D01*
X2684830Y4648454D01*
X2680106Y4657953D01*
X2674670Y4668012D01*
X2669489Y4676495D01*
X2664612Y4683252D01*
X2660142Y4688332D01*
X2656128Y4691634D01*
G37*
G36*
X1944928Y4688535D02*
G01*
X1943811Y4687062D01*
X1943963Y4682998D01*
X1945335Y4677054D01*
X1947773Y4669790D01*
X1951583Y4662474D01*
X1956612Y4656531D01*
X1962150Y4652518D01*
X1967687Y4651044D01*
X1971548Y4652416D01*
X1972360Y4656328D01*
X1970074Y4662271D01*
X1964791Y4669790D01*
X1958441Y4677054D01*
X1952548Y4682998D01*
X1947824Y4687062D01*
G37*
G36*
X1466697Y4676038D02*
G01*
X1466037Y4675378D01*
X1466596Y4673549D01*
X1468221Y4670653D01*
X1474470Y4662220D01*
X1484020Y4651044D01*
X1495806Y4638497D01*
X1507236Y4627321D01*
X1516888Y4618888D01*
X1520647Y4615992D01*
X1523542Y4614164D01*
X1525422Y4613503D01*
X1526082Y4614164D01*
X1525524Y4615992D01*
X1523847Y4618888D01*
X1521206Y4622698D01*
X1513230Y4632655D01*
X1502308Y4644745D01*
X1490421Y4656886D01*
X1479753Y4666843D01*
X1475232Y4670653D01*
X1471422Y4673549D01*
X1468526Y4675378D01*
G37*
G36*
X2636672Y4663236D02*
G01*
X2635250Y4662271D01*
X2628290Y4655159D01*
X2616962Y4642561D01*
X2602687Y4625949D01*
X2556154Y4570272D01*
X2516682Y4588154D01*
X2507589Y4591710D01*
X2497124Y4595418D01*
X2485644Y4599076D01*
X2473502Y4602632D01*
X2461056Y4605985D01*
X2448712Y4609033D01*
X2436825Y4611624D01*
X2420315Y4614570D01*
X2410256Y4615840D01*
X2401112Y4616653D01*
X2393137Y4616907D01*
X2386533Y4616653D01*
X2381554Y4615891D01*
X2378405Y4614621D01*
X2377287Y4612843D01*
X2379014Y4608525D01*
X2383739Y4604258D01*
X2390698Y4600498D01*
X2399182Y4597704D01*
X2404160Y4596282D01*
X2407259Y4594758D01*
X2408377Y4593132D01*
X2407564Y4591354D01*
X2404770Y4589424D01*
X2399944Y4587290D01*
X2393086Y4584903D01*
X2380640Y4581398D01*
X2372664Y4580026D01*
X2363571Y4579162D01*
X2353513Y4578807D01*
X2342591Y4578959D01*
X2330907Y4579569D01*
X2318562Y4580686D01*
X2305659Y4582261D01*
X2292299Y4584293D01*
X2278634Y4586833D01*
X2239822Y4594910D01*
X2209088Y4601006D01*
X2182926Y4605832D01*
X2164791Y4608830D01*
X2160574Y4609134D01*
X2160066Y4608931D01*
X2160574Y4608474D01*
X2164486Y4606899D01*
X2172106Y4604410D01*
X2197201Y4597349D01*
X2316988Y4566158D01*
X2365806Y4553000D01*
X2408072Y4541012D01*
X2424633Y4535373D01*
X2439212Y4529582D01*
X2445512Y4526737D01*
X2451100Y4523943D01*
X2455824Y4521301D01*
X2459634Y4518761D01*
X2462428Y4516475D01*
X2464206Y4514392D01*
X2465527Y4510481D01*
X2467559Y4509262D01*
X2470810Y4508855D01*
X2475077Y4509262D01*
X2480259Y4510481D01*
X2486202Y4512411D01*
X2492806Y4515104D01*
X2502865Y4520184D01*
X2509723Y4524502D01*
X2517546Y4530039D01*
X2526131Y4536592D01*
X2535275Y4544009D01*
X2544775Y4552137D01*
X2554478Y4560874D01*
X2569006Y4574641D01*
X2578404Y4584090D01*
X2587345Y4593539D01*
X2613761Y4623104D01*
X2624378Y4635652D01*
X2632608Y4645914D01*
X2637942Y4653229D01*
X2639314Y4655566D01*
X2639822Y4656988D01*
X2639568Y4659528D01*
X2638907Y4661509D01*
X2637891Y4662830D01*
G37*
G36*
X1972259Y4638497D02*
G01*
X2025192Y4584192D01*
X2032804Y4576876D01*
X2058568Y4576876D01*
X2146046Y4545736D01*
X2122678Y4540910D01*
X2117598Y4540351D01*
X2112010Y4540656D01*
X2106168Y4541723D01*
X2100224Y4543501D01*
X2094331Y4545939D01*
X2088743Y4548987D01*
X2083511Y4552492D01*
X2078939Y4556506D01*
X2058568Y4576876D01*
X2032804Y4576876D01*
X2046274Y4564938D01*
X2055926Y4556760D01*
X2066137Y4548530D01*
X2087473Y4532223D01*
X2103780Y4520590D01*
X2114448Y4513326D01*
X2124913Y4506569D01*
X2134920Y4500422D01*
X2168919Y4480864D01*
X2269337Y4480864D01*
X2270404Y4484776D01*
X2273960Y4487418D01*
X2279700Y4488332D01*
X2287524Y4487316D01*
X2296769Y4484624D01*
X2306218Y4480763D01*
X2314803Y4476038D01*
X2333548Y4463897D01*
X2306167Y4463694D01*
X2300528Y4463948D01*
X2294940Y4464608D01*
X2289556Y4465726D01*
X2284577Y4467250D01*
X2280056Y4469079D01*
X2276195Y4471162D01*
X2273147Y4473498D01*
X2271064Y4476038D01*
X2269337Y4480864D01*
X2168919Y4480864D01*
X2208326Y4458258D01*
X2303221Y4458614D01*
X2317953Y4459071D01*
X2332736Y4459833D01*
X2347264Y4460951D01*
X2361336Y4462322D01*
X2374696Y4463948D01*
X2387041Y4465828D01*
X2398115Y4467910D01*
X2407716Y4470095D01*
X2415540Y4472482D01*
X2418689Y4473651D01*
X2425903Y4477054D01*
X2432151Y4480661D01*
X2437384Y4484420D01*
X2441498Y4488230D01*
X2444445Y4491990D01*
X2446070Y4495647D01*
X2446375Y4499152D01*
X2445258Y4502353D01*
X2436672Y4516170D01*
X2428138Y4502353D01*
X2426309Y4500270D01*
X2423718Y4498848D01*
X2420416Y4498035D01*
X2416352Y4497882D01*
X2411476Y4498340D01*
X2405837Y4499457D01*
X2399436Y4501235D01*
X2392172Y4503623D01*
X2384094Y4506671D01*
X2375154Y4510379D01*
X2341270Y4526026D01*
X2327757Y4531918D01*
X2314651Y4537202D01*
X2302205Y4541824D01*
X2290876Y4545685D01*
X2280970Y4548530D01*
X2272893Y4550359D01*
X2269642Y4550867D01*
X2264156Y4551172D01*
X2256282Y4552188D01*
X2245563Y4554169D01*
X2232558Y4556912D01*
X2201468Y4564532D01*
X2184196Y4569155D01*
X2151532Y4578604D01*
X2100783Y4594250D01*
X2052929Y4609744D01*
X2033320Y4616399D01*
G37*
G36*
X1949196Y4638344D02*
G01*
X1946656Y4637430D01*
X1942084Y4635093D01*
X1929384Y4627575D01*
X1912721Y4617008D01*
X1932482Y4609388D01*
X1940864Y4607407D01*
X1947113Y4608626D01*
X1950974Y4612894D01*
X1952294Y4620158D01*
X1952040Y4627270D01*
X1951380Y4633061D01*
X1950415Y4636973D01*
G37*
G36*
X3281984Y4636160D02*
G01*
X3279800Y4633417D01*
X3278479Y4627422D01*
X3278276Y4618736D01*
X3279140Y4609998D01*
X3280816Y4605731D01*
X3283051Y4606086D01*
X3285845Y4611166D01*
X3287776Y4618126D01*
X3288233Y4624984D01*
X3287268Y4630928D01*
X3284829Y4635144D01*
G37*
G36*
X3698798Y4612741D02*
G01*
X3667912Y4600651D01*
X3656990Y4595723D01*
X3648049Y4590694D01*
X3642004Y4586173D01*
X3639820Y4582668D01*
X3641648Y4580077D01*
X3646728Y4577994D01*
X3654298Y4576521D01*
X3663442Y4576013D01*
X3668369Y4576419D01*
X3673195Y4577486D01*
X3677920Y4579213D01*
X3682288Y4581550D01*
X3686251Y4584293D01*
X3689654Y4587494D01*
X3692398Y4590999D01*
X3694328Y4594758D01*
X3696919Y4601972D01*
X3698595Y4607763D01*
X3699256Y4611573D01*
G37*
G36*
X909167Y4563313D02*
G01*
X905560Y4562246D01*
X905408Y4559452D01*
X908558Y4555388D01*
X916127Y4549546D01*
X925880Y4544009D01*
X941882Y4535474D01*
X988821Y4511497D01*
X1057351Y4477512D01*
X1088288Y4462526D01*
X1125016Y4445406D01*
X1168364Y4426254D01*
X1210513Y4426254D01*
X1211122Y4427169D01*
X1212900Y4427728D01*
X1215796Y4428083D01*
X1219758Y4428185D01*
X1230579Y4427575D01*
X1244701Y4426000D01*
X1261618Y4423460D01*
X1280261Y4420006D01*
X1297178Y4416145D01*
X1304594Y4414113D01*
X1311249Y4412030D01*
X1317091Y4409948D01*
X1322019Y4407916D01*
X1325930Y4405934D01*
X1328826Y4404055D01*
X1330604Y4402226D01*
X1331112Y4400600D01*
X1330401Y4399127D01*
X1327353Y4397349D01*
X1322578Y4396232D01*
X1316278Y4395774D01*
X1308709Y4395927D01*
X1300124Y4396689D01*
X1290726Y4398010D01*
X1280871Y4399940D01*
X1270660Y4402429D01*
X1257198Y4406341D01*
X1244346Y4410456D01*
X1232763Y4414621D01*
X1222959Y4418634D01*
X1215593Y4422190D01*
X1213002Y4423765D01*
X1211224Y4425137D01*
X1210513Y4426254D01*
X1168364Y4426254D01*
X1194562Y4415231D01*
X1218742Y4405579D01*
X1239672Y4397806D01*
X1256538Y4392218D01*
X1263192Y4390339D01*
X1273505Y4388104D01*
X1288745Y4385818D01*
X1296365Y4385056D01*
X1311198Y4384344D01*
X1318209Y4384395D01*
X1324864Y4384700D01*
X1331061Y4385259D01*
X1336700Y4386072D01*
X1341729Y4387138D01*
X1346047Y4388510D01*
X1351788Y4391101D01*
X1357528Y4394352D01*
X1363014Y4398162D01*
X1368196Y4402429D01*
X1372819Y4406950D01*
X1376832Y4411624D01*
X1380032Y4416348D01*
X1382268Y4420920D01*
X1384401Y4430115D01*
X1383995Y4438954D01*
X1381252Y4446473D01*
X1376324Y4451604D01*
X1374394Y4452620D01*
X1367790Y4454956D01*
X1357985Y4457700D01*
X1345387Y4460798D01*
X1330452Y4464100D01*
X1295501Y4470958D01*
X1239215Y4480560D01*
X1187196Y4489856D01*
X1123950Y4501896D01*
X1071067Y4512462D01*
X1040942Y4518914D01*
X1006500Y4527143D01*
X990803Y4531258D01*
X963828Y4539081D01*
X953109Y4542637D01*
X944473Y4545838D01*
X938326Y4548682D01*
X936193Y4549902D01*
X928928Y4555845D01*
X922121Y4559808D01*
X915263Y4562398D01*
G37*
G36*
X1946046Y4560011D02*
G01*
X1896059Y4540300D01*
X1917954Y4539386D01*
X1923389Y4538675D01*
X1927961Y4536948D01*
X1931720Y4534154D01*
X1934768Y4530242D01*
X1937004Y4525060D01*
X1938578Y4518660D01*
X1939493Y4510887D01*
X1939798Y4501743D01*
X1939798Y4464964D01*
X1833575Y4457293D01*
X1854707Y4447540D01*
X1894535Y4447540D01*
X1898802Y4449165D01*
X1907489Y4450029D01*
X1916226Y4449826D01*
X1922221Y4448505D01*
X1924964Y4446320D01*
X1923897Y4443476D01*
X1919681Y4441037D01*
X1913788Y4440072D01*
X1906930Y4440529D01*
X1899970Y4442460D01*
X1894890Y4445254D01*
X1894535Y4447540D01*
X1854707Y4447540D01*
X1912874Y4420768D01*
X1885696Y4369765D01*
X1906473Y4386884D01*
X1909368Y4389628D01*
X1912416Y4393031D01*
X1915566Y4397146D01*
X1921967Y4406849D01*
X1928164Y4418177D01*
X1933905Y4430522D01*
X1938832Y4443272D01*
X1940864Y4449622D01*
X1944319Y4462881D01*
X1947164Y4477004D01*
X1949246Y4491329D01*
X1950567Y4505045D01*
X1950923Y4517390D01*
X1950313Y4527651D01*
G37*
G36*
X1572463Y4556252D02*
G01*
X1572768Y4555540D01*
X1578660Y4549140D01*
X1595882Y4531766D01*
X1617624Y4510379D01*
X1649730Y4479442D01*
X1674622Y4456430D01*
X1697685Y4435957D01*
X1717700Y4419041D01*
X1726234Y4412183D01*
X1733550Y4406646D01*
X1739544Y4402480D01*
X1744014Y4399838D01*
X1748586Y4397908D01*
X1751075Y4397451D01*
X1751634Y4398416D01*
X1750263Y4400702D01*
X1747113Y4404258D01*
X1742135Y4408932D01*
X1735531Y4414723D01*
X1716938Y4429912D01*
X1699666Y4444441D01*
X1657400Y4481017D01*
X1629156Y4506010D01*
X1588770Y4542434D01*
X1573936Y4555286D01*
G37*
G36*
X2732735Y4546904D02*
G01*
X2730500Y4546142D01*
X2732125Y4541621D01*
X2741269Y4526026D01*
X2676601Y4525924D01*
X2662174Y4525010D01*
X2655570Y4524248D01*
X2644038Y4522216D01*
X2639212Y4520946D01*
X2635097Y4519574D01*
X2631795Y4518050D01*
X2629357Y4516475D01*
X2627833Y4514799D01*
X2627325Y4513021D01*
X2627528Y4510836D01*
X2629204Y4504232D01*
X2652674Y4504131D01*
X2653334Y4506010D01*
X2655265Y4507788D01*
X2658364Y4509363D01*
X2662529Y4510735D01*
X2667558Y4511852D01*
X2673350Y4512716D01*
X2679801Y4513224D01*
X2690520Y4513275D01*
X2699918Y4512513D01*
X2711145Y4511141D01*
X2723845Y4509211D01*
X2737612Y4506772D01*
X2766618Y4500676D01*
X2780995Y4497222D01*
X2793644Y4493818D01*
X2805480Y4490161D01*
X2817876Y4485894D01*
X2830576Y4481118D01*
X2843377Y4475988D01*
X2856026Y4470501D01*
X2868218Y4464812D01*
X2879750Y4459071D01*
X2890367Y4453382D01*
X2899867Y4447743D01*
X2909265Y4441545D01*
X2919780Y4433570D01*
X2930448Y4424730D01*
X2940964Y4415180D01*
X2950921Y4405325D01*
X2960166Y4395419D01*
X2968244Y4385767D01*
X2975000Y4376674D01*
X2981045Y4366768D01*
X2987243Y4355185D01*
X2992678Y4343552D01*
X2997098Y4332528D01*
X3000298Y4322622D01*
X3001365Y4318355D01*
X3002026Y4314545D01*
X3002229Y4311345D01*
X3001975Y4308195D01*
X3001111Y4304436D01*
X2999740Y4300220D01*
X2997860Y4295546D01*
X2992780Y4285284D01*
X2989681Y4279798D01*
X2982518Y4268571D01*
X2974340Y4257395D01*
X2969920Y4251960D01*
X2965297Y4246727D01*
X2960319Y4241698D01*
X2955137Y4236974D01*
X2949854Y4232503D01*
X2944469Y4228439D01*
X2939034Y4224731D01*
X2933700Y4221480D01*
X2928467Y4218736D01*
X2923438Y4216501D01*
X2918663Y4214876D01*
X2914243Y4213860D01*
X2910230Y4213504D01*
X2904134Y4213910D01*
X2897428Y4215079D01*
X2890215Y4216857D01*
X2882747Y4219244D01*
X2875280Y4222140D01*
X2868015Y4225442D01*
X2861208Y4229049D01*
X2855061Y4232960D01*
X2849524Y4237329D01*
X2844292Y4242206D01*
X2839567Y4247489D01*
X2835402Y4252925D01*
X2831998Y4258462D01*
X2829407Y4263847D01*
X2827782Y4268978D01*
X2827020Y4276090D01*
X2825750Y4282846D01*
X2823413Y4291634D01*
X2820060Y4302099D01*
X2815894Y4313936D01*
X2811018Y4326686D01*
X2805531Y4340098D01*
X2799537Y4353763D01*
X2765806Y4426356D01*
X2701798Y4465269D01*
X2687523Y4474565D01*
X2674975Y4483404D01*
X2664714Y4491278D01*
X2660599Y4494733D01*
X2654808Y4500422D01*
X2653284Y4502556D01*
X2652674Y4504131D01*
X2629238Y4504131D01*
X2632405Y4495139D01*
X2636774Y4484116D01*
X2642209Y4471873D01*
X2648356Y4458868D01*
X2654452Y4447032D01*
X2657500Y4441850D01*
X2664256Y4431842D01*
X2671673Y4422343D01*
X2679598Y4413554D01*
X2687878Y4405731D01*
X2692095Y4402175D01*
X2700578Y4395978D01*
X2704846Y4393336D01*
X2709062Y4391050D01*
X2718460Y4386884D01*
X2729179Y4381550D01*
X2739948Y4375404D01*
X2750108Y4368800D01*
X2759151Y4362145D01*
X2766517Y4355795D01*
X2769412Y4352798D01*
X2772105Y4349496D01*
X2774848Y4345381D01*
X2780588Y4335018D01*
X2786329Y4322419D01*
X2791714Y4308348D01*
X2796438Y4293565D01*
X2798521Y4286097D01*
X2801620Y4273143D01*
X2804769Y4261510D01*
X2808478Y4249572D01*
X2812643Y4237685D01*
X2817063Y4226204D01*
X2821635Y4215434D01*
X2826258Y4205732D01*
X2830779Y4197451D01*
X2832912Y4193946D01*
X2836011Y4189577D01*
X2839567Y4185158D01*
X2843530Y4180738D01*
X2847797Y4176369D01*
X2857042Y4168038D01*
X2861919Y4164177D01*
X2871774Y4157370D01*
X2876702Y4154474D01*
X2881426Y4152036D01*
X2885998Y4150106D01*
X2891586Y4148175D01*
X2897225Y4146651D01*
X2903016Y4145483D01*
X2908858Y4144670D01*
X2914904Y4144264D01*
X2921050Y4144264D01*
X2927299Y4144619D01*
X2933801Y4145330D01*
X2940405Y4146448D01*
X2947263Y4147921D01*
X2954324Y4149750D01*
X2967228Y4154017D01*
X2972562Y4156151D01*
X2977642Y4158487D01*
X2982417Y4160977D01*
X2986887Y4163618D01*
X2991154Y4166514D01*
X2995168Y4169613D01*
X2998978Y4172965D01*
X3005937Y4180382D01*
X3009087Y4184497D01*
X3012135Y4188917D01*
X3015030Y4193641D01*
X3020364Y4203954D01*
X3040989Y4253077D01*
X3019704Y4325975D01*
X3015183Y4339488D01*
X3010255Y4352544D01*
X3005124Y4364837D01*
X2999841Y4376013D01*
X2994710Y4385716D01*
X2989732Y4393641D01*
X2985211Y4399381D01*
X2979318Y4404969D01*
X2976067Y4409033D01*
X2973425Y4413402D01*
X2971342Y4417872D01*
X2969971Y4422444D01*
X2969260Y4426915D01*
X2969412Y4431080D01*
X2971952Y4441088D01*
X2971393Y4444949D01*
X2968904Y4446270D01*
X2961386Y4443577D01*
X2957017Y4443577D01*
X2951734Y4444492D01*
X2945688Y4446371D01*
X2939084Y4449013D01*
X2932125Y4452467D01*
X2924962Y4456582D01*
X2914040Y4463897D01*
X2905150Y4469282D01*
X2894736Y4474870D01*
X2883154Y4480509D01*
X2870860Y4485995D01*
X2858211Y4491177D01*
X2845511Y4495901D01*
X2833217Y4500016D01*
X2819450Y4504131D01*
X2803550Y4509566D01*
X2787954Y4515713D01*
X2773426Y4522165D01*
X2760776Y4528616D01*
X2755392Y4531766D01*
X2750769Y4534763D01*
X2738424Y4543958D01*
G37*
G36*
X1395628Y4507738D02*
G01*
X1393647Y4506010D01*
X1392275Y4499406D01*
X1391767Y4488535D01*
X1392275Y4477613D01*
X1393647Y4471060D01*
X1395628Y4469282D01*
X1398066Y4472889D01*
X1400048Y4480204D01*
X1400657Y4488535D01*
X1400048Y4496866D01*
X1398066Y4504131D01*
G37*
G36*
X4322978Y4438497D02*
G01*
X4321657Y4437938D01*
X4319422Y4436313D01*
X4312920Y4430268D01*
X4304436Y4421327D01*
X4294835Y4410405D01*
X4271060Y4382262D01*
X4304842Y4410964D01*
X4314850Y4420108D01*
X4322470Y4427728D01*
X4326737Y4432858D01*
X4327296Y4434230D01*
X4326940Y4435906D01*
X4326026Y4437278D01*
X4324654Y4438192D01*
G37*
G36*
X1846072Y4373575D02*
G01*
X1838960Y4373372D01*
X1833219Y4372965D01*
X1828901Y4372356D01*
X1826056Y4371543D01*
X1824736Y4370679D01*
X1825040Y4369612D01*
X1826971Y4368546D01*
X1830679Y4367377D01*
X1835404Y4366310D01*
X1840484Y4365599D01*
X1845665Y4365193D01*
X1850796Y4365142D01*
X1855774Y4365345D01*
X1860448Y4365853D01*
X1864614Y4366666D01*
X1868170Y4367834D01*
X1870506Y4369054D01*
X1871167Y4370222D01*
X1870303Y4371238D01*
X1868017Y4372102D01*
X1864360Y4372762D01*
X1859381Y4373270D01*
X1853285Y4373575D01*
G37*
G36*
X1678787Y4061917D02*
G01*
X1674977Y4061815D01*
X1654200Y4059021D01*
X1627327Y4054703D01*
X1621129Y4053535D01*
X1603349Y4049420D01*
X1580032Y4043527D01*
X1553108Y4036314D01*
X1524508Y4028338D01*
X1499717Y4021023D01*
X1488490Y4017467D01*
X1458264Y4007154D01*
X1432864Y3997807D01*
X1407363Y3988003D01*
X1382928Y3978046D01*
X1350264Y3963670D01*
X1340002Y3958742D01*
X1328623Y3952951D01*
X1316786Y3946601D01*
X1292606Y3932783D01*
X1274572Y3921760D01*
X1251661Y3906824D01*
X1231290Y3892448D01*
X1222451Y3885641D01*
X1214729Y3879291D01*
X1204061Y3869740D01*
X1193647Y3859631D01*
X1183741Y3849319D01*
X1174648Y3839006D01*
X1166622Y3829100D01*
X1159865Y3819855D01*
X1154633Y3811574D01*
X1152702Y3807866D01*
X1151280Y3804564D01*
X1149096Y3797858D01*
X1147419Y3790442D01*
X1146149Y3782568D01*
X1145336Y3774440D01*
X1145032Y3766312D01*
X1145235Y3758437D01*
X1145997Y3751072D01*
X1147267Y3744468D01*
X1154734Y3714699D01*
X1294282Y3785057D01*
X1315364Y3795166D01*
X1343761Y3808272D01*
X1373682Y3821531D01*
X1398219Y3832098D01*
X1434998Y3847388D01*
X1464868Y3859276D01*
X1487678Y3868013D01*
X1509115Y3875938D01*
X1528775Y3882745D01*
X1558645Y3892550D01*
X1588973Y3901948D01*
X1618640Y3910736D01*
X1646580Y3918508D01*
X1671675Y3925011D01*
X1692808Y3929938D01*
X1708861Y3932986D01*
X1720138Y3934866D01*
X1730603Y3936949D01*
X1740103Y3939235D01*
X1748383Y3941622D01*
X1755241Y3944010D01*
X1760372Y3946347D01*
X1763674Y3948531D01*
X1764792Y3950563D01*
X1764538Y3953256D01*
X1762455Y3962501D01*
X1758696Y3975709D01*
X1750974Y3999433D01*
X1748891Y4004868D01*
X1746504Y4010355D01*
X1740916Y4021074D01*
X1734515Y4030979D01*
X1731162Y4035551D01*
X1727707Y4039717D01*
X1724253Y4043426D01*
X1720850Y4046626D01*
X1717548Y4049268D01*
X1714296Y4051300D01*
X1709369Y4053687D01*
X1704136Y4055922D01*
X1698752Y4057802D01*
X1693316Y4059428D01*
X1688084Y4060698D01*
X1683207Y4061510D01*
G37*
G36*
X14833Y3848303D02*
G01*
X-16459Y3848049D01*
X29108Y3836619D01*
X46278Y3833164D01*
X54864Y3831691D01*
X70866Y3829608D01*
X77774Y3828999D01*
X83566Y3828745D01*
X108559Y3828491D01*
X72796Y3839870D01*
X62687Y3842410D01*
X51714Y3844594D01*
X40386Y3846372D01*
X29413Y3847592D01*
X19304Y3848252D01*
G37*
G36*
X276504Y3801008D02*
G01*
X274675Y3800246D01*
X273507Y3798062D01*
X272948Y3794607D01*
X272999Y3789984D01*
X273659Y3784447D01*
X274929Y3778046D01*
X276758Y3771036D01*
X279196Y3763518D01*
X282092Y3755796D01*
X285343Y3748278D01*
X288798Y3741115D01*
X292354Y3734562D01*
X295960Y3728770D01*
X299415Y3723894D01*
X302717Y3720134D01*
X305663Y3717696D01*
X310896Y3715613D01*
X313232Y3717493D01*
X312674Y3723436D01*
X309270Y3733342D01*
X304952Y3744366D01*
X300482Y3756660D01*
X296418Y3768750D01*
X293166Y3779164D01*
X289915Y3787648D01*
X285699Y3794607D01*
X281025Y3799281D01*
G37*
G36*
X435660Y3638499D02*
G01*
X433374Y3637889D01*
X430225Y3636060D01*
X426720Y3633419D01*
X423164Y3630168D01*
X422554Y3629304D01*
X421487Y3625697D01*
X420471Y3619804D01*
X418693Y3601770D01*
X417322Y3576777D01*
X416356Y3546144D01*
X415950Y3511296D01*
X416153Y3475177D01*
X417068Y3434892D01*
X418287Y3404311D01*
X419862Y3376269D01*
X421741Y3351885D01*
X423875Y3332124D01*
X426110Y3318103D01*
X427939Y3311753D01*
X428599Y3310585D01*
X429209Y3309975D01*
X429818Y3309975D01*
X430377Y3310483D01*
X430987Y3311550D01*
X432054Y3315309D01*
X433120Y3321202D01*
X434949Y3339084D01*
X436422Y3364788D01*
X437591Y3397859D01*
X438353Y3437890D01*
X438759Y3520287D01*
X438200Y3586175D01*
X437692Y3610711D01*
X436981Y3628085D01*
X436118Y3637330D01*
G37*
G36*
X4027322Y3501034D02*
G01*
X4022445Y3500272D01*
X4018534Y3498291D01*
X4015892Y3495294D01*
X4014978Y3491636D01*
X4016044Y3486505D01*
X4018686Y3479495D01*
X4022598Y3471519D01*
X4027322Y3463544D01*
X4039412Y3444798D01*
X4039615Y3472891D01*
X4038701Y3483813D01*
X4036060Y3492754D01*
X4032148Y3498799D01*
G37*
G36*
X432003Y3273704D02*
G01*
X429818Y3270910D01*
X428498Y3264915D01*
X428294Y3256229D01*
X429158Y3247491D01*
X430784Y3243275D01*
X433070Y3243630D01*
X435864Y3248660D01*
X437794Y3255670D01*
X438251Y3262477D01*
X437286Y3268421D01*
X434848Y3272637D01*
G37*
G36*
X4489805Y3235604D02*
G01*
X4474514Y3235198D01*
X4469130Y3234639D01*
X4465320Y3233928D01*
X4463237Y3233115D01*
X4462881Y3232150D01*
X4464405Y3231032D01*
X4467910Y3229914D01*
X4472787Y3228898D01*
X4478121Y3228136D01*
X4483862Y3227679D01*
X4489805Y3227527D01*
X4495698Y3227679D01*
X4501438Y3228136D01*
X4506823Y3228898D01*
X4511649Y3229914D01*
X4515154Y3231032D01*
X4516729Y3232150D01*
X4516374Y3233115D01*
X4514291Y3233928D01*
X4510481Y3234639D01*
X4505045Y3235198D01*
G37*
G36*
X4584852Y3225241D02*
G01*
X4563668Y3224885D01*
X4548479Y3223869D01*
X4543653Y3223209D01*
X4541062Y3222396D01*
X4540859Y3221532D01*
X4542282Y3220872D01*
X4545126Y3220059D01*
X4554575Y3218281D01*
X4568393Y3216249D01*
X4585665Y3214065D01*
X4605578Y3211880D01*
X4627321Y3209848D01*
X4650028Y3208070D01*
X4667656Y3207308D01*
X4674565Y3207258D01*
X4680102Y3207461D01*
X4684268Y3207918D01*
X4687011Y3208578D01*
X4688382Y3209442D01*
X4688230Y3210560D01*
X4686655Y3211880D01*
X4683556Y3213455D01*
X4679594Y3214928D01*
X4674717Y3216351D01*
X4662525Y3219043D01*
X4647844Y3221329D01*
X4631486Y3223209D01*
X4614265Y3224530D01*
X4597095Y3225139D01*
G37*
G36*
X3805275Y3134156D02*
G01*
X3772865Y3133801D01*
X3750462Y3132988D01*
X3743350Y3132480D01*
X3739083Y3131870D01*
X3738118Y3131566D01*
X3737914Y3131210D01*
X3738524Y3130854D01*
X3742131Y3130143D01*
X3802278Y3124606D01*
X3803294Y2983992D01*
X3803954Y2948736D01*
X3805174Y2913583D01*
X3806444Y2886506D01*
X3808018Y2861259D01*
X3809746Y2838602D01*
X3811625Y2819247D01*
X3813657Y2804058D01*
X3815892Y2792476D01*
X3816959Y2788564D01*
X3817924Y2786227D01*
X3818432Y2785567D01*
X3818890Y2785364D01*
X3819296Y2785516D01*
X3820109Y2786989D01*
X3820871Y2790037D01*
X3821582Y2794660D01*
X3822852Y2808884D01*
X3823817Y2829814D01*
X3824630Y2857601D01*
X3825290Y2892501D01*
X3827322Y3124606D01*
X3884371Y3129737D01*
X3891076Y3130854D01*
X3891686Y3131210D01*
X3891483Y3131566D01*
X3888740Y3132175D01*
X3883050Y3132734D01*
X3874515Y3133242D01*
X3849522Y3133902D01*
G37*
G36*
X3657498Y3125012D02*
G01*
X3648760Y3124149D01*
X3644544Y3122523D01*
X3644900Y3120288D01*
X3649979Y3117494D01*
X3656939Y3115513D01*
X3663746Y3115056D01*
X3669690Y3116072D01*
X3673906Y3118459D01*
X3674973Y3121304D01*
X3672230Y3123539D01*
X3666236Y3124809D01*
G37*
G36*
X4002278Y3123133D02*
G01*
X3993946Y3123031D01*
X3987037Y3122676D01*
X3981653Y3122168D01*
X3977843Y3121456D01*
X3975709Y3120593D01*
X3975404Y3119628D01*
X3976928Y3118561D01*
X3980434Y3117392D01*
X3985260Y3116376D01*
X3990644Y3115614D01*
X3996385Y3115208D01*
X4002278Y3115056D01*
X4008221Y3115208D01*
X4013962Y3115614D01*
X4019346Y3116376D01*
X4024172Y3117392D01*
X4027678Y3118561D01*
X4029201Y3119628D01*
X4028897Y3120593D01*
X4026763Y3121456D01*
X4022953Y3122168D01*
X4017568Y3122676D01*
X4010660Y3123031D01*
G37*
G36*
X4516882Y2838500D02*
G01*
X4512157Y2837891D01*
X4507077Y2836062D01*
X4502200Y2833420D01*
X4498136Y2830169D01*
X4494885Y2826156D01*
X4492244Y2821228D01*
X4490466Y2816148D01*
X4489805Y2811424D01*
X4491278Y2807411D01*
X4495292Y2804109D01*
X4501286Y2801823D01*
X4508550Y2801010D01*
X4515815Y2802483D01*
X4521809Y2806547D01*
X4525822Y2812491D01*
X4527296Y2819755D01*
X4526483Y2827070D01*
X4524248Y2833014D01*
X4520946Y2837027D01*
G37*
G36*
X2758541Y2814523D02*
G01*
X2712872Y2791002D01*
X2703169Y2784957D01*
X2692603Y2777439D01*
X2681528Y2768803D01*
X2670251Y2759303D01*
X2659126Y2749194D01*
X2648458Y2738831D01*
X2638653Y2728468D01*
X2628442Y2716530D01*
X2617419Y2702560D01*
X2607360Y2688640D01*
X2598674Y2675585D01*
X2591866Y2664053D01*
X2589326Y2659075D01*
X2587447Y2654757D01*
X2586228Y2651150D01*
X2584500Y2641092D01*
X2585770Y2635046D01*
X2590088Y2632913D01*
X2600604Y2635250D01*
X2603703Y2634996D01*
X2606852Y2633827D01*
X2610154Y2631643D01*
X2613558Y2628544D01*
X2617063Y2624480D01*
X2620670Y2619451D01*
X2624429Y2613456D01*
X2628290Y2606497D01*
X2632252Y2598521D01*
X2636418Y2589530D01*
X2666339Y2517902D01*
X2796032Y2439466D01*
X2998825Y2422702D01*
X3023412Y2472232D01*
X3030270Y2487168D01*
X3034995Y2498801D01*
X3036366Y2502865D01*
X3036925Y2505608D01*
X3036722Y2506776D01*
X3030270Y2511704D01*
X2993339Y2541422D01*
X2967431Y2562606D01*
X2956458Y2571851D01*
X2945536Y2581605D01*
X2934868Y2591765D01*
X2924556Y2602026D01*
X2914802Y2612237D01*
X2905861Y2622194D01*
X2897835Y2631694D01*
X2890926Y2640533D01*
X2885338Y2648559D01*
X2876448Y2664053D01*
X2870555Y2673299D01*
X2863850Y2683002D01*
X2856484Y2692857D01*
X2848762Y2702560D01*
X2840837Y2711805D01*
X2832963Y2720340D01*
X2819654Y2733344D01*
X2814574Y2738678D01*
X2810154Y2743860D01*
X2806293Y2748838D01*
X2803093Y2753614D01*
X2800502Y2758236D01*
X2798572Y2762707D01*
X2797200Y2766974D01*
X2796489Y2771140D01*
X2796336Y2775102D01*
X2796844Y2778963D01*
X2797911Y2782671D01*
X2806192Y2804160D01*
X2881020Y2797302D01*
X2890316Y2796032D01*
X2900578Y2794304D01*
X2911602Y2792171D01*
X2935427Y2786634D01*
X2948025Y2783382D01*
X2973882Y2775966D01*
X2999790Y2767685D01*
X3024733Y2758744D01*
X3046679Y2749956D01*
X3065932Y2741320D01*
X3087116Y2731160D01*
X3109772Y2719781D01*
X3127349Y2710586D01*
X3162960Y2691130D01*
X3180537Y2681122D01*
X3208629Y2664460D01*
X3229406Y2651506D01*
X3280257Y2618689D01*
X3305606Y2602890D01*
X3327857Y2589428D01*
X3345891Y2579065D01*
X3358387Y2572562D01*
X3362198Y2570937D01*
X3365754Y2570073D01*
X3367684Y2570429D01*
X3367989Y2571902D01*
X3366770Y2574442D01*
X3364128Y2577896D01*
X3360013Y2582265D01*
X3354578Y2587396D01*
X3345179Y2595372D01*
X3330651Y2606192D01*
X3310991Y2619806D01*
X3287420Y2635453D01*
X3261258Y2652217D01*
X3233877Y2669235D01*
X3202838Y2687777D01*
X3180486Y2700477D01*
X3150870Y2716733D01*
X3114649Y2735681D01*
X3091281Y2747416D01*
X3069285Y2757982D01*
X3049524Y2767076D01*
X3030677Y2775000D01*
X3018942Y2779522D01*
X3007207Y2783687D01*
X2995472Y2787548D01*
X2983636Y2791053D01*
X2971647Y2794203D01*
X2959506Y2797098D01*
X2947162Y2799638D01*
X2934512Y2801924D01*
X2921609Y2803956D01*
X2908350Y2805684D01*
X2880614Y2808325D01*
X2866034Y2809290D01*
G37*
G36*
X4395317Y2751023D02*
G01*
X4393184Y2750058D01*
X4391406Y2747365D01*
X4390237Y2743403D01*
X4389780Y2738526D01*
X4390847Y2733649D01*
X4393692Y2729687D01*
X4397908Y2726994D01*
X4403039Y2726029D01*
X4407560Y2726994D01*
X4410100Y2729687D01*
X4410506Y2733649D01*
X4408525Y2738526D01*
X4405122Y2743403D01*
X4401464Y2747365D01*
X4398060Y2750058D01*
G37*
G36*
X4512411Y2750820D02*
G01*
X4504588Y2749804D01*
X4495342Y2747162D01*
X4485894Y2743250D01*
X4477308Y2738526D01*
X4458563Y2726385D01*
X4485944Y2726232D01*
X4491583Y2726436D01*
X4497171Y2727147D01*
X4502556Y2728264D01*
X4507534Y2729738D01*
X4512056Y2731566D01*
X4515866Y2733700D01*
X4518914Y2736037D01*
X4521047Y2738526D01*
X4522774Y2743352D01*
X4521708Y2747314D01*
X4518152Y2749905D01*
G37*
G36*
X3534460Y2631084D02*
G01*
X3534105Y2630373D01*
X3534206Y2628747D01*
X3535426Y2623616D01*
X3537559Y2617368D01*
X3544671Y2599588D01*
X3555136Y2576017D01*
X3568192Y2548178D01*
X3583178Y2517444D01*
X3599484Y2485237D01*
X3618280Y2448864D01*
X3635349Y2414778D01*
X3648913Y2386634D01*
X3657904Y2366568D01*
X3660394Y2360168D01*
X3661359Y2356561D01*
X3661308Y2355850D01*
X3660648Y2355799D01*
X3657498Y2357323D01*
X3652012Y2360828D01*
X3634841Y2373122D01*
X3610914Y2391359D01*
X3582009Y2414219D01*
X3522370Y2462631D01*
X3471519Y2503017D01*
X3435756Y2530602D01*
X3423412Y2539644D01*
X3383534Y2567482D01*
X3438601Y2515565D01*
X3451301Y2503982D01*
X3462883Y2493873D01*
X3472840Y2485593D01*
X3480562Y2479649D01*
X3485591Y2476449D01*
X3487928Y2475738D01*
X3491941Y2473350D01*
X3498291Y2468829D01*
X3516934Y2454351D01*
X3541420Y2434234D01*
X3669334Y2324862D01*
X3713886Y2287422D01*
X3678682Y2367330D01*
X3671773Y2382215D01*
X3664762Y2396642D01*
X3657803Y2410256D01*
X3651148Y2422702D01*
X3644950Y2433574D01*
X3639464Y2442514D01*
X3634841Y2449169D01*
X3631387Y2453386D01*
X3627526Y2458821D01*
X3622751Y2466289D01*
X3611067Y2486507D01*
X3597300Y2512060D01*
X3582517Y2541066D01*
X3562654Y2582113D01*
X3554831Y2597759D01*
X3547973Y2610713D01*
X3542385Y2620670D01*
X3538067Y2627477D01*
X3536492Y2629611D01*
X3535273Y2630779D01*
G37*
G36*
X4460392Y2618130D02*
G01*
X4447895Y2617876D01*
X4435652Y2616962D01*
X4424426Y2615336D01*
X4419346Y2614269D01*
X4414774Y2613050D01*
X4383532Y2603500D01*
X4467453Y2602128D01*
X4485792Y2602128D01*
X4501540Y2602433D01*
X4513986Y2603042D01*
X4522419Y2603855D01*
X4524959Y2604363D01*
X4526280Y2604871D01*
X4526280Y2605481D01*
X4524451Y2606497D01*
X4521250Y2607716D01*
X4511548Y2610459D01*
X4498543Y2613456D01*
X4483557Y2616250D01*
X4472482Y2617571D01*
G37*
G36*
X2571546Y2609850D02*
G01*
X2569768Y2608478D01*
X2567482Y2605735D01*
X2564841Y2601722D01*
X2558846Y2590546D01*
X2552293Y2576017D01*
X2549245Y2568194D01*
X2546654Y2560624D01*
X2544572Y2553512D01*
X2542997Y2547061D01*
X2542032Y2541422D01*
X2541676Y2536799D01*
X2541930Y2533345D01*
X2542946Y2531262D01*
X2544521Y2530754D01*
X2546553Y2531872D01*
X2548940Y2534513D01*
X2551633Y2538476D01*
X2554478Y2543606D01*
X2557475Y2549855D01*
X2560472Y2556967D01*
X2563418Y2564892D01*
X2568498Y2580894D01*
X2571953Y2594660D01*
X2572969Y2600248D01*
X2573477Y2604719D01*
X2573426Y2607970D01*
X2572816Y2609697D01*
G37*
G36*
X2405634Y2571648D02*
G01*
X2404618Y2571546D01*
X2404262Y2569768D01*
X2404618Y2566365D01*
X2405583Y2561488D01*
X2407107Y2555290D01*
X2411679Y2540101D01*
X2417673Y2522575D01*
X2424430Y2505100D01*
X2427630Y2498039D01*
X2430526Y2492298D01*
X2433066Y2488133D01*
X2435199Y2485542D01*
X2436825Y2484678D01*
X2437841Y2485644D01*
X2438298Y2488539D01*
X2437993Y2493060D01*
X2437079Y2498750D01*
X2435555Y2505405D01*
X2433523Y2512771D01*
X2431034Y2520645D01*
X2428138Y2528722D01*
X2424938Y2536850D01*
X2421483Y2544775D01*
X2414828Y2558338D01*
X2411933Y2563571D01*
X2409342Y2567584D01*
X2407259Y2570327D01*
G37*
G36*
X2532024Y2511196D02*
G01*
X2529789Y2508453D01*
X2528519Y2502458D01*
X2528265Y2493721D01*
X2529179Y2484983D01*
X2530805Y2480767D01*
X2533040Y2481122D01*
X2535834Y2486202D01*
X2537815Y2493162D01*
X2538272Y2499969D01*
X2537256Y2505913D01*
X2534869Y2510129D01*
G37*
G36*
X2444496Y2461158D02*
G01*
X2442311Y2458415D01*
X2440990Y2452420D01*
X2440787Y2443734D01*
X2441651Y2434996D01*
X2443276Y2430780D01*
X2445562Y2431084D01*
X2448356Y2436164D01*
X2450287Y2443124D01*
X2450744Y2449982D01*
X2449779Y2455926D01*
X2447340Y2460142D01*
G37*
G36*
X2520645Y2457754D02*
G01*
X2518613Y2456027D01*
X2517292Y2449423D01*
X2516784Y2438501D01*
X2517292Y2427630D01*
X2518613Y2421026D01*
X2520645Y2419299D01*
X2523083Y2422906D01*
X2525014Y2430221D01*
X2525674Y2438501D01*
X2525014Y2446832D01*
X2523083Y2454148D01*
G37*
G36*
X4492904Y2438349D02*
G01*
X4488078Y2437485D01*
X4481880Y2435402D01*
X4475124Y2432354D01*
X4468571Y2428646D01*
X4462830Y2423312D01*
X4460341Y2416860D01*
X4461154Y2409291D01*
X4466082Y2399131D01*
X4467606Y2394102D01*
X4469079Y2386888D01*
X4470501Y2377541D01*
X4471822Y2366314D01*
X4474057Y2338984D01*
X4475022Y2323287D01*
X4476394Y2288743D01*
X4476851Y2270252D01*
X4477359Y2211120D01*
X4478375Y2175306D01*
X4480102Y2145690D01*
X4481220Y2133447D01*
X4482490Y2123033D01*
X4483862Y2114499D01*
X4485436Y2107996D01*
X4487062Y2103577D01*
X4487976Y2102154D01*
X4488840Y2101291D01*
X4489805Y2101037D01*
X4490618Y2101291D01*
X4491431Y2102002D01*
X4492904Y2104898D01*
X4494326Y2109673D01*
X4495647Y2116277D01*
X4496866Y2124608D01*
X4498949Y2146350D01*
X4500575Y2174443D01*
X4501642Y2208530D01*
X4502200Y2248052D01*
X4502302Y2279650D01*
X4501896Y2317546D01*
X4501083Y2352040D01*
X4499914Y2382164D01*
X4498390Y2406853D01*
X4496562Y2425090D01*
X4495596Y2431440D01*
X4494022Y2437231D01*
X4493463Y2438044D01*
G37*
G36*
X3519982Y2412542D02*
G01*
X3511296Y2411679D01*
X3507028Y2410053D01*
X3507384Y2407767D01*
X3512464Y2404973D01*
X3519424Y2403043D01*
X3526282Y2402586D01*
X3532174Y2403551D01*
X3536391Y2405989D01*
X3537458Y2408834D01*
X3534714Y2411018D01*
X3528720Y2412339D01*
G37*
G36*
X2456992Y2398674D02*
G01*
X2454808Y2395931D01*
X2453487Y2389936D01*
X2453284Y2381250D01*
X2454148Y2372512D01*
X2455773Y2368245D01*
X2458059Y2368600D01*
X2460853Y2373680D01*
X2462784Y2380640D01*
X2463241Y2387498D01*
X2462276Y2393391D01*
X2459837Y2397658D01*
G37*
G36*
X4252874Y2338527D02*
G01*
X4251401Y2338019D01*
X4249115Y2336596D01*
X4242308Y2331262D01*
X4232910Y2322931D01*
X4221480Y2312162D01*
X4208678Y2299462D01*
X4194962Y2285390D01*
X4166171Y2255215D01*
X4202277Y2255215D01*
X4202480Y2261209D01*
X4202938Y2267153D01*
X4203750Y2272893D01*
X4204766Y2278227D01*
X4205986Y2283053D01*
X4207408Y2287168D01*
X4208983Y2290419D01*
X4210608Y2292705D01*
X4214520Y2295906D01*
X4218940Y2298598D01*
X4223359Y2300376D01*
X4227220Y2301036D01*
X4228744Y2300274D01*
X4229963Y2298090D01*
X4230878Y2294585D01*
X4231436Y2290013D01*
X4231640Y2284476D01*
X4231436Y2278075D01*
X4230878Y2271064D01*
X4229963Y2263546D01*
X4228642Y2255977D01*
X4226966Y2248966D01*
X4224985Y2242616D01*
X4222800Y2237028D01*
X4220514Y2232456D01*
X4218127Y2229002D01*
X4215739Y2226767D01*
X4213402Y2226005D01*
X4209084Y2228342D01*
X4205528Y2234590D01*
X4203192Y2243886D01*
X4202277Y2255215D01*
X4166171Y2255215D01*
X4144264Y2232253D01*
X4158742Y2183079D01*
X4160367Y2176221D01*
X4161586Y2169820D01*
X4162399Y2163775D01*
X4162856Y2158034D01*
X4162856Y2152650D01*
X4162450Y2147468D01*
X4161637Y2142591D01*
X4160469Y2137867D01*
X4158843Y2133346D01*
X4156811Y2128977D01*
X4148886Y2114600D01*
X4146753Y2107133D01*
X4147972Y2102561D01*
X4152595Y2101037D01*
X4158284Y2102764D01*
X4164228Y2107438D01*
X4169664Y2114397D01*
X4176166Y2127758D01*
X4179417Y2133193D01*
X4183481Y2139035D01*
X4188256Y2145030D01*
X4193540Y2151075D01*
X4199178Y2156968D01*
X4205071Y2162556D01*
X4216806Y2172512D01*
X4222191Y2177796D01*
X4227068Y2183333D01*
X4231335Y2188870D01*
X4234840Y2194306D01*
X4237532Y2199436D01*
X4239209Y2204110D01*
X4240580Y2215134D01*
X4242663Y2220772D01*
X4245813Y2224633D01*
X4252061Y2226818D01*
X4255262Y2229154D01*
X4259072Y2232761D01*
X4263390Y2237587D01*
X4268012Y2243429D01*
X4272889Y2250135D01*
X4277817Y2257552D01*
X4282694Y2265476D01*
X4306011Y2304897D01*
X4282998Y2321712D01*
X4273499Y2328265D01*
X4264660Y2333599D01*
X4257446Y2337206D01*
G37*
G36*
X4676597Y2316734D02*
G01*
X4666792Y2315718D01*
X4655413Y2312416D01*
X4649774Y2310028D01*
X4644491Y2307285D01*
X4639716Y2304288D01*
X4635550Y2301138D01*
X4632096Y2297887D01*
X4629505Y2294686D01*
X4627880Y2291638D01*
X4627321Y2288794D01*
X4627626Y2286711D01*
X4628642Y2283968D01*
X4629942Y2281326D01*
X4653737Y2281326D01*
X4655413Y2285390D01*
X4659477Y2287117D01*
X4665573Y2286203D01*
X4672380Y2282748D01*
X4678781Y2277516D01*
X4684014Y2271115D01*
X4687468Y2264308D01*
X4688382Y2258212D01*
X4686655Y2254148D01*
X4682642Y2252421D01*
X4676495Y2253386D01*
X4669739Y2256790D01*
X4663338Y2262073D01*
X4658055Y2268423D01*
X4654651Y2275230D01*
X4653737Y2281326D01*
X4629942Y2281326D01*
X4632452Y2276906D01*
X4638294Y2268118D01*
X4645914Y2258110D01*
X4651758Y2251049D01*
X4702302Y2251049D01*
X4703267Y2255875D01*
X4705959Y2259838D01*
X4709922Y2262530D01*
X4714798Y2263546D01*
X4719675Y2262530D01*
X4723638Y2259838D01*
X4726330Y2255875D01*
X4727295Y2251049D01*
X4726330Y2246172D01*
X4723638Y2242210D01*
X4719675Y2239518D01*
X4714798Y2238502D01*
X4709922Y2239518D01*
X4705959Y2242210D01*
X4703267Y2246172D01*
X4702302Y2251049D01*
X4651758Y2251049D01*
X4659731Y2242007D01*
X4672330Y2228494D01*
X4685741Y2213102D01*
X4691278Y2206142D01*
X4695850Y2199995D01*
X4699355Y2194814D01*
X4701540Y2190800D01*
X4702393Y2187803D01*
X4714798Y2187803D01*
X4715764Y2192934D01*
X4718456Y2197150D01*
X4722469Y2199995D01*
X4727295Y2201011D01*
X4732172Y2200605D01*
X4736134Y2199386D01*
X4738827Y2197658D01*
X4739792Y2195525D01*
X4738827Y2192782D01*
X4736134Y2189327D01*
X4732172Y2185720D01*
X4727295Y2182266D01*
X4722469Y2180336D01*
X4718456Y2180691D01*
X4715764Y2183282D01*
X4714798Y2187803D01*
X4702393Y2187803D01*
X4702708Y2186584D01*
X4703927Y2184450D01*
X4705908Y2181809D01*
X4711954Y2175205D01*
X4715978Y2171192D01*
X4744669Y2171192D01*
X4746040Y2176018D01*
X4749444Y2180894D01*
X4752898Y2184857D01*
X4756099Y2187549D01*
X4758537Y2188514D01*
X4761026Y2187549D01*
X4764176Y2184857D01*
X4767681Y2180894D01*
X4771034Y2176018D01*
X4772456Y2171192D01*
X4770577Y2167178D01*
X4769291Y2166467D01*
X4791913Y2166467D01*
X4793183Y2171446D01*
X4796383Y2174798D01*
X4801260Y2176018D01*
X4806492Y2175103D01*
X4810810Y2172614D01*
X4813706Y2168956D01*
X4814824Y2164435D01*
X4816500Y2159457D01*
X4821224Y2154377D01*
X4828184Y2149906D01*
X4836668Y2146503D01*
X4843475Y2144064D01*
X4844237Y2142540D01*
X4839106Y2141982D01*
X4828286Y2142490D01*
X4822088Y2143252D01*
X4816094Y2144572D01*
X4810506Y2146452D01*
X4805375Y2148687D01*
X4800904Y2151278D01*
X4797247Y2154174D01*
X4794504Y2157222D01*
X4792878Y2160422D01*
X4791913Y2166467D01*
X4769291Y2166467D01*
X4765802Y2164537D01*
X4758537Y2163521D01*
X4751324Y2164537D01*
X4746548Y2167178D01*
X4744669Y2171192D01*
X4715978Y2171192D01*
X4725162Y2162810D01*
X4736185Y2153462D01*
X4748377Y2143861D01*
X4794453Y2108708D01*
X4931562Y2102967D01*
X4895037Y2132787D01*
X4887417Y2138781D01*
X4879644Y2144420D01*
X4871974Y2149500D01*
X4864608Y2153970D01*
X4857800Y2157730D01*
X4851704Y2160524D01*
X4846574Y2162352D01*
X4839157Y2163775D01*
X4835398Y2165654D01*
X4831384Y2168601D01*
X4827320Y2172462D01*
X4823307Y2177034D01*
X4819446Y2182317D01*
X4815890Y2188108D01*
X4809083Y2201316D01*
X4805070Y2207361D01*
X4800600Y2212441D01*
X4795774Y2216505D01*
X4790592Y2219553D01*
X4785055Y2221585D01*
X4779264Y2222550D01*
X4773168Y2222449D01*
X4747666Y2219756D01*
X4735677Y2260396D01*
X4732934Y2268575D01*
X4729784Y2276195D01*
X4726279Y2283053D01*
X4722520Y2289098D01*
X4718710Y2294077D01*
X4714900Y2297836D01*
X4711242Y2300173D01*
X4707788Y2301036D01*
X4701286Y2301900D01*
X4695342Y2304237D01*
X4690567Y2307742D01*
X4687722Y2312009D01*
X4683912Y2315514D01*
G37*
G36*
X-10210Y2215337D02*
G01*
X-10109Y2169210D01*
X-9652Y2155393D01*
X-8788Y2144826D01*
X-8280Y2141118D01*
X-7670Y2138781D01*
X-7061Y2137816D01*
X106578Y2132787D01*
X380238Y2121306D01*
X487476Y2117140D01*
X598932Y2113788D01*
X700989Y2111349D01*
X811428Y2109165D01*
X976172Y2106676D01*
X1101140Y2105202D01*
X1295247Y2103729D01*
X1449171Y2103120D01*
X1667357Y2103120D01*
X1840687Y2103526D01*
X2099970Y2104745D01*
X2198624Y2105507D01*
X2271776Y2106320D01*
X2315768Y2107184D01*
X2325674Y2107641D01*
X2327452Y2107895D01*
X2326640Y2108200D01*
X2312416Y2109470D01*
X2283358Y2111248D01*
X2188362Y2115972D01*
X2047392Y2122119D01*
X1837842Y2130450D01*
X1606651Y2140204D01*
X1225499Y2157120D01*
X942340Y2170176D01*
X800658Y2176475D01*
X623519Y2184044D01*
X487578Y2189530D01*
X406857Y2192578D01*
X328422Y2195220D01*
X241960Y2198420D01*
X183388Y2200960D01*
X131673Y2203500D01*
X89763Y2205888D01*
X60452Y2208022D01*
G37*
G36*
X4117086Y2188514D02*
G01*
X4114647Y2187651D01*
X4111498Y2185060D01*
X4107840Y2181047D01*
X4103827Y2175713D01*
X4099509Y2169261D01*
X4095038Y2161844D01*
X4090517Y2153716D01*
X4086148Y2144928D01*
X4065371Y2101342D01*
X4121048Y2105964D01*
X4124147Y2147265D01*
X4124604Y2155545D01*
X4124553Y2163267D01*
X4124147Y2170277D01*
X4123385Y2176424D01*
X4122267Y2181453D01*
X4120794Y2185263D01*
X4119067Y2187702D01*
G37*
G36*
X3992930Y2150821D02*
G01*
X3986834Y2149856D01*
X3981907Y2147062D01*
X3978554Y2142896D01*
X3977284Y2137765D01*
X3976420Y2133193D01*
X3974033Y2130450D01*
X3970477Y2129840D01*
X3966108Y2131466D01*
X3961180Y2132685D01*
X3956100Y2130856D01*
X3951427Y2126386D01*
X3947769Y2119680D01*
X3940606Y2101037D01*
X3974592Y2101240D01*
X3981754Y2101494D01*
X3989222Y2102256D01*
X3996740Y2103424D01*
X4004056Y2104948D01*
X4011015Y2106828D01*
X4017314Y2108911D01*
X4022851Y2111248D01*
X4027322Y2113737D01*
X4046067Y2126030D01*
X4027322Y2138324D01*
X4018787Y2143150D01*
X4009491Y2147062D01*
X4000449Y2149805D01*
G37*
G36*
X4356381Y1936150D02*
G01*
X4353333Y1937166D01*
X4350793Y1939198D01*
X4350765Y1939036D01*
X4243324Y2046731D01*
X4243313Y2046678D01*
X4241281Y2049218D01*
X4240265Y2052266D01*
X4240265Y2055314D01*
X4241281Y2058362D01*
X4243313Y2060902D01*
X4243324Y2060955D01*
X4350765Y2168397D01*
X4350793Y2168380D01*
X4353333Y2170412D01*
X4356381Y2171428D01*
X4359429Y2171428D01*
X4362477Y2170412D01*
X4365017Y2168380D01*
X4364990Y2168397D01*
X4472686Y2060955D01*
X4472495Y2060902D01*
X4474527Y2058362D01*
X4475543Y2055314D01*
X4475543Y2052266D01*
X4474527Y2049218D01*
X4472495Y2046678D01*
X4472686Y2046731D01*
X4364990Y1939036D01*
X4365017Y1939198D01*
X4362477Y1937166D01*
X4359429Y1936150D01*
G37*
D10*
G01*
X4537506Y2233396D03*
G01*
X4178300Y2233396D03*
G01*
X4357903Y2413000D03*
G01*
X3998696Y2413000D03*
G01*
X4178300Y2592603D03*
G01*
X3998696Y2772206D03*
G01*
X3819093Y2592603D03*
D11*
G01*
X-2970885Y-2934614D03*
G01*
X-3150488Y-2755011D03*
D10*
G01*
X3813606Y3508806D03*
G01*
X3634003Y3329203D03*
G01*
X3454400Y3149600D03*
G01*
X3274796Y2969996D03*
G01*
X3095193Y2790393D03*
D12*
G01*
X2601696Y3604996D03*
G01*
X2960903Y3964203D03*
G01*
X2781300Y3784600D03*
D13*
G01*
X-4168394Y3591483D03*
G01*
X-3988790Y3771087D03*
G01*
X-3809187Y3950690D03*
G01*
X-3629405Y4130116D03*
G36*
X1822528Y2360355D02*
G01*
X1819480Y2361371D01*
X1816940Y2363403D01*
X1816862Y2363215D01*
X1604771Y2575560D01*
X1604810Y2575534D01*
X1602778Y2578074D01*
X1601762Y2581122D01*
X1601762Y2584170D01*
X1602778Y2587218D01*
X1604810Y2589758D01*
X1604771Y2589784D01*
X1816862Y2801873D01*
X1816940Y2801889D01*
X1819480Y2803921D01*
X1822528Y2804937D01*
X1825576Y2804937D01*
X1828624Y2803921D01*
X1831164Y2801889D01*
X1831339Y2801873D01*
X2043429Y2589784D01*
X2043295Y2589758D01*
X2045327Y2587218D01*
X2046343Y2584170D01*
X2046343Y2581122D01*
X2045327Y2578074D01*
X2043295Y2575534D01*
X2043429Y2575560D01*
X1831339Y2363215D01*
X1831164Y2363403D01*
X1828624Y2361371D01*
X1825576Y2360355D01*
G37*
G36*
X2847822Y1335062D02*
G01*
X2844774Y1336078D01*
X2842234Y1338110D01*
X2842259Y1338071D01*
X2629915Y1550162D01*
X2630103Y1550240D01*
X2628071Y1552780D01*
X2627055Y1555828D01*
X2627055Y1558876D01*
X2628071Y1561924D01*
X2630103Y1564464D01*
X2629915Y1564639D01*
X2842259Y1776729D01*
X2842234Y1776595D01*
X2844774Y1778627D01*
X2847822Y1779643D01*
X2850870Y1779643D01*
X2853918Y1778627D01*
X2856458Y1776595D01*
X2856484Y1776729D01*
X3068574Y1564639D01*
X3068589Y1564464D01*
X3070621Y1561924D01*
X3071637Y1558876D01*
X3071637Y1555828D01*
X3070621Y1552780D01*
X3068589Y1550240D01*
X3068574Y1550162D01*
X2856484Y1338071D01*
X2856458Y1338110D01*
X2853918Y1336078D01*
X2850870Y1335062D01*
G37*
G36*
X-1571594Y-3084355D02*
G01*
X-1574642Y-3083339D01*
X-1577182Y-3081307D01*
X-1577339Y-3081273D01*
X-1789429Y-2869184D01*
X-1789315Y-2869176D01*
X-1791347Y-2866636D01*
X-1792363Y-2863588D01*
X-1792363Y-2860540D01*
X-1791347Y-2857492D01*
X-1789315Y-2854952D01*
X-1789429Y-2854960D01*
X-1577339Y-2642870D01*
X-1577182Y-2642821D01*
X-1574642Y-2640789D01*
X-1571594Y-2639773D01*
X-1568546Y-2639773D01*
X-1565498Y-2640789D01*
X-1562958Y-2642821D01*
X-1562862Y-2642870D01*
X-1350771Y-2854960D01*
X-1350827Y-2854952D01*
X-1348795Y-2857492D01*
X-1347779Y-2860540D01*
X-1347779Y-2863588D01*
X-1348795Y-2866636D01*
X-1350827Y-2869176D01*
X-1350771Y-2869184D01*
X-1562862Y-3081273D01*
X-1562958Y-3081307D01*
X-1565498Y-3083339D01*
X-1568546Y-3084355D01*
G37*
G36*
X-2596888Y-2059063D02*
G01*
X-2599936Y-2058047D01*
X-2602476Y-2056015D01*
X-2602484Y-2056129D01*
X-2814573Y-1844039D01*
X-2814607Y-1843882D01*
X-2816639Y-1841342D01*
X-2817655Y-1838294D01*
X-2817655Y-1835246D01*
X-2816639Y-1832198D01*
X-2814607Y-1829658D01*
X-2814573Y-1829562D01*
X-2602484Y-1617471D01*
X-2602476Y-1617527D01*
X-2599936Y-1615495D01*
X-2596888Y-1614479D01*
X-2593840Y-1614479D01*
X-2590792Y-1615495D01*
X-2588260Y-1617471D01*
X-2376170Y-1829562D01*
X-2376121Y-1829658D01*
X-2374089Y-1832198D01*
X-2373073Y-1835246D01*
X-2373073Y-1838294D01*
X-2374089Y-1841342D01*
X-2376121Y-1843882D01*
X-2376170Y-1844039D01*
X-2588252Y-2056015D01*
X-2590792Y-2058047D01*
X-2593840Y-2059063D01*
G37*
D14*
G01*
X-3486124Y2165375D03*
G01*
X-3306521Y2344978D03*
G01*
X-3126917Y2524582D03*
G01*
X-2947288Y2704185D03*
G01*
X-2767685Y2883788D03*
G01*
X-2588082Y3063417D03*
G01*
X-2408478Y3243021D03*
G01*
X-2228875Y3422624D03*
G36*
X2243533Y-1294343D02*
G01*
X2240485Y-1293327D01*
X2237945Y-1291295D01*
X2237993Y-1291336D01*
X2121154Y-1174750D01*
X2121202Y-1174551D01*
X2119170Y-1172011D01*
X2118154Y-1168963D01*
X2118154Y-1165915D01*
X2119170Y-1162867D01*
X2121202Y-1160327D01*
X2121154Y-1160271D01*
X2237993Y-1043431D01*
X2237945Y-1043584D01*
X2240485Y-1041552D01*
X2243533Y-1040536D01*
X2246581Y-1040536D01*
X2249629Y-1041552D01*
X2252169Y-1043584D01*
X2252218Y-1043431D01*
X2369058Y-1160271D01*
X2368913Y-1160327D01*
X2370945Y-1162867D01*
X2371961Y-1165915D01*
X2371961Y-1168963D01*
X2370945Y-1172011D01*
X2368913Y-1174551D01*
X2369058Y-1174750D01*
X2252218Y-1291336D01*
X2252169Y-1291295D01*
X2249629Y-1293327D01*
X2246581Y-1294343D01*
G37*
D15*
G01*
X2065451Y-987831D03*
G01*
X1885848Y-808228D03*
G01*
X1706245Y-628624D03*
G01*
X1526641Y-449021D03*
G01*
X1347038Y-269417D03*
G01*
X1167434Y-89814D03*
G01*
X987831Y89788D03*
G01*
X808228Y269417D03*
G01*
X628624Y449021D03*
G01*
X449021Y628624D03*
G01*
X269417Y808228D03*
G01*
X89814Y987831D03*
G01*
X-89788Y1167434D03*
G01*
X-269417Y1347038D03*
G01*
X-449021Y1526641D03*
G01*
X-628624Y1706245D03*
G01*
X-808228Y1885848D03*
G01*
X-987831Y2065451D03*
G01*
X-1167434Y2245055D03*
G36*
X1159581Y-2367526D02*
G01*
X1156533Y-2366510D01*
X1153993Y-2364478D01*
X1153921Y-2364486D01*
X1037081Y-2247900D01*
X1037249Y-2247734D01*
X1035217Y-2245194D01*
X1034201Y-2242146D01*
X1034201Y-2239098D01*
X1035217Y-2236050D01*
X1037249Y-2233510D01*
X1037081Y-2233421D01*
X1153921Y-2116581D01*
X1153993Y-2116767D01*
X1156533Y-2114735D01*
X1159581Y-2113719D01*
X1162629Y-2113719D01*
X1165677Y-2114735D01*
X1168217Y-2116767D01*
X1168400Y-2116581D01*
X1284986Y-2233421D01*
X1284960Y-2233510D01*
X1286992Y-2236050D01*
X1288008Y-2239098D01*
X1288008Y-2242146D01*
X1286992Y-2245194D01*
X1284960Y-2247734D01*
X1284986Y-2247900D01*
X1168400Y-2364486D01*
X1168217Y-2364478D01*
X1165677Y-2366510D01*
X1162629Y-2367526D01*
G37*
G01*
X981481Y-2061032D03*
G01*
X801878Y-1881428D03*
G01*
X622274Y-1701825D03*
G01*
X442671Y-1522196D03*
G01*
X263067Y-1342593D03*
G01*
X83464Y-1162989D03*
G01*
X-96138Y-983386D03*
G01*
X-275742Y-803782D03*
G01*
X-455345Y-624179D03*
G01*
X-634949Y-444576D03*
G01*
X-814552Y-264972D03*
G01*
X-994155Y-85369D03*
G01*
X-1173759Y94234D03*
G01*
X-1353388Y273837D03*
G01*
X-1532991Y453440D03*
G01*
X-1712595Y633044D03*
G01*
X-1892198Y812647D03*
G01*
X-2071801Y992251D03*
G01*
X-2251405Y1171879D03*
D16*
G01*
X1778101Y-1275206D03*
G01*
X1616455Y-1436852D03*
G01*
X1436852Y-1616455D03*
G01*
X1275206Y-1778101D03*
G36*
X-3890571Y594789D02*
G01*
X-3892095Y595297D01*
X-3893365Y596313D01*
X-3893312Y596392D01*
X-4006595Y709421D01*
X-4006502Y709449D01*
X-4007518Y710719D01*
X-4008026Y712243D01*
X-4008026Y713767D01*
X-4007518Y715291D01*
X-4006502Y716561D01*
X-4006595Y716534D01*
X-3893365Y829698D01*
X-3892095Y830714D01*
X-3890571Y831222D01*
X-3889047Y831222D01*
X-3887523Y830714D01*
X-3886253Y829698D01*
X-3886200Y829818D01*
X-3773170Y716534D01*
X-3773116Y716561D01*
X-3772100Y715291D01*
X-3771592Y713767D01*
X-3771592Y712243D01*
X-3772100Y710719D01*
X-3773116Y709449D01*
X-3773170Y709421D01*
X-3886200Y596392D01*
X-3886253Y596313D01*
X-3887523Y595297D01*
X-3889047Y594789D01*
G37*
D17*
G01*
X-3710203Y892606D03*
G01*
X-3710203Y533400D03*
G01*
X-3530600Y713003D03*
G01*
X-3530600Y353796D03*
G01*
X-3350996Y533400D03*
G01*
X-3350996Y174193D03*
G01*
X-3171393Y353796D03*
G36*
X-4220631Y253367D02*
G01*
X-4223679Y254383D01*
X-4226219Y256415D01*
X-4226305Y256286D01*
X-4333747Y363728D01*
X-4333699Y363895D01*
X-4335731Y366435D01*
X-4336747Y369483D01*
X-4336747Y372531D01*
X-4335731Y375579D01*
X-4333699Y378119D01*
X-4333747Y378205D01*
X-4226305Y485647D01*
X-4226219Y485599D01*
X-4223679Y487631D01*
X-4220631Y488647D01*
X-4217583Y488647D01*
X-4214535Y487631D01*
X-4211995Y485599D01*
X-4211828Y485647D01*
X-4104386Y378205D01*
X-4104515Y378119D01*
X-4102483Y375579D01*
X-4101467Y372531D01*
X-4101467Y369483D01*
X-4102483Y366435D01*
X-4104515Y363895D01*
X-4104386Y363728D01*
X-4211828Y256286D01*
X-4211995Y256415D01*
X-4214535Y254383D01*
X-4217583Y253367D01*
G37*
D10*
G01*
X-4039488Y191388D03*
G01*
X-3859885Y11785D03*
G01*
X-3680282Y-167817D03*
D12*
G01*
X-1123924Y4260824D03*
D18*
G01*
X-944321Y4081221D03*
G01*
X-764717Y3901617D03*
G01*
X-585088Y3721988D03*
G01*
X-405485Y3542385D03*
G01*
X-225882Y3362782D03*
G01*
X-46278Y3183178D03*
G01*
X133324Y3003575D03*
D19*
G01*
X652145Y-2785745D03*
G01*
X472541Y-2606141D03*
G01*
X292938Y-2426538D03*
G01*
X113334Y-2246934D03*
G01*
X-66268Y-2067331D03*
G01*
X-245871Y-1887728D03*
G01*
X-425475Y-1708124D03*
G01*
X-605078Y-1528521D03*
G01*
X-784682Y-1348917D03*
G01*
X-964285Y-1169314D03*
G01*
X-1143888Y-989711D03*
G01*
X-1323517Y-810082D03*
G01*
X-1503121Y-630478D03*
G01*
X-1682724Y-450875D03*
G01*
X-1862328Y-271271D03*
G01*
X-2041931Y-91668D03*
G01*
X-2221534Y87934D03*
G01*
X-2401138Y267538D03*
G01*
X-2580741Y447141D03*
G36*
X-2761109Y494390D02*
G01*
X-2762633Y494898D01*
X-2763903Y495914D01*
X-2764028Y495807D01*
X-2891281Y623062D01*
X-2891182Y623191D01*
X-2892198Y624461D01*
X-2892706Y625985D01*
X-2892706Y627509D01*
X-2892198Y629033D01*
X-2891182Y630303D01*
X-2891281Y630428D01*
X-2764028Y757681D01*
X-2763903Y757582D01*
X-2762633Y758598D01*
X-2761109Y759106D01*
X-2759585Y759106D01*
X-2758061Y758598D01*
X-2756791Y757582D01*
X-2756662Y757681D01*
X-2629407Y630428D01*
X-2629514Y630303D01*
X-2628498Y629033D01*
X-2627990Y627509D01*
X-2627990Y625985D01*
X-2628498Y624461D01*
X-2629514Y623191D01*
X-2629407Y623062D01*
X-2756662Y495807D01*
X-2756791Y495914D01*
X-2758061Y494898D01*
X-2759585Y494390D01*
G37*
G01*
X-563245Y2823845D03*
G01*
X-383641Y2644241D03*
G01*
X-204038Y2464638D03*
G01*
X-24434Y2285034D03*
G01*
X155168Y2105431D03*
G01*
X334771Y1925828D03*
G01*
X514375Y1746224D03*
G01*
X693978Y1566621D03*
G01*
X873582Y1387017D03*
G01*
X1053211Y1207388D03*
G01*
X1232814Y1027785D03*
G01*
X1412417Y848182D03*
G01*
X1592021Y668578D03*
G01*
X1771624Y488975D03*
G01*
X1951227Y309371D03*
G01*
X2130831Y129768D03*
G01*
X2310434Y-49834D03*
G01*
X2490038Y-229438D03*
G01*
X2669641Y-409041D03*
G36*
X2848485Y-721006D02*
G01*
X2846961Y-720498D01*
X2845691Y-719482D01*
X2845561Y-719581D01*
X2718308Y-592328D01*
X2718414Y-592203D01*
X2717398Y-590933D01*
X2716890Y-589409D01*
X2716890Y-587885D01*
X2717398Y-586361D01*
X2718414Y-585091D01*
X2718308Y-584962D01*
X2845561Y-457707D01*
X2845691Y-457814D01*
X2846961Y-456798D01*
X2848485Y-456290D01*
X2850009Y-456290D01*
X2851533Y-456798D01*
X2852803Y-457814D01*
X2852927Y-457707D01*
X2980181Y-584962D01*
X2980082Y-585091D01*
X2981098Y-586361D01*
X2981606Y-587885D01*
X2981606Y-589409D01*
X2981098Y-590933D01*
X2980082Y-592203D01*
X2980181Y-592328D01*
X2852927Y-719581D01*
X2852803Y-719482D01*
X2851533Y-720498D01*
X2850009Y-721006D01*
G37*
M02*
